<ttFont>
    <TTGlyph name=".notdef" xMin="50" yMin="0" xMax="518" yMax="680">
      <contour>
        <pt x="186" y="469" on="1"/>
        <pt x="149" y="432" on="1"/>
        <pt x="247" y="334" on="1"/>
        <pt x="148" y="235" on="1"/>
        <pt x="185" y="198" on="1"/>
        <pt x="284" y="296" on="1"/>
        <pt x="383" y="198" on="1"/>
        <pt x="420" y="235" on="1"/>
        <pt x="321" y="334" on="1"/>
        <pt x="419" y="432" on="1"/>
        <pt x="382" y="469" on="1"/>
        <pt x="284" y="371" on="1"/>
      </contour>
      <contour>
        <pt x="50" y="0" on="1"/>
        <pt x="50" y="680" on="1"/>
        <pt x="518" y="680" on="1"/>
        <pt x="518" y="0" on="1"/>
      </contour>
    </TTGlyph>
    <TTGlyph name="A" xMin="-13" yMin="0" xMax="649" yMax="658">
      <contour>
        <pt x="467" y="70" on="1"/>
        <pt x="467" y="76" on="0"/>
        <pt x="464" y="83" on="1"/>
        <pt x="419" y="210" on="1"/>
        <pt x="187" y="210" on="1"/>
        <pt x="134" y="57" on="1"/>
        <pt x="220" y="22" on="1"/>
        <pt x="214" y="0" on="1"/>
        <pt x="-7" y="0" on="1"/>
        <pt x="-13" y="22" on="1"/>
        <pt x="42" y="45" on="1"/>
        <pt x="59" y="52" on="0"/>
        <pt x="68" y="64" on="0"/>
        <pt x="75" y="83" on="1"/>
        <pt x="275" y="640" on="1"/>
        <pt x="336" y="658" on="1"/>
        <pt x="356" y="650" on="1"/>
        <pt x="571" y="54" on="1"/>
        <pt x="649" y="22" on="1"/>
        <pt x="643" y="0" on="1"/>
        <pt x="398" y="0" on="1"/>
        <pt x="392" y="22" on="1"/>
        <pt x="447" y="45" on="1"/>
        <pt x="467" y="53" on="0"/>
      </contour>
      <contour>
        <pt x="302" y="542" on="1"/>
        <pt x="204" y="261" on="1"/>
        <pt x="401" y="261" on="1"/>
      </contour>
    </TTGlyph>
    <TTGlyph name="AE" xMin="-16" yMin="0" xMax="815" yMax="650">
      <contour>
        <pt x="550" y="570" on="1"/>
        <pt x="550" y="352" on="1"/>
        <pt x="623" y="352" on="0"/>
        <pt x="714" y="360" on="1"/>
        <pt x="745" y="362" on="1"/>
        <pt x="756" y="350" on="1"/>
        <pt x="745" y="298" on="1"/>
        <pt x="631" y="303" on="0"/>
        <pt x="550" y="303" on="1"/>
        <pt x="550" y="50" on="1"/>
        <pt x="737" y="54" on="1"/>
        <pt x="785" y="142" on="1"/>
        <pt x="815" y="135" on="1"/>
        <pt x="815" y="0" on="1"/>
        <pt x="385" y="0" on="1"/>
        <pt x="379" y="22" on="1"/>
        <pt x="434" y="45" on="1"/>
        <pt x="452" y="52" on="0"/>
        <pt x="465" y="68" on="0"/>
        <pt x="465" y="83" on="1"/>
        <pt x="465" y="203" on="1"/>
        <pt x="237" y="203" on="1"/>
        <pt x="151" y="57" on="1"/>
        <pt x="237" y="22" on="1"/>
        <pt x="231" y="0" on="1"/>
        <pt x="-10" y="0" on="1"/>
        <pt x="-16" y="22" on="1"/>
        <pt x="39" y="45" on="1"/>
        <pt x="75" y="60" on="0"/>
        <pt x="89" y="83" on="1"/>
        <pt x="395" y="593" on="1"/>
        <pt x="309" y="628" on="1"/>
        <pt x="315" y="650" on="1"/>
        <pt x="810" y="650" on="1"/>
        <pt x="810" y="515" on="1"/>
        <pt x="780" y="508" on="1"/>
        <pt x="732" y="596" on="1"/>
        <pt x="577" y="600" on="1"/>
        <pt x="550" y="600" on="0"/>
      </contour>
      <contour>
        <pt x="465" y="256" on="1"/>
        <pt x="465" y="589" on="1"/>
        <pt x="268" y="256" on="1"/>
      </contour>
    </TTGlyph>
    <TTGlyph name="Aacute" xMin="-13" yMin="0" xMax="649" yMax="865">
      <contour>
        <pt x="467" y="70" on="1"/>
        <pt x="467" y="76" on="0"/>
        <pt x="464" y="83" on="1"/>
        <pt x="419" y="210" on="1"/>
        <pt x="187" y="210" on="1"/>
        <pt x="134" y="57" on="1"/>
        <pt x="220" y="22" on="1"/>
        <pt x="214" y="0" on="1"/>
        <pt x="-7" y="0" on="1"/>
        <pt x="-13" y="22" on="1"/>
        <pt x="42" y="45" on="1"/>
        <pt x="59" y="52" on="0"/>
        <pt x="68" y="64" on="0"/>
        <pt x="75" y="83" on="1"/>
        <pt x="275" y="640" on="1"/>
        <pt x="336" y="658" on="1"/>
        <pt x="356" y="650" on="1"/>
        <pt x="571" y="54" on="1"/>
        <pt x="649" y="22" on="1"/>
        <pt x="643" y="0" on="1"/>
        <pt x="398" y="0" on="1"/>
        <pt x="392" y="22" on="1"/>
        <pt x="447" y="45" on="1"/>
        <pt x="467" y="53" on="0"/>
      </contour>
      <contour>
        <pt x="302" y="542" on="1"/>
        <pt x="204" y="261" on="1"/>
        <pt x="401" y="261" on="1"/>
      </contour>
      <contour>
        <pt x="217" y="742" on="1"/>
        <pt x="389" y="865" on="1"/>
        <pt x="430" y="813" on="1"/>
        <pt x="426" y="793" on="1"/>
        <pt x="230" y="722" on="1"/>
      </contour>
    </TTGlyph>
    <TTGlyph name="Acircumflex" xMin="-13" yMin="0" xMax="649" yMax="858">
      <contour>
        <pt x="467" y="70" on="1"/>
        <pt x="467" y="76" on="0"/>
        <pt x="464" y="83" on="1"/>
        <pt x="419" y="210" on="1"/>
        <pt x="187" y="210" on="1"/>
        <pt x="134" y="57" on="1"/>
        <pt x="220" y="22" on="1"/>
        <pt x="214" y="0" on="1"/>
        <pt x="-7" y="0" on="1"/>
        <pt x="-13" y="22" on="1"/>
        <pt x="42" y="45" on="1"/>
        <pt x="59" y="52" on="0"/>
        <pt x="68" y="64" on="0"/>
        <pt x="75" y="83" on="1"/>
        <pt x="275" y="640" on="1"/>
        <pt x="336" y="658" on="1"/>
        <pt x="356" y="650" on="1"/>
        <pt x="571" y="54" on="1"/>
        <pt x="649" y="22" on="1"/>
        <pt x="643" y="0" on="1"/>
        <pt x="398" y="0" on="1"/>
        <pt x="392" y="22" on="1"/>
        <pt x="447" y="45" on="1"/>
        <pt x="467" y="53" on="0"/>
      </contour>
      <contour>
        <pt x="302" y="542" on="1"/>
        <pt x="204" y="261" on="1"/>
        <pt x="401" y="261" on="1"/>
      </contour>
      <contour>
        <pt x="178" y="747" on="1"/>
        <pt x="298" y="858" on="1"/>
        <pt x="338" y="858" on="1"/>
        <pt x="458" y="747" on="1"/>
        <pt x="439" y="728" on="1"/>
        <pt x="318" y="787" on="1"/>
        <pt x="197" y="728" on="1"/>
      </contour>
    </TTGlyph>
    <TTGlyph name="Adieresis" xMin="-13" yMin="0" xMax="649" yMax="842">
      <contour>
        <pt x="467" y="70" on="1"/>
        <pt x="467" y="76" on="0"/>
        <pt x="464" y="83" on="1"/>
        <pt x="419" y="210" on="1"/>
        <pt x="187" y="210" on="1"/>
        <pt x="134" y="57" on="1"/>
        <pt x="220" y="22" on="1"/>
        <pt x="214" y="0" on="1"/>
        <pt x="-7" y="0" on="1"/>
        <pt x="-13" y="22" on="1"/>
        <pt x="42" y="45" on="1"/>
        <pt x="59" y="52" on="0"/>
        <pt x="68" y="64" on="0"/>
        <pt x="75" y="83" on="1"/>
        <pt x="275" y="640" on="1"/>
        <pt x="336" y="658" on="1"/>
        <pt x="356" y="650" on="1"/>
        <pt x="571" y="54" on="1"/>
        <pt x="649" y="22" on="1"/>
        <pt x="643" y="0" on="1"/>
        <pt x="398" y="0" on="1"/>
        <pt x="392" y="22" on="1"/>
        <pt x="447" y="45" on="1"/>
        <pt x="467" y="53" on="0"/>
      </contour>
      <contour>
        <pt x="302" y="542" on="1"/>
        <pt x="204" y="261" on="1"/>
        <pt x="401" y="261" on="1"/>
      </contour>
      <contour>
        <pt x="195" y="732" on="0"/>
        <pt x="164" y="763" on="0"/>
        <pt x="164" y="810" on="0"/>
        <pt x="195" y="842" on="0"/>
        <pt x="242" y="842" on="0"/>
        <pt x="274" y="810" on="0"/>
        <pt x="274" y="763" on="0"/>
        <pt x="242" y="732" on="0"/>
      </contour>
      <contour>
        <pt x="393" y="732" on="0"/>
        <pt x="362" y="763" on="0"/>
        <pt x="362" y="810" on="0"/>
        <pt x="393" y="842" on="0"/>
        <pt x="440" y="842" on="0"/>
        <pt x="472" y="810" on="0"/>
        <pt x="472" y="763" on="0"/>
        <pt x="440" y="732" on="0"/>
      </contour>
    </TTGlyph>
    <TTGlyph name="Agrave" xMin="-13" yMin="0" xMax="649" yMax="858">
      <contour>
        <pt x="467" y="70" on="1"/>
        <pt x="467" y="76" on="0"/>
        <pt x="464" y="83" on="1"/>
        <pt x="419" y="210" on="1"/>
        <pt x="187" y="210" on="1"/>
        <pt x="134" y="57" on="1"/>
        <pt x="220" y="22" on="1"/>
        <pt x="214" y="0" on="1"/>
        <pt x="-7" y="0" on="1"/>
        <pt x="-13" y="22" on="1"/>
        <pt x="42" y="45" on="1"/>
        <pt x="59" y="52" on="0"/>
        <pt x="68" y="64" on="0"/>
        <pt x="75" y="83" on="1"/>
        <pt x="275" y="640" on="1"/>
        <pt x="336" y="658" on="1"/>
        <pt x="356" y="650" on="1"/>
        <pt x="571" y="54" on="1"/>
        <pt x="649" y="22" on="1"/>
        <pt x="643" y="0" on="1"/>
        <pt x="398" y="0" on="1"/>
        <pt x="392" y="22" on="1"/>
        <pt x="447" y="45" on="1"/>
        <pt x="467" y="53" on="0"/>
      </contour>
      <contour>
        <pt x="302" y="542" on="1"/>
        <pt x="204" y="261" on="1"/>
        <pt x="401" y="261" on="1"/>
      </contour>
      <contour>
        <pt x="392" y="722" on="1"/>
        <pt x="181" y="799" on="1"/>
        <pt x="224" y="854" on="1"/>
        <pt x="244" y="858" on="1"/>
        <pt x="405" y="742" on="1"/>
      </contour>
    </TTGlyph>
    <TTGlyph name="Aring" xMin="-13" yMin="0" xMax="649" yMax="879">
      <contour>
        <pt x="467" y="70" on="1"/>
        <pt x="467" y="76" on="0"/>
        <pt x="464" y="83" on="1"/>
        <pt x="419" y="210" on="1"/>
        <pt x="187" y="210" on="1"/>
        <pt x="134" y="57" on="1"/>
        <pt x="220" y="22" on="1"/>
        <pt x="214" y="0" on="1"/>
        <pt x="-7" y="0" on="1"/>
        <pt x="-13" y="22" on="1"/>
        <pt x="42" y="45" on="1"/>
        <pt x="59" y="52" on="0"/>
        <pt x="68" y="64" on="0"/>
        <pt x="75" y="83" on="1"/>
        <pt x="275" y="640" on="1"/>
        <pt x="336" y="658" on="1"/>
        <pt x="356" y="650" on="1"/>
        <pt x="571" y="54" on="1"/>
        <pt x="649" y="22" on="1"/>
        <pt x="643" y="0" on="1"/>
        <pt x="398" y="0" on="1"/>
        <pt x="392" y="22" on="1"/>
        <pt x="447" y="45" on="1"/>
        <pt x="467" y="53" on="0"/>
      </contour>
      <contour>
        <pt x="302" y="542" on="1"/>
        <pt x="204" y="261" on="1"/>
        <pt x="401" y="261" on="1"/>
      </contour>
      <contour>
        <pt x="279" y="796" on="1"/>
        <pt x="279" y="743" on="0"/>
        <pt x="322" y="743" on="1"/>
        <pt x="335" y="743" on="0"/>
        <pt x="342" y="748" on="1"/>
        <pt x="357" y="759" on="0"/>
        <pt x="357" y="790" on="1"/>
        <pt x="357" y="843" on="0"/>
        <pt x="314" y="843" on="1"/>
        <pt x="301" y="843" on="0"/>
        <pt x="294" y="838" on="1"/>
        <pt x="279" y="827" on="0"/>
      </contour>
      <contour>
        <pt x="273" y="707" on="0"/>
        <pt x="222" y="753" on="0"/>
        <pt x="222" y="832" on="0"/>
        <pt x="277" y="879" on="0"/>
        <pt x="362" y="879" on="0"/>
        <pt x="414" y="832" on="0"/>
        <pt x="414" y="754" on="0"/>
        <pt x="358" y="707" on="0"/>
      </contour>
    </TTGlyph>
    <TTGlyph name="Atilde" xMin="-13" yMin="0" xMax="649" yMax="853">
      <contour>
        <pt x="467" y="70" on="1"/>
        <pt x="467" y="76" on="0"/>
        <pt x="464" y="83" on="1"/>
        <pt x="419" y="210" on="1"/>
        <pt x="187" y="210" on="1"/>
        <pt x="134" y="57" on="1"/>
        <pt x="220" y="22" on="1"/>
        <pt x="214" y="0" on="1"/>
        <pt x="-7" y="0" on="1"/>
        <pt x="-13" y="22" on="1"/>
        <pt x="42" y="45" on="1"/>
        <pt x="59" y="52" on="0"/>
        <pt x="68" y="64" on="0"/>
        <pt x="75" y="83" on="1"/>
        <pt x="275" y="640" on="1"/>
        <pt x="336" y="658" on="1"/>
        <pt x="356" y="650" on="1"/>
        <pt x="571" y="54" on="1"/>
        <pt x="649" y="22" on="1"/>
        <pt x="643" y="0" on="1"/>
        <pt x="398" y="0" on="1"/>
        <pt x="392" y="22" on="1"/>
        <pt x="447" y="45" on="1"/>
        <pt x="467" y="53" on="0"/>
      </contour>
      <contour>
        <pt x="302" y="542" on="1"/>
        <pt x="204" y="261" on="1"/>
        <pt x="401" y="261" on="1"/>
      </contour>
      <contour>
        <pt x="405" y="801" on="1"/>
        <pt x="405" y="801" on="0"/>
        <pt x="406" y="801" on="1"/>
        <pt x="461" y="848" on="1"/>
        <pt x="478" y="837" on="1"/>
        <pt x="426" y="738" on="1"/>
        <pt x="406" y="733" on="1"/>
        <pt x="380" y="733" on="0"/>
        <pt x="248" y="785" on="0"/>
        <pt x="231" y="785" on="1"/>
        <pt x="231" y="785" on="0"/>
        <pt x="230" y="785" on="1"/>
        <pt x="175" y="738" on="1"/>
        <pt x="158" y="749" on="1"/>
        <pt x="210" y="848" on="1"/>
        <pt x="230" y="853" on="1"/>
        <pt x="256" y="853" on="0"/>
        <pt x="388" y="801" on="0"/>
      </contour>
    </TTGlyph>
    <TTGlyph name="B" xMin="34" yMin="-8" xMax="575" yMax="658">
      <contour>
        <pt x="120" y="83" on="1"/>
        <pt x="120" y="593" on="1"/>
        <pt x="34" y="628" on="1"/>
        <pt x="40" y="650" on="1"/>
        <pt x="235" y="658" on="0"/>
        <pt x="296" y="658" on="1"/>
        <pt x="545" y="658" on="0"/>
        <pt x="545" y="489" on="1"/>
        <pt x="545" y="388" on="0"/>
        <pt x="454" y="339" on="1"/>
        <pt x="575" y="297" on="0"/>
        <pt x="575" y="172" on="1"/>
        <pt x="575" y="127" on="0"/>
        <pt x="540" y="60" on="0"/>
        <pt x="486" y="22" on="0"/>
        <pt x="446" y="10" on="1"/>
        <pt x="380" y="-8" on="0"/>
        <pt x="240" y="-8" on="0"/>
        <pt x="40" y="0" on="1"/>
        <pt x="34" y="22" on="1"/>
        <pt x="89" y="45" on="1"/>
        <pt x="107" y="52" on="0"/>
        <pt x="120" y="68" on="0"/>
      </contour>
      <contour>
        <pt x="329" y="305" on="1"/>
        <pt x="232" y="305" on="1"/>
        <pt x="205" y="305" on="0"/>
        <pt x="205" y="280" on="1"/>
        <pt x="205" y="53" on="1"/>
        <pt x="231" y="49" on="0"/>
        <pt x="385" y="49" on="0"/>
        <pt x="443" y="67" on="1"/>
        <pt x="482" y="97" on="0"/>
        <pt x="482" y="165" on="1"/>
        <pt x="482" y="305" on="0"/>
      </contour>
      <contour>
        <pt x="314" y="603" on="1"/>
        <pt x="232" y="603" on="1"/>
        <pt x="205" y="603" on="0"/>
        <pt x="205" y="578" on="1"/>
        <pt x="205" y="360" on="1"/>
        <pt x="231" y="356" on="0"/>
        <pt x="367" y="356" on="0"/>
        <pt x="416" y="376" on="1"/>
        <pt x="452" y="403" on="0"/>
        <pt x="452" y="526" on="0"/>
        <pt x="389" y="603" on="0"/>
      </contour>
    </TTGlyph>
    <TTGlyph name="C" xMin="46" yMin="-8" xMax="564" yMax="658">
      <contour>
        <pt x="350" y="-8" on="1"/>
        <pt x="217" y="-8" on="0"/>
        <pt x="46" y="166" on="0"/>
        <pt x="46" y="482" on="0"/>
        <pt x="232" y="658" on="0"/>
        <pt x="362" y="658" on="1"/>
        <pt x="455" y="658" on="0"/>
        <pt x="506" y="617" on="1"/>
        <pt x="542" y="589" on="0"/>
        <pt x="555" y="567" on="1"/>
        <pt x="490" y="477" on="1"/>
        <pt x="466" y="484" on="1"/>
        <pt x="461" y="578" on="1"/>
        <pt x="415" y="594" on="0"/>
        <pt x="274" y="594" on="0"/>
        <pt x="225" y="572" on="1"/>
        <pt x="135" y="488" on="0"/>
        <pt x="135" y="334" on="1"/>
        <pt x="135" y="199" on="0"/>
        <pt x="275" y="54" on="0"/>
        <pt x="382" y="54" on="1"/>
        <pt x="463" y="54" on="0"/>
        <pt x="549" y="97" on="1"/>
        <pt x="564" y="68" on="1"/>
        <pt x="538" y="42" on="0"/>
        <pt x="425" y="-8" on="0"/>
      </contour>
    </TTGlyph>
    <TTGlyph name="Ccedilla" xMin="46" yMin="-238" xMax="564" yMax="658">
      <contour>
        <pt x="254" y="-187" on="1"/>
        <pt x="277" y="-196" on="0"/>
        <pt x="332" y="-196" on="0"/>
        <pt x="353" y="-189" on="1"/>
        <pt x="362" y="-175" on="0"/>
        <pt x="362" y="-154" on="1"/>
        <pt x="362" y="-99" on="0"/>
        <pt x="300" y="-99" on="1"/>
        <pt x="295" y="-99" on="0"/>
        <pt x="289" y="-99" on="1"/>
        <pt x="278" y="-86" on="1"/>
        <pt x="301" y="-4" on="1"/>
        <pt x="187" y="12" on="0"/>
        <pt x="46" y="181" on="0"/>
        <pt x="46" y="320" on="1"/>
        <pt x="46" y="482" on="0"/>
        <pt x="232" y="658" on="0"/>
        <pt x="362" y="658" on="1"/>
        <pt x="455" y="658" on="0"/>
        <pt x="506" y="617" on="1"/>
        <pt x="542" y="589" on="0"/>
        <pt x="555" y="567" on="1"/>
        <pt x="490" y="477" on="1"/>
        <pt x="466" y="484" on="1"/>
        <pt x="461" y="578" on="1"/>
        <pt x="415" y="594" on="0"/>
        <pt x="274" y="594" on="0"/>
        <pt x="225" y="572" on="1"/>
        <pt x="135" y="488" on="0"/>
        <pt x="135" y="334" on="1"/>
        <pt x="135" y="199" on="0"/>
        <pt x="275" y="54" on="0"/>
        <pt x="382" y="54" on="1"/>
        <pt x="463" y="54" on="0"/>
        <pt x="549" y="97" on="1"/>
        <pt x="564" y="68" on="1"/>
        <pt x="538" y="42" on="0"/>
        <pt x="425" y="-8" on="0"/>
        <pt x="350" y="-8" on="1"/>
        <pt x="337" y="-8" on="1"/>
        <pt x="334" y="-68" on="1"/>
        <pt x="371" y="-70" on="0"/>
        <pt x="421" y="-112" on="0"/>
        <pt x="421" y="-185" on="0"/>
        <pt x="356" y="-238" on="0"/>
        <pt x="267" y="-238" on="0"/>
        <pt x="251" y="-230" on="1"/>
        <pt x="244" y="-220" on="1"/>
      </contour>
    </TTGlyph>
    <TTGlyph name="D" xMin="34" yMin="-8" xMax="658" yMax="658">
      <contour>
        <pt x="120" y="83" on="1"/>
        <pt x="120" y="593" on="1"/>
        <pt x="34" y="628" on="1"/>
        <pt x="40" y="650" on="1"/>
        <pt x="266" y="658" on="0"/>
        <pt x="324" y="658" on="1"/>
        <pt x="658" y="658" on="0"/>
        <pt x="658" y="316" on="1"/>
        <pt x="658" y="138" on="0"/>
        <pt x="469" y="-8" on="0"/>
        <pt x="265" y="-8" on="1"/>
        <pt x="240" y="-8" on="0"/>
        <pt x="40" y="0" on="1"/>
        <pt x="34" y="22" on="1"/>
        <pt x="89" y="45" on="1"/>
        <pt x="107" y="52" on="0"/>
        <pt x="120" y="68" on="0"/>
      </contour>
      <contour>
        <pt x="339" y="603" on="1"/>
        <pt x="232" y="603" on="1"/>
        <pt x="205" y="603" on="0"/>
        <pt x="205" y="578" on="1"/>
        <pt x="205" y="53" on="1"/>
        <pt x="244" y="49" on="0"/>
        <pt x="305" y="49" on="1"/>
        <pt x="437" y="49" on="0"/>
        <pt x="503" y="92" on="1"/>
        <pt x="565" y="168" on="0"/>
        <pt x="565" y="445" on="0"/>
        <pt x="449" y="603" on="0"/>
      </contour>
    </TTGlyph>
    <TTGlyph name="E" xMin="34" yMin="0" xMax="500" yMax="650">
      <contour>
        <pt x="205" y="568" on="1"/>
        <pt x="205" y="352" on="1"/>
        <pt x="300" y="352" on="0"/>
        <pt x="398" y="361" on="1"/>
        <pt x="430" y="364" on="1"/>
        <pt x="441" y="352" on="1"/>
        <pt x="430" y="296" on="1"/>
        <pt x="311" y="303" on="0"/>
        <pt x="205" y="303" on="1"/>
        <pt x="205" y="52" on="1"/>
        <pt x="422" y="56" on="1"/>
        <pt x="470" y="144" on="1"/>
        <pt x="500" y="137" on="1"/>
        <pt x="500" y="0" on="1"/>
        <pt x="40" y="0" on="1"/>
        <pt x="34" y="22" on="1"/>
        <pt x="89" y="45" on="1"/>
        <pt x="107" y="52" on="0"/>
        <pt x="120" y="68" on="0"/>
        <pt x="120" y="83" on="1"/>
        <pt x="120" y="593" on="1"/>
        <pt x="34" y="628" on="1"/>
        <pt x="40" y="650" on="1"/>
        <pt x="495" y="650" on="1"/>
        <pt x="495" y="513" on="1"/>
        <pt x="465" y="506" on="1"/>
        <pt x="417" y="594" on="1"/>
        <pt x="232" y="598" on="1"/>
        <pt x="205" y="598" on="0"/>
      </contour>
    </TTGlyph>
    <TTGlyph name="Eacute" xMin="34" yMin="0" xMax="500" yMax="865">
      <contour>
        <pt x="205" y="568" on="1"/>
        <pt x="205" y="352" on="1"/>
        <pt x="300" y="352" on="0"/>
        <pt x="398" y="361" on="1"/>
        <pt x="430" y="364" on="1"/>
        <pt x="441" y="352" on="1"/>
        <pt x="430" y="296" on="1"/>
        <pt x="311" y="303" on="0"/>
        <pt x="205" y="303" on="1"/>
        <pt x="205" y="52" on="1"/>
        <pt x="422" y="56" on="1"/>
        <pt x="470" y="144" on="1"/>
        <pt x="500" y="137" on="1"/>
        <pt x="500" y="0" on="1"/>
        <pt x="40" y="0" on="1"/>
        <pt x="34" y="22" on="1"/>
        <pt x="89" y="45" on="1"/>
        <pt x="107" y="52" on="0"/>
        <pt x="120" y="68" on="0"/>
        <pt x="120" y="83" on="1"/>
        <pt x="120" y="593" on="1"/>
        <pt x="34" y="628" on="1"/>
        <pt x="40" y="650" on="1"/>
        <pt x="495" y="650" on="1"/>
        <pt x="495" y="513" on="1"/>
        <pt x="465" y="506" on="1"/>
        <pt x="417" y="594" on="1"/>
        <pt x="232" y="598" on="1"/>
        <pt x="205" y="598" on="0"/>
      </contour>
      <contour>
        <pt x="181" y="742" on="1"/>
        <pt x="353" y="865" on="1"/>
        <pt x="394" y="813" on="1"/>
        <pt x="390" y="793" on="1"/>
        <pt x="194" y="722" on="1"/>
      </contour>
    </TTGlyph>
    <TTGlyph name="Ecircumflex" xMin="34" yMin="0" xMax="500" yMax="858">
      <contour>
        <pt x="205" y="568" on="1"/>
        <pt x="205" y="352" on="1"/>
        <pt x="300" y="352" on="0"/>
        <pt x="398" y="361" on="1"/>
        <pt x="430" y="364" on="1"/>
        <pt x="441" y="352" on="1"/>
        <pt x="430" y="296" on="1"/>
        <pt x="311" y="303" on="0"/>
        <pt x="205" y="303" on="1"/>
        <pt x="205" y="52" on="1"/>
        <pt x="422" y="56" on="1"/>
        <pt x="470" y="144" on="1"/>
        <pt x="500" y="137" on="1"/>
        <pt x="500" y="0" on="1"/>
        <pt x="40" y="0" on="1"/>
        <pt x="34" y="22" on="1"/>
        <pt x="89" y="45" on="1"/>
        <pt x="107" y="52" on="0"/>
        <pt x="120" y="68" on="0"/>
        <pt x="120" y="83" on="1"/>
        <pt x="120" y="593" on="1"/>
        <pt x="34" y="628" on="1"/>
        <pt x="40" y="650" on="1"/>
        <pt x="495" y="650" on="1"/>
        <pt x="495" y="513" on="1"/>
        <pt x="465" y="506" on="1"/>
        <pt x="417" y="594" on="1"/>
        <pt x="232" y="598" on="1"/>
        <pt x="205" y="598" on="0"/>
      </contour>
      <contour>
        <pt x="147" y="747" on="1"/>
        <pt x="267" y="858" on="1"/>
        <pt x="307" y="858" on="1"/>
        <pt x="427" y="747" on="1"/>
        <pt x="408" y="728" on="1"/>
        <pt x="287" y="787" on="1"/>
        <pt x="166" y="728" on="1"/>
      </contour>
    </TTGlyph>
    <TTGlyph name="Edieresis" xMin="34" yMin="0" xMax="500" yMax="842">
      <contour>
        <pt x="205" y="568" on="1"/>
        <pt x="205" y="352" on="1"/>
        <pt x="300" y="352" on="0"/>
        <pt x="398" y="361" on="1"/>
        <pt x="430" y="364" on="1"/>
        <pt x="441" y="352" on="1"/>
        <pt x="430" y="296" on="1"/>
        <pt x="311" y="303" on="0"/>
        <pt x="205" y="303" on="1"/>
        <pt x="205" y="52" on="1"/>
        <pt x="422" y="56" on="1"/>
        <pt x="470" y="144" on="1"/>
        <pt x="500" y="137" on="1"/>
        <pt x="500" y="0" on="1"/>
        <pt x="40" y="0" on="1"/>
        <pt x="34" y="22" on="1"/>
        <pt x="89" y="45" on="1"/>
        <pt x="107" y="52" on="0"/>
        <pt x="120" y="68" on="0"/>
        <pt x="120" y="83" on="1"/>
        <pt x="120" y="593" on="1"/>
        <pt x="34" y="628" on="1"/>
        <pt x="40" y="650" on="1"/>
        <pt x="495" y="650" on="1"/>
        <pt x="495" y="513" on="1"/>
        <pt x="465" y="506" on="1"/>
        <pt x="417" y="594" on="1"/>
        <pt x="232" y="598" on="1"/>
        <pt x="205" y="598" on="0"/>
      </contour>
      <contour>
        <pt x="164" y="732" on="0"/>
        <pt x="133" y="763" on="0"/>
        <pt x="133" y="810" on="0"/>
        <pt x="164" y="842" on="0"/>
        <pt x="211" y="842" on="0"/>
        <pt x="243" y="810" on="0"/>
        <pt x="243" y="763" on="0"/>
        <pt x="211" y="732" on="0"/>
      </contour>
      <contour>
        <pt x="362" y="732" on="0"/>
        <pt x="331" y="763" on="0"/>
        <pt x="331" y="810" on="0"/>
        <pt x="362" y="842" on="0"/>
        <pt x="409" y="842" on="0"/>
        <pt x="441" y="810" on="0"/>
        <pt x="441" y="763" on="0"/>
        <pt x="409" y="732" on="0"/>
      </contour>
    </TTGlyph>
    <TTGlyph name="Egrave" xMin="34" yMin="0" xMax="500" yMax="858">
      <contour>
        <pt x="205" y="568" on="1"/>
        <pt x="205" y="352" on="1"/>
        <pt x="300" y="352" on="0"/>
        <pt x="398" y="361" on="1"/>
        <pt x="430" y="364" on="1"/>
        <pt x="441" y="352" on="1"/>
        <pt x="430" y="296" on="1"/>
        <pt x="311" y="303" on="0"/>
        <pt x="205" y="303" on="1"/>
        <pt x="205" y="52" on="1"/>
        <pt x="422" y="56" on="1"/>
        <pt x="470" y="144" on="1"/>
        <pt x="500" y="137" on="1"/>
        <pt x="500" y="0" on="1"/>
        <pt x="40" y="0" on="1"/>
        <pt x="34" y="22" on="1"/>
        <pt x="89" y="45" on="1"/>
        <pt x="107" y="52" on="0"/>
        <pt x="120" y="68" on="0"/>
        <pt x="120" y="83" on="1"/>
        <pt x="120" y="593" on="1"/>
        <pt x="34" y="628" on="1"/>
        <pt x="40" y="650" on="1"/>
        <pt x="495" y="650" on="1"/>
        <pt x="495" y="513" on="1"/>
        <pt x="465" y="506" on="1"/>
        <pt x="417" y="594" on="1"/>
        <pt x="232" y="598" on="1"/>
        <pt x="205" y="598" on="0"/>
      </contour>
      <contour>
        <pt x="366" y="722" on="1"/>
        <pt x="155" y="799" on="1"/>
        <pt x="198" y="854" on="1"/>
        <pt x="218" y="858" on="1"/>
        <pt x="379" y="742" on="1"/>
      </contour>
    </TTGlyph>
    <TTGlyph name="Eth" xMin="35" yMin="-7" xMax="659" yMax="658">
      <contour>
        <pt x="121" y="350" on="1"/>
        <pt x="121" y="593" on="1"/>
        <pt x="35" y="628" on="1"/>
        <pt x="41" y="650" on="1"/>
        <pt x="267" y="658" on="0"/>
        <pt x="325" y="658" on="1"/>
        <pt x="659" y="658" on="0"/>
        <pt x="659" y="316" on="1"/>
        <pt x="659" y="138" on="0"/>
        <pt x="469" y="-7" on="0"/>
        <pt x="263" y="-7" on="1"/>
        <pt x="216" y="-7" on="0"/>
        <pt x="41" y="0" on="1"/>
        <pt x="35" y="22" on="1"/>
        <pt x="90" y="45" on="1"/>
        <pt x="108" y="52" on="0"/>
        <pt x="121" y="68" on="0"/>
        <pt x="121" y="83" on="1"/>
        <pt x="121" y="298" on="1"/>
        <pt x="93" y="299" on="0"/>
        <pt x="46" y="299" on="1"/>
        <pt x="35" y="311" on="1"/>
        <pt x="47" y="350" on="1"/>
      </contour>
      <contour>
        <pt x="340" y="603" on="1"/>
        <pt x="233" y="603" on="1"/>
        <pt x="206" y="603" on="0"/>
        <pt x="206" y="578" on="1"/>
        <pt x="206" y="351" on="1"/>
        <pt x="373" y="358" on="1"/>
        <pt x="384" y="346" on="1"/>
        <pt x="373" y="294" on="1"/>
        <pt x="292" y="296" on="0"/>
        <pt x="206" y="297" on="1"/>
        <pt x="206" y="53" on="1"/>
        <pt x="245" y="49" on="0"/>
        <pt x="306" y="49" on="1"/>
        <pt x="438" y="49" on="0"/>
        <pt x="504" y="92" on="1"/>
        <pt x="566" y="168" on="0"/>
        <pt x="566" y="445" on="0"/>
        <pt x="450" y="603" on="0"/>
      </contour>
    </TTGlyph>
    <TTGlyph name="Euro" xMin="31" yMin="12" xMax="565" yMax="638">
      <contour>
        <pt x="389" y="638" on="1"/>
        <pt x="437" y="638" on="0"/>
        <pt x="520" y="603" on="0"/>
        <pt x="553" y="572" on="0"/>
        <pt x="556" y="565" on="1"/>
        <pt x="505" y="478" on="1"/>
        <pt x="483" y="484" on="1"/>
        <pt x="478" y="566" on="1"/>
        <pt x="443" y="578" on="0"/>
        <pt x="323" y="578" on="0"/>
        <pt x="275" y="557" on="1"/>
        <pt x="209" y="500" on="0"/>
        <pt x="193" y="389" on="1"/>
        <pt x="473" y="393" on="1"/>
        <pt x="483" y="381" on="1"/>
        <pt x="473" y="338" on="1"/>
        <pt x="50" y="338" on="1"/>
        <pt x="40" y="349" on="1"/>
        <pt x="51" y="389" on="1"/>
        <pt x="111" y="389" on="1"/>
        <pt x="132" y="509" on="0"/>
        <pt x="291" y="638" on="0"/>
      </contour>
      <contour>
        <pt x="409" y="70" on="1"/>
        <pt x="447" y="70" on="0"/>
        <pt x="534" y="92" on="0"/>
        <pt x="551" y="101" on="1"/>
        <pt x="565" y="73" on="1"/>
        <pt x="545" y="53" on="0"/>
        <pt x="438" y="12" on="0"/>
        <pt x="378" y="12" on="1"/>
        <pt x="283" y="12" on="0"/>
        <pt x="141" y="125" on="0"/>
        <pt x="116" y="227" on="1"/>
        <pt x="42" y="227" on="1"/>
        <pt x="31" y="239" on="1"/>
        <pt x="43" y="278" on="1"/>
        <pt x="454" y="278" on="1"/>
        <pt x="465" y="266" on="1"/>
        <pt x="454" y="223" on="1"/>
        <pt x="328" y="225" on="0"/>
        <pt x="207" y="226" on="1"/>
        <pt x="232" y="148" on="0"/>
        <pt x="341" y="70" on="0"/>
      </contour>
    </TTGlyph>
    <TTGlyph name="F" xMin="34" yMin="0" xMax="505" yMax="650">
      <contour>
        <pt x="205" y="306" on="1"/>
        <pt x="205" y="58" on="1"/>
        <pt x="294" y="22" on="1"/>
        <pt x="288" y="0" on="1"/>
        <pt x="40" y="0" on="1"/>
        <pt x="34" y="22" on="1"/>
        <pt x="89" y="45" on="1"/>
        <pt x="107" y="52" on="0"/>
        <pt x="120" y="68" on="0"/>
        <pt x="120" y="83" on="1"/>
        <pt x="120" y="593" on="1"/>
        <pt x="34" y="628" on="1"/>
        <pt x="40" y="650" on="1"/>
        <pt x="505" y="650" on="1"/>
        <pt x="505" y="513" on="1"/>
        <pt x="475" y="506" on="1"/>
        <pt x="427" y="594" on="1"/>
        <pt x="232" y="598" on="1"/>
        <pt x="205" y="598" on="0"/>
        <pt x="205" y="567" on="1"/>
        <pt x="205" y="359" on="1"/>
        <pt x="365" y="359" on="1"/>
        <pt x="397" y="428" on="1"/>
        <pt x="419" y="422" on="1"/>
        <pt x="419" y="236" on="1"/>
        <pt x="397" y="230" on="1"/>
        <pt x="378" y="275" on="1"/>
        <pt x="371" y="293" on="0"/>
        <pt x="355" y="306" on="0"/>
        <pt x="340" y="306" on="1"/>
      </contour>
    </TTGlyph>
    <TTGlyph name="G" xMin="45" yMin="-8" xMax="642" yMax="658">
      <contour>
        <pt x="573" y="200" on="1"/>
        <pt x="573" y="55" on="1"/>
        <pt x="484" y="-8" on="0"/>
        <pt x="222" y="-8" on="0"/>
        <pt x="45" y="162" on="0"/>
        <pt x="45" y="318" on="1"/>
        <pt x="45" y="404" on="0"/>
        <pt x="103" y="539" on="0"/>
        <pt x="152" y="578" on="1"/>
        <pt x="251" y="658" on="0"/>
        <pt x="522" y="658" on="0"/>
        <pt x="581" y="567" on="1"/>
        <pt x="516" y="477" on="1"/>
        <pt x="492" y="484" on="1"/>
        <pt x="487" y="578" on="1"/>
        <pt x="441" y="594" on="0"/>
        <pt x="286" y="594" on="0"/>
        <pt x="237" y="572" on="1"/>
        <pt x="134" y="481" on="0"/>
        <pt x="134" y="195" on="0"/>
        <pt x="281" y="54" on="0"/>
        <pt x="399" y="54" on="1"/>
        <pt x="429" y="54" on="0"/>
        <pt x="454" y="58" on="1"/>
        <pt x="491" y="65" on="0"/>
        <pt x="491" y="95" on="1"/>
        <pt x="491" y="225" on="1"/>
        <pt x="405" y="257" on="1"/>
        <pt x="411" y="279" on="1"/>
        <pt x="635" y="279" on="1"/>
        <pt x="642" y="253" on="1"/>
        <pt x="604" y="238" on="1"/>
        <pt x="586" y="231" on="0"/>
        <pt x="573" y="215" on="0"/>
      </contour>
    </TTGlyph>
    <TTGlyph name="H" xMin="34" yMin="0" xMax="699" yMax="650">
      <contour>
        <pt x="613" y="567" on="1"/>
        <pt x="613" y="57" on="1"/>
        <pt x="699" y="22" on="1"/>
        <pt x="693" y="0" on="1"/>
        <pt x="448" y="0" on="1"/>
        <pt x="442" y="22" on="1"/>
        <pt x="497" y="45" on="1"/>
        <pt x="515" y="52" on="0"/>
        <pt x="528" y="68" on="0"/>
        <pt x="528" y="83" on="1"/>
        <pt x="528" y="304" on="1"/>
        <pt x="205" y="304" on="1"/>
        <pt x="205" y="57" on="1"/>
        <pt x="291" y="22" on="1"/>
        <pt x="285" y="0" on="1"/>
        <pt x="40" y="0" on="1"/>
        <pt x="34" y="22" on="1"/>
        <pt x="89" y="45" on="1"/>
        <pt x="107" y="52" on="0"/>
        <pt x="120" y="68" on="0"/>
        <pt x="120" y="83" on="1"/>
        <pt x="120" y="593" on="1"/>
        <pt x="34" y="628" on="1"/>
        <pt x="40" y="650" on="1"/>
        <pt x="285" y="650" on="1"/>
        <pt x="291" y="628" on="1"/>
        <pt x="236" y="605" on="1"/>
        <pt x="218" y="598" on="0"/>
        <pt x="205" y="582" on="0"/>
        <pt x="205" y="567" on="1"/>
        <pt x="205" y="361" on="1"/>
        <pt x="528" y="361" on="1"/>
        <pt x="528" y="593" on="1"/>
        <pt x="442" y="628" on="1"/>
        <pt x="448" y="650" on="1"/>
        <pt x="693" y="650" on="1"/>
        <pt x="699" y="628" on="1"/>
        <pt x="644" y="605" on="1"/>
        <pt x="626" y="598" on="0"/>
        <pt x="613" y="582" on="0"/>
      </contour>
    </TTGlyph>
    <TTGlyph name="I" xMin="34" yMin="0" xMax="291" yMax="650">
      <contour>
        <pt x="205" y="567" on="1"/>
        <pt x="205" y="57" on="1"/>
        <pt x="291" y="22" on="1"/>
        <pt x="285" y="0" on="1"/>
        <pt x="40" y="0" on="1"/>
        <pt x="34" y="22" on="1"/>
        <pt x="89" y="45" on="1"/>
        <pt x="107" y="52" on="0"/>
        <pt x="120" y="68" on="0"/>
        <pt x="120" y="83" on="1"/>
        <pt x="120" y="593" on="1"/>
        <pt x="34" y="628" on="1"/>
        <pt x="40" y="650" on="1"/>
        <pt x="285" y="650" on="1"/>
        <pt x="291" y="628" on="1"/>
        <pt x="236" y="605" on="1"/>
        <pt x="218" y="598" on="0"/>
        <pt x="205" y="582" on="0"/>
      </contour>
    </TTGlyph>
    <TTGlyph name="Iacute" xMin="34" yMin="0" xMax="291" yMax="865">
      <contour>
        <pt x="205" y="567" on="1"/>
        <pt x="205" y="57" on="1"/>
        <pt x="291" y="22" on="1"/>
        <pt x="285" y="0" on="1"/>
        <pt x="40" y="0" on="1"/>
        <pt x="34" y="22" on="1"/>
        <pt x="89" y="45" on="1"/>
        <pt x="107" y="52" on="0"/>
        <pt x="120" y="68" on="0"/>
        <pt x="120" y="83" on="1"/>
        <pt x="120" y="593" on="1"/>
        <pt x="34" y="628" on="1"/>
        <pt x="40" y="650" on="1"/>
        <pt x="285" y="650" on="1"/>
        <pt x="291" y="628" on="1"/>
        <pt x="236" y="605" on="1"/>
        <pt x="218" y="598" on="0"/>
        <pt x="205" y="582" on="0"/>
      </contour>
      <contour>
        <pt x="56" y="742" on="1"/>
        <pt x="228" y="865" on="1"/>
        <pt x="269" y="813" on="1"/>
        <pt x="265" y="793" on="1"/>
        <pt x="69" y="722" on="1"/>
      </contour>
    </TTGlyph>
    <TTGlyph name="Icircumflex" xMin="22" yMin="0" xMax="302" yMax="858">
      <contour>
        <pt x="205" y="567" on="1"/>
        <pt x="205" y="57" on="1"/>
        <pt x="291" y="22" on="1"/>
        <pt x="285" y="0" on="1"/>
        <pt x="40" y="0" on="1"/>
        <pt x="34" y="22" on="1"/>
        <pt x="89" y="45" on="1"/>
        <pt x="107" y="52" on="0"/>
        <pt x="120" y="68" on="0"/>
        <pt x="120" y="83" on="1"/>
        <pt x="120" y="593" on="1"/>
        <pt x="34" y="628" on="1"/>
        <pt x="40" y="650" on="1"/>
        <pt x="285" y="650" on="1"/>
        <pt x="291" y="628" on="1"/>
        <pt x="236" y="605" on="1"/>
        <pt x="218" y="598" on="0"/>
        <pt x="205" y="582" on="0"/>
      </contour>
      <contour>
        <pt x="22" y="747" on="1"/>
        <pt x="142" y="858" on="1"/>
        <pt x="182" y="858" on="1"/>
        <pt x="302" y="747" on="1"/>
        <pt x="283" y="728" on="1"/>
        <pt x="162" y="787" on="1"/>
        <pt x="41" y="728" on="1"/>
      </contour>
    </TTGlyph>
    <TTGlyph name="Idieresis" xMin="8" yMin="0" xMax="316" yMax="842">
      <contour>
        <pt x="205" y="567" on="1"/>
        <pt x="205" y="57" on="1"/>
        <pt x="291" y="22" on="1"/>
        <pt x="285" y="0" on="1"/>
        <pt x="40" y="0" on="1"/>
        <pt x="34" y="22" on="1"/>
        <pt x="89" y="45" on="1"/>
        <pt x="107" y="52" on="0"/>
        <pt x="120" y="68" on="0"/>
        <pt x="120" y="83" on="1"/>
        <pt x="120" y="593" on="1"/>
        <pt x="34" y="628" on="1"/>
        <pt x="40" y="650" on="1"/>
        <pt x="285" y="650" on="1"/>
        <pt x="291" y="628" on="1"/>
        <pt x="236" y="605" on="1"/>
        <pt x="218" y="598" on="0"/>
        <pt x="205" y="582" on="0"/>
      </contour>
      <contour>
        <pt x="39" y="732" on="0"/>
        <pt x="8" y="763" on="0"/>
        <pt x="8" y="810" on="0"/>
        <pt x="39" y="842" on="0"/>
        <pt x="86" y="842" on="0"/>
        <pt x="118" y="810" on="0"/>
        <pt x="118" y="763" on="0"/>
        <pt x="86" y="732" on="0"/>
      </contour>
      <contour>
        <pt x="237" y="732" on="0"/>
        <pt x="206" y="763" on="0"/>
        <pt x="206" y="810" on="0"/>
        <pt x="237" y="842" on="0"/>
        <pt x="284" y="842" on="0"/>
        <pt x="316" y="810" on="0"/>
        <pt x="316" y="763" on="0"/>
        <pt x="284" y="732" on="0"/>
      </contour>
    </TTGlyph>
    <TTGlyph name="Igrave" xMin="34" yMin="0" xMax="291" yMax="858">
      <contour>
        <pt x="205" y="567" on="1"/>
        <pt x="205" y="57" on="1"/>
        <pt x="291" y="22" on="1"/>
        <pt x="285" y="0" on="1"/>
        <pt x="40" y="0" on="1"/>
        <pt x="34" y="22" on="1"/>
        <pt x="89" y="45" on="1"/>
        <pt x="107" y="52" on="0"/>
        <pt x="120" y="68" on="0"/>
        <pt x="120" y="83" on="1"/>
        <pt x="120" y="593" on="1"/>
        <pt x="34" y="628" on="1"/>
        <pt x="40" y="650" on="1"/>
        <pt x="285" y="650" on="1"/>
        <pt x="291" y="628" on="1"/>
        <pt x="236" y="605" on="1"/>
        <pt x="218" y="598" on="0"/>
        <pt x="205" y="582" on="0"/>
      </contour>
      <contour>
        <pt x="251" y="722" on="1"/>
        <pt x="40" y="799" on="1"/>
        <pt x="83" y="854" on="1"/>
        <pt x="103" y="858" on="1"/>
        <pt x="264" y="742" on="1"/>
      </contour>
    </TTGlyph>
    <TTGlyph name="J" xMin="25" yMin="-238" xMax="282" yMax="650">
      <contour>
        <pt x="196" y="567" on="1"/>
        <pt x="196" y="-8" on="1"/>
        <pt x="196" y="-159" on="0"/>
        <pt x="54" y="-238" on="1"/>
        <pt x="36" y="-215" on="1"/>
        <pt x="77" y="-167" on="0"/>
        <pt x="111" y="-74" on="0"/>
        <pt x="111" y="0" on="1"/>
        <pt x="111" y="593" on="1"/>
        <pt x="25" y="628" on="1"/>
        <pt x="31" y="650" on="1"/>
        <pt x="276" y="650" on="1"/>
        <pt x="282" y="628" on="1"/>
        <pt x="227" y="605" on="1"/>
        <pt x="209" y="598" on="0"/>
        <pt x="196" y="582" on="0"/>
      </contour>
    </TTGlyph>
    <TTGlyph name="K" xMin="34" yMin="0" xMax="641" yMax="650">
      <contour>
        <pt x="492" y="0" on="1"/>
        <pt x="226" y="341" on="1"/>
        <pt x="474" y="593" on="1"/>
        <pt x="388" y="628" on="1"/>
        <pt x="394" y="650" on="1"/>
        <pt x="622" y="650" on="1"/>
        <pt x="628" y="628" on="1"/>
        <pt x="573" y="605" on="1"/>
        <pt x="565" y="602" on="0"/>
        <pt x="559" y="598" on="0"/>
        <pt x="552" y="596" on="0"/>
        <pt x="545" y="589" on="0"/>
        <pt x="541" y="586" on="0"/>
        <pt x="528" y="572" on="0"/>
        <pt x="523" y="567" on="1"/>
        <pt x="320" y="360" on="1"/>
        <pt x="555" y="57" on="1"/>
        <pt x="641" y="22" on="1"/>
        <pt x="635" y="0" on="1"/>
      </contour>
      <contour>
        <pt x="205" y="567" on="1"/>
        <pt x="205" y="57" on="1"/>
        <pt x="291" y="22" on="1"/>
        <pt x="285" y="0" on="1"/>
        <pt x="40" y="0" on="1"/>
        <pt x="34" y="22" on="1"/>
        <pt x="89" y="45" on="1"/>
        <pt x="107" y="52" on="0"/>
        <pt x="120" y="68" on="0"/>
        <pt x="120" y="83" on="1"/>
        <pt x="120" y="593" on="1"/>
        <pt x="34" y="628" on="1"/>
        <pt x="40" y="650" on="1"/>
        <pt x="285" y="650" on="1"/>
        <pt x="291" y="628" on="1"/>
        <pt x="236" y="605" on="1"/>
        <pt x="218" y="598" on="0"/>
        <pt x="205" y="582" on="0"/>
      </contour>
    </TTGlyph>
    <TTGlyph name="L" xMin="34" yMin="0" xMax="505" yMax="650">
      <contour>
        <pt x="205" y="567" on="1"/>
        <pt x="205" y="52" on="1"/>
        <pt x="427" y="56" on="1"/>
        <pt x="475" y="144" on="1"/>
        <pt x="505" y="137" on="1"/>
        <pt x="505" y="0" on="1"/>
        <pt x="40" y="0" on="1"/>
        <pt x="34" y="22" on="1"/>
        <pt x="89" y="45" on="1"/>
        <pt x="107" y="52" on="0"/>
        <pt x="120" y="68" on="0"/>
        <pt x="120" y="83" on="1"/>
        <pt x="120" y="593" on="1"/>
        <pt x="34" y="628" on="1"/>
        <pt x="40" y="650" on="1"/>
        <pt x="285" y="650" on="1"/>
        <pt x="291" y="628" on="1"/>
        <pt x="236" y="605" on="1"/>
        <pt x="218" y="598" on="0"/>
        <pt x="205" y="582" on="0"/>
      </contour>
    </TTGlyph>
    <TTGlyph name="Lslash" xMin="17" yMin="0" xMax="510" yMax="650">
      <contour>
        <pt x="17" y="261" on="1"/>
        <pt x="55" y="283" on="0"/>
        <pt x="125" y="325" on="1"/>
        <pt x="125" y="593" on="1"/>
        <pt x="39" y="628" on="1"/>
        <pt x="45" y="650" on="1"/>
        <pt x="290" y="650" on="1"/>
        <pt x="296" y="628" on="1"/>
        <pt x="241" y="605" on="1"/>
        <pt x="223" y="598" on="0"/>
        <pt x="210" y="582" on="0"/>
        <pt x="210" y="567" on="1"/>
        <pt x="210" y="377" on="1"/>
        <pt x="296" y="432" on="1"/>
        <pt x="310" y="428" on="1"/>
        <pt x="329" y="376" on="1"/>
        <pt x="273" y="345" on="0"/>
        <pt x="210" y="310" on="1"/>
        <pt x="210" y="52" on="1"/>
        <pt x="432" y="56" on="1"/>
        <pt x="480" y="144" on="1"/>
        <pt x="510" y="137" on="1"/>
        <pt x="510" y="0" on="1"/>
        <pt x="45" y="0" on="1"/>
        <pt x="39" y="22" on="1"/>
        <pt x="94" y="45" on="1"/>
        <pt x="112" y="52" on="0"/>
        <pt x="125" y="68" on="0"/>
        <pt x="125" y="83" on="1"/>
        <pt x="125" y="262" on="1"/>
        <pt x="42" y="217" on="1"/>
        <pt x="26" y="222" on="1"/>
      </contour>
    </TTGlyph>
    <TTGlyph name="M" xMin="24" yMin="0" xMax="853" yMax="650">
      <contour>
        <pt x="744" y="567" on="1"/>
        <pt x="767" y="57" on="1"/>
        <pt x="853" y="22" on="1"/>
        <pt x="847" y="0" on="1"/>
        <pt x="610" y="0" on="1"/>
        <pt x="604" y="22" on="1"/>
        <pt x="649" y="44" on="1"/>
        <pt x="681" y="59" on="0"/>
        <pt x="680" y="83" on="1"/>
        <pt x="658" y="573" on="1"/>
        <pt x="466" y="20" on="1"/>
        <pt x="404" y="0" on="1"/>
        <pt x="385" y="10" on="1"/>
        <pt x="198" y="572" on="1"/>
        <pt x="170" y="57" on="1"/>
        <pt x="246" y="22" on="1"/>
        <pt x="240" y="0" on="1"/>
        <pt x="30" y="0" on="1"/>
        <pt x="24" y="22" on="1"/>
        <pt x="79" y="45" on="1"/>
        <pt x="104" y="56" on="0"/>
        <pt x="108" y="67" on="1"/>
        <pt x="109" y="72" on="0"/>
        <pt x="110" y="83" on="1"/>
        <pt x="135" y="593" on="1"/>
        <pt x="49" y="628" on="1"/>
        <pt x="55" y="650" on="1"/>
        <pt x="257" y="650" on="1"/>
        <pt x="270" y="640" on="1"/>
        <pt x="439" y="118" on="1"/>
        <pt x="616" y="650" on="1"/>
        <pt x="824" y="650" on="1"/>
        <pt x="830" y="628" on="1"/>
        <pt x="775" y="605" on="1"/>
        <pt x="743" y="592" on="0"/>
      </contour>
    </TTGlyph>
    <TTGlyph name="N" xMin="34" yMin="-8" xMax="714" yMax="650">
      <contour>
        <pt x="628" y="567" on="1"/>
        <pt x="628" y="0" on="1"/>
        <pt x="556" y="-8" on="1"/>
        <pt x="186" y="518" on="1"/>
        <pt x="186" y="57" on="1"/>
        <pt x="272" y="22" on="1"/>
        <pt x="266" y="0" on="1"/>
        <pt x="40" y="0" on="1"/>
        <pt x="34" y="22" on="1"/>
        <pt x="89" y="45" on="1"/>
        <pt x="107" y="52" on="0"/>
        <pt x="120" y="68" on="0"/>
        <pt x="120" y="83" on="1"/>
        <pt x="120" y="593" on="1"/>
        <pt x="34" y="628" on="1"/>
        <pt x="40" y="650" on="1"/>
        <pt x="207" y="650" on="1"/>
        <pt x="561" y="146" on="1"/>
        <pt x="561" y="144" on="1"/>
        <pt x="562" y="146" on="1"/>
        <pt x="562" y="593" on="1"/>
        <pt x="476" y="628" on="1"/>
        <pt x="482" y="650" on="1"/>
        <pt x="708" y="650" on="1"/>
        <pt x="714" y="628" on="1"/>
        <pt x="659" y="605" on="1"/>
        <pt x="641" y="598" on="0"/>
        <pt x="628" y="582" on="0"/>
      </contour>
    </TTGlyph>
    <TTGlyph name="Ntilde" xMin="34" yMin="-8" xMax="714" yMax="853">
      <contour>
        <pt x="628" y="567" on="1"/>
        <pt x="628" y="0" on="1"/>
        <pt x="556" y="-8" on="1"/>
        <pt x="186" y="518" on="1"/>
        <pt x="186" y="57" on="1"/>
        <pt x="272" y="22" on="1"/>
        <pt x="266" y="0" on="1"/>
        <pt x="40" y="0" on="1"/>
        <pt x="34" y="22" on="1"/>
        <pt x="89" y="45" on="1"/>
        <pt x="107" y="52" on="0"/>
        <pt x="120" y="68" on="0"/>
        <pt x="120" y="83" on="1"/>
        <pt x="120" y="593" on="1"/>
        <pt x="34" y="628" on="1"/>
        <pt x="40" y="650" on="1"/>
        <pt x="207" y="650" on="1"/>
        <pt x="561" y="146" on="1"/>
        <pt x="561" y="144" on="1"/>
        <pt x="562" y="146" on="1"/>
        <pt x="562" y="593" on="1"/>
        <pt x="476" y="628" on="1"/>
        <pt x="482" y="650" on="1"/>
        <pt x="708" y="650" on="1"/>
        <pt x="714" y="628" on="1"/>
        <pt x="659" y="605" on="1"/>
        <pt x="641" y="598" on="0"/>
        <pt x="628" y="582" on="0"/>
      </contour>
      <contour>
        <pt x="461" y="801" on="1"/>
        <pt x="461" y="801" on="0"/>
        <pt x="462" y="801" on="1"/>
        <pt x="517" y="848" on="1"/>
        <pt x="534" y="837" on="1"/>
        <pt x="482" y="738" on="1"/>
        <pt x="462" y="733" on="1"/>
        <pt x="436" y="733" on="0"/>
        <pt x="304" y="785" on="0"/>
        <pt x="287" y="785" on="1"/>
        <pt x="287" y="785" on="0"/>
        <pt x="286" y="785" on="1"/>
        <pt x="231" y="738" on="1"/>
        <pt x="214" y="749" on="1"/>
        <pt x="266" y="848" on="1"/>
        <pt x="286" y="853" on="1"/>
        <pt x="312" y="853" on="0"/>
        <pt x="444" y="801" on="0"/>
      </contour>
    </TTGlyph>
    <TTGlyph name="O" xMin="46" yMin="-9" xMax="659" yMax="658">
      <contour>
        <pt x="201" y="557" on="1"/>
        <pt x="139" y="472" on="0"/>
        <pt x="139" y="204" on="0"/>
        <pt x="252" y="54" on="0"/>
        <pt x="359" y="54" on="1"/>
        <pt x="448" y="54" on="0"/>
        <pt x="504" y="91" on="1"/>
        <pt x="566" y="167" on="0"/>
        <pt x="566" y="444" on="0"/>
        <pt x="453" y="594" on="0"/>
        <pt x="347" y="594" on="1"/>
        <pt x="259" y="594" on="0"/>
      </contour>
      <contour>
        <pt x="46" y="320" on="1"/>
        <pt x="46" y="404" on="0"/>
        <pt x="98" y="536" on="0"/>
        <pt x="142" y="576" on="1"/>
        <pt x="234" y="658" on="0"/>
        <pt x="493" y="658" on="0"/>
        <pt x="659" y="482" on="0"/>
        <pt x="659" y="328" on="1"/>
        <pt x="659" y="244" on="0"/>
        <pt x="607" y="113" on="0"/>
        <pt x="562" y="73" on="1"/>
        <pt x="472" y="-8" on="0"/>
        <pt x="212" y="-8" on="0"/>
        <pt x="46" y="166" on="0"/>
      </contour>
    </TTGlyph>
    <TTGlyph name="OE" xMin="46" yMin="-8" xMax="946" yMax="657">
      <contour>
        <pt x="46" y="320" on="1"/>
        <pt x="46" y="431" on="0"/>
        <pt x="92" y="509" on="1"/>
        <pt x="178" y="657" on="0"/>
        <pt x="360" y="657" on="1"/>
        <pt x="490" y="657" on="0"/>
        <pt x="566" y="569" on="1"/>
        <pt x="566" y="640" on="1"/>
        <pt x="576" y="650" on="1"/>
        <pt x="941" y="650" on="1"/>
        <pt x="941" y="513" on="1"/>
        <pt x="911" y="506" on="1"/>
        <pt x="863" y="594" on="1"/>
        <pt x="678" y="598" on="1"/>
        <pt x="651" y="598" on="0"/>
        <pt x="651" y="568" on="1"/>
        <pt x="651" y="352" on="1"/>
        <pt x="746" y="352" on="0"/>
        <pt x="844" y="361" on="1"/>
        <pt x="876" y="364" on="1"/>
        <pt x="887" y="352" on="1"/>
        <pt x="876" y="296" on="1"/>
        <pt x="757" y="303" on="0"/>
        <pt x="651" y="303" on="1"/>
        <pt x="651" y="52" on="1"/>
        <pt x="868" y="56" on="1"/>
        <pt x="916" y="144" on="1"/>
        <pt x="946" y="137" on="1"/>
        <pt x="946" y="0" on="1"/>
        <pt x="576" y="0" on="1"/>
        <pt x="566" y="10" on="1"/>
        <pt x="566" y="87" on="1"/>
        <pt x="484" y="-8" on="0"/>
        <pt x="211" y="-8" on="0"/>
        <pt x="46" y="167" on="0"/>
      </contour>
      <contour>
        <pt x="201" y="557" on="1"/>
        <pt x="139" y="472" on="0"/>
        <pt x="139" y="204" on="0"/>
        <pt x="252" y="54" on="0"/>
        <pt x="359" y="54" on="1"/>
        <pt x="448" y="54" on="0"/>
        <pt x="504" y="91" on="1"/>
        <pt x="537" y="135" on="0"/>
        <pt x="561" y="211" on="0"/>
        <pt x="565" y="290" on="1"/>
        <pt x="566" y="307" on="1"/>
        <pt x="566" y="317" on="0"/>
        <pt x="566" y="327" on="1"/>
        <pt x="566" y="442" on="0"/>
        <pt x="453" y="594" on="0"/>
        <pt x="346" y="594" on="1"/>
        <pt x="259" y="594" on="0"/>
      </contour>
    </TTGlyph>
    <TTGlyph name="Oacute" xMin="46" yMin="-9" xMax="659" yMax="865">
      <contour>
        <pt x="201" y="557" on="1"/>
        <pt x="139" y="472" on="0"/>
        <pt x="139" y="204" on="0"/>
        <pt x="252" y="54" on="0"/>
        <pt x="359" y="54" on="1"/>
        <pt x="448" y="54" on="0"/>
        <pt x="504" y="91" on="1"/>
        <pt x="566" y="167" on="0"/>
        <pt x="566" y="444" on="0"/>
        <pt x="453" y="594" on="0"/>
        <pt x="347" y="594" on="1"/>
        <pt x="259" y="594" on="0"/>
      </contour>
      <contour>
        <pt x="46" y="320" on="1"/>
        <pt x="46" y="404" on="0"/>
        <pt x="98" y="536" on="0"/>
        <pt x="142" y="576" on="1"/>
        <pt x="234" y="658" on="0"/>
        <pt x="493" y="658" on="0"/>
        <pt x="659" y="482" on="0"/>
        <pt x="659" y="328" on="1"/>
        <pt x="659" y="244" on="0"/>
        <pt x="607" y="113" on="0"/>
        <pt x="562" y="73" on="1"/>
        <pt x="472" y="-8" on="0"/>
        <pt x="212" y="-8" on="0"/>
        <pt x="46" y="166" on="0"/>
      </contour>
      <contour>
        <pt x="246" y="742" on="1"/>
        <pt x="418" y="865" on="1"/>
        <pt x="459" y="813" on="1"/>
        <pt x="455" y="793" on="1"/>
        <pt x="259" y="722" on="1"/>
      </contour>
    </TTGlyph>
    <TTGlyph name="Ocircumflex" xMin="46" yMin="-9" xMax="659" yMax="858">
      <contour>
        <pt x="201" y="557" on="1"/>
        <pt x="139" y="472" on="0"/>
        <pt x="139" y="204" on="0"/>
        <pt x="252" y="54" on="0"/>
        <pt x="359" y="54" on="1"/>
        <pt x="448" y="54" on="0"/>
        <pt x="504" y="91" on="1"/>
        <pt x="566" y="167" on="0"/>
        <pt x="566" y="444" on="0"/>
        <pt x="453" y="594" on="0"/>
        <pt x="347" y="594" on="1"/>
        <pt x="259" y="594" on="0"/>
      </contour>
      <contour>
        <pt x="46" y="320" on="1"/>
        <pt x="46" y="404" on="0"/>
        <pt x="98" y="536" on="0"/>
        <pt x="142" y="576" on="1"/>
        <pt x="234" y="658" on="0"/>
        <pt x="493" y="658" on="0"/>
        <pt x="659" y="482" on="0"/>
        <pt x="659" y="328" on="1"/>
        <pt x="659" y="244" on="0"/>
        <pt x="607" y="113" on="0"/>
        <pt x="562" y="73" on="1"/>
        <pt x="472" y="-8" on="0"/>
        <pt x="212" y="-8" on="0"/>
        <pt x="46" y="166" on="0"/>
      </contour>
      <contour>
        <pt x="212" y="747" on="1"/>
        <pt x="332" y="858" on="1"/>
        <pt x="372" y="858" on="1"/>
        <pt x="492" y="747" on="1"/>
        <pt x="473" y="728" on="1"/>
        <pt x="352" y="787" on="1"/>
        <pt x="231" y="728" on="1"/>
      </contour>
    </TTGlyph>
    <TTGlyph name="Odieresis" xMin="46" yMin="-9" xMax="659" yMax="842">
      <contour>
        <pt x="201" y="557" on="1"/>
        <pt x="139" y="472" on="0"/>
        <pt x="139" y="204" on="0"/>
        <pt x="252" y="54" on="0"/>
        <pt x="359" y="54" on="1"/>
        <pt x="448" y="54" on="0"/>
        <pt x="504" y="91" on="1"/>
        <pt x="566" y="167" on="0"/>
        <pt x="566" y="444" on="0"/>
        <pt x="453" y="594" on="0"/>
        <pt x="347" y="594" on="1"/>
        <pt x="259" y="594" on="0"/>
      </contour>
      <contour>
        <pt x="46" y="320" on="1"/>
        <pt x="46" y="404" on="0"/>
        <pt x="98" y="536" on="0"/>
        <pt x="142" y="576" on="1"/>
        <pt x="234" y="658" on="0"/>
        <pt x="493" y="658" on="0"/>
        <pt x="659" y="482" on="0"/>
        <pt x="659" y="328" on="1"/>
        <pt x="659" y="244" on="0"/>
        <pt x="607" y="113" on="0"/>
        <pt x="562" y="73" on="1"/>
        <pt x="472" y="-8" on="0"/>
        <pt x="212" y="-8" on="0"/>
        <pt x="46" y="166" on="0"/>
      </contour>
      <contour>
        <pt x="229" y="732" on="0"/>
        <pt x="198" y="763" on="0"/>
        <pt x="198" y="810" on="0"/>
        <pt x="229" y="842" on="0"/>
        <pt x="276" y="842" on="0"/>
        <pt x="308" y="810" on="0"/>
        <pt x="308" y="763" on="0"/>
        <pt x="276" y="732" on="0"/>
      </contour>
      <contour>
        <pt x="427" y="732" on="0"/>
        <pt x="396" y="763" on="0"/>
        <pt x="396" y="810" on="0"/>
        <pt x="427" y="842" on="0"/>
        <pt x="474" y="842" on="0"/>
        <pt x="506" y="810" on="0"/>
        <pt x="506" y="763" on="0"/>
        <pt x="474" y="732" on="0"/>
      </contour>
    </TTGlyph>
    <TTGlyph name="Ograve" xMin="46" yMin="-9" xMax="659" yMax="858">
      <contour>
        <pt x="201" y="557" on="1"/>
        <pt x="139" y="472" on="0"/>
        <pt x="139" y="204" on="0"/>
        <pt x="252" y="54" on="0"/>
        <pt x="359" y="54" on="1"/>
        <pt x="448" y="54" on="0"/>
        <pt x="504" y="91" on="1"/>
        <pt x="566" y="167" on="0"/>
        <pt x="566" y="444" on="0"/>
        <pt x="453" y="594" on="0"/>
        <pt x="347" y="594" on="1"/>
        <pt x="259" y="594" on="0"/>
      </contour>
      <contour>
        <pt x="46" y="320" on="1"/>
        <pt x="46" y="404" on="0"/>
        <pt x="98" y="536" on="0"/>
        <pt x="142" y="576" on="1"/>
        <pt x="234" y="658" on="0"/>
        <pt x="493" y="658" on="0"/>
        <pt x="659" y="482" on="0"/>
        <pt x="659" y="328" on="1"/>
        <pt x="659" y="244" on="0"/>
        <pt x="607" y="113" on="0"/>
        <pt x="562" y="73" on="1"/>
        <pt x="472" y="-8" on="0"/>
        <pt x="212" y="-8" on="0"/>
        <pt x="46" y="166" on="0"/>
      </contour>
      <contour>
        <pt x="436" y="722" on="1"/>
        <pt x="225" y="799" on="1"/>
        <pt x="268" y="854" on="1"/>
        <pt x="288" y="858" on="1"/>
        <pt x="449" y="742" on="1"/>
      </contour>
    </TTGlyph>
    <TTGlyph name="Oslash" xMin="46" yMin="-71" xMax="659" yMax="733">
      <contour>
        <pt x="46" y="320" on="1"/>
        <pt x="46" y="404" on="0"/>
        <pt x="98" y="536" on="0"/>
        <pt x="142" y="576" on="1"/>
        <pt x="234" y="658" on="0"/>
        <pt x="360" y="658" on="1"/>
        <pt x="429" y="658" on="0"/>
        <pt x="491" y="631" on="1"/>
        <pt x="543" y="723" on="1"/>
        <pt x="602" y="733" on="1"/>
        <pt x="613" y="721" on="1"/>
        <pt x="606" y="709" on="0"/>
        <pt x="542" y="601" on="1"/>
        <pt x="659" y="512" on="0"/>
        <pt x="659" y="328" on="1"/>
        <pt x="659" y="244" on="0"/>
        <pt x="607" y="113" on="0"/>
        <pt x="562" y="73" on="1"/>
        <pt x="472" y="-8" on="0"/>
        <pt x="343" y="-8" on="1"/>
        <pt x="267" y="-8" on="0"/>
        <pt x="208" y="20" on="1"/>
        <pt x="163" y="-61" on="1"/>
        <pt x="104" y="-71" on="1"/>
        <pt x="93" y="-59" on="1"/>
        <pt x="158" y="52" on="1"/>
        <pt x="46" y="141" on="0"/>
      </contour>
      <contour>
        <pt x="244" y="84" on="1"/>
        <pt x="290" y="54" on="0"/>
        <pt x="448" y="54" on="0"/>
        <pt x="504" y="91" on="1"/>
        <pt x="566" y="167" on="0"/>
        <pt x="566" y="456" on="0"/>
        <pt x="500" y="530" on="1"/>
        <pt x="348" y="270" on="0"/>
      </contour>
      <contour>
        <pt x="201" y="557" on="1"/>
        <pt x="139" y="472" on="0"/>
        <pt x="139" y="195" on="0"/>
        <pt x="200" y="122" on="1"/>
        <pt x="319" y="324" on="0"/>
        <pt x="455" y="567" on="1"/>
        <pt x="407" y="594" on="0"/>
        <pt x="259" y="594" on="0"/>
      </contour>
    </TTGlyph>
    <TTGlyph name="Otilde" xMin="46" yMin="-9" xMax="659" yMax="853">
      <contour>
        <pt x="201" y="557" on="1"/>
        <pt x="139" y="472" on="0"/>
        <pt x="139" y="204" on="0"/>
        <pt x="252" y="54" on="0"/>
        <pt x="359" y="54" on="1"/>
        <pt x="448" y="54" on="0"/>
        <pt x="504" y="91" on="1"/>
        <pt x="566" y="167" on="0"/>
        <pt x="566" y="444" on="0"/>
        <pt x="453" y="594" on="0"/>
        <pt x="347" y="594" on="1"/>
        <pt x="259" y="594" on="0"/>
      </contour>
      <contour>
        <pt x="46" y="320" on="1"/>
        <pt x="46" y="404" on="0"/>
        <pt x="98" y="536" on="0"/>
        <pt x="142" y="576" on="1"/>
        <pt x="234" y="658" on="0"/>
        <pt x="493" y="658" on="0"/>
        <pt x="659" y="482" on="0"/>
        <pt x="659" y="328" on="1"/>
        <pt x="659" y="244" on="0"/>
        <pt x="607" y="113" on="0"/>
        <pt x="562" y="73" on="1"/>
        <pt x="472" y="-8" on="0"/>
        <pt x="212" y="-8" on="0"/>
        <pt x="46" y="166" on="0"/>
      </contour>
      <contour>
        <pt x="439" y="801" on="1"/>
        <pt x="439" y="801" on="0"/>
        <pt x="440" y="801" on="1"/>
        <pt x="495" y="848" on="1"/>
        <pt x="512" y="837" on="1"/>
        <pt x="460" y="738" on="1"/>
        <pt x="440" y="733" on="1"/>
        <pt x="414" y="733" on="0"/>
        <pt x="282" y="785" on="0"/>
        <pt x="265" y="785" on="1"/>
        <pt x="265" y="785" on="0"/>
        <pt x="264" y="785" on="1"/>
        <pt x="209" y="738" on="1"/>
        <pt x="192" y="749" on="1"/>
        <pt x="244" y="848" on="1"/>
        <pt x="264" y="853" on="1"/>
        <pt x="290" y="853" on="0"/>
        <pt x="422" y="801" on="0"/>
      </contour>
    </TTGlyph>
    <TTGlyph name="P" xMin="34" yMin="0" xMax="520" yMax="658">
      <contour>
        <pt x="273" y="273" on="1"/>
        <pt x="251" y="273" on="0"/>
        <pt x="205" y="275" on="1"/>
        <pt x="205" y="61" on="1"/>
        <pt x="301" y="22" on="1"/>
        <pt x="295" y="0" on="1"/>
        <pt x="40" y="0" on="1"/>
        <pt x="34" y="22" on="1"/>
        <pt x="89" y="45" on="1"/>
        <pt x="107" y="52" on="0"/>
        <pt x="120" y="68" on="0"/>
        <pt x="120" y="83" on="1"/>
        <pt x="120" y="593" on="1"/>
        <pt x="34" y="628" on="1"/>
        <pt x="40" y="650" on="1"/>
        <pt x="199" y="658" on="0"/>
        <pt x="262" y="658" on="1"/>
        <pt x="393" y="658" on="0"/>
        <pt x="520" y="565" on="0"/>
        <pt x="520" y="468" on="1"/>
        <pt x="520" y="273" on="0"/>
      </contour>
      <contour>
        <pt x="279" y="603" on="1"/>
        <pt x="232" y="603" on="1"/>
        <pt x="205" y="603" on="0"/>
        <pt x="205" y="578" on="1"/>
        <pt x="205" y="330" on="1"/>
        <pt x="231" y="326" on="0"/>
        <pt x="265" y="326" on="1"/>
        <pt x="335" y="326" on="0"/>
        <pt x="391" y="349" on="1"/>
        <pt x="427" y="377" on="0"/>
        <pt x="427" y="452" on="1"/>
        <pt x="427" y="603" on="0"/>
      </contour>
    </TTGlyph>
    <TTGlyph name="Q" xMin="46" yMin="-198" xMax="850" yMax="658">
      <contour>
        <pt x="46" y="320" on="1"/>
        <pt x="46" y="404" on="0"/>
        <pt x="98" y="536" on="0"/>
        <pt x="142" y="576" on="1"/>
        <pt x="234" y="658" on="0"/>
        <pt x="494" y="658" on="0"/>
        <pt x="659" y="481" on="0"/>
        <pt x="659" y="320" on="1"/>
        <pt x="659" y="261" on="0"/>
        <pt x="633" y="166" on="0"/>
        <pt x="599" y="109" on="0"/>
        <pt x="538" y="58" on="0"/>
        <pt x="500" y="36" on="0"/>
        <pt x="466" y="19" on="1"/>
        <pt x="494" y="9" on="1"/>
        <pt x="537" y="-3" on="0"/>
        <pt x="637" y="-67" on="0"/>
        <pt x="681" y="-94" on="1"/>
        <pt x="734" y="-128" on="0"/>
        <pt x="797" y="-128" on="0"/>
        <pt x="836" y="-110" on="1"/>
        <pt x="850" y="-131" on="1"/>
        <pt x="750" y="-198" on="1"/>
        <pt x="703" y="-195" on="0"/>
        <pt x="631" y="-156" on="0"/>
        <pt x="482" y="-43" on="0"/>
        <pt x="409" y="-16" on="0"/>
        <pt x="334" y="-14" on="1"/>
        <pt x="332" y="-7" on="0"/>
        <pt x="328" y="-7" on="1"/>
        <pt x="318" y="-7" on="1"/>
        <pt x="195" y="2" on="0"/>
        <pt x="46" y="174" on="0"/>
      </contour>
      <contour>
        <pt x="201" y="557" on="1"/>
        <pt x="139" y="472" on="0"/>
        <pt x="139" y="204" on="0"/>
        <pt x="252" y="54" on="0"/>
        <pt x="359" y="54" on="1"/>
        <pt x="448" y="54" on="0"/>
        <pt x="504" y="91" on="1"/>
        <pt x="566" y="167" on="0"/>
        <pt x="566" y="444" on="0"/>
        <pt x="453" y="594" on="0"/>
        <pt x="347" y="594" on="1"/>
        <pt x="259" y="594" on="0"/>
      </contour>
    </TTGlyph>
    <TTGlyph name="R" xMin="34" yMin="-8" xMax="590" yMax="658">
      <contour>
        <pt x="263" y="282" on="1"/>
        <pt x="205" y="282" on="1"/>
        <pt x="205" y="57" on="1"/>
        <pt x="288" y="22" on="1"/>
        <pt x="282" y="0" on="1"/>
        <pt x="40" y="0" on="1"/>
        <pt x="34" y="22" on="1"/>
        <pt x="89" y="45" on="1"/>
        <pt x="107" y="52" on="0"/>
        <pt x="120" y="68" on="0"/>
        <pt x="120" y="83" on="1"/>
        <pt x="120" y="593" on="1"/>
        <pt x="34" y="628" on="1"/>
        <pt x="40" y="650" on="1"/>
        <pt x="205" y="658" on="0"/>
        <pt x="266" y="658" on="1"/>
        <pt x="525" y="658" on="0"/>
        <pt x="525" y="472" on="1"/>
        <pt x="525" y="325" on="0"/>
        <pt x="367" y="290" on="1"/>
        <pt x="378" y="280" on="0"/>
        <pt x="387" y="261" on="1"/>
        <pt x="455" y="122" on="0"/>
        <pt x="521" y="40" on="0"/>
        <pt x="590" y="25" on="1"/>
        <pt x="583" y="0" on="1"/>
        <pt x="471" y="-8" on="1"/>
        <pt x="417" y="36" on="0"/>
        <pt x="362" y="122" on="0"/>
        <pt x="299" y="255" on="1"/>
        <pt x="286" y="282" on="0"/>
      </contour>
      <contour>
        <pt x="205" y="578" on="1"/>
        <pt x="205" y="333" on="1"/>
        <pt x="270" y="333" on="1"/>
        <pt x="344" y="333" on="0"/>
        <pt x="386" y="350" on="1"/>
        <pt x="408" y="366" on="0"/>
        <pt x="432" y="409" on="0"/>
        <pt x="432" y="451" on="1"/>
        <pt x="432" y="516" on="0"/>
        <pt x="363" y="603" on="0"/>
        <pt x="284" y="603" on="1"/>
        <pt x="232" y="603" on="1"/>
        <pt x="205" y="603" on="0"/>
      </contour>
    </TTGlyph>
    <TTGlyph name="S" xMin="35" yMin="-8" xMax="475" yMax="658">
      <contour>
        <pt x="363" y="578" on="1"/>
        <pt x="330" y="596" on="0"/>
        <pt x="191" y="596" on="0"/>
        <pt x="147" y="559" on="1"/>
        <pt x="135" y="540" on="0"/>
        <pt x="135" y="504" on="1"/>
        <pt x="135" y="427" on="0"/>
        <pt x="217" y="396" on="1"/>
        <pt x="347" y="346" on="1"/>
        <pt x="475" y="297" on="0"/>
        <pt x="475" y="169" on="1"/>
        <pt x="475" y="82" on="0"/>
        <pt x="353" y="-8" on="0"/>
        <pt x="256" y="-8" on="1"/>
        <pt x="122" y="-8" on="0"/>
        <pt x="35" y="74" on="1"/>
        <pt x="99" y="183" on="1"/>
        <pt x="123" y="176" on="1"/>
        <pt x="138" y="80" on="1"/>
        <pt x="175" y="54" on="0"/>
        <pt x="245" y="54" on="1"/>
        <pt x="394" y="54" on="0"/>
        <pt x="394" y="155" on="1"/>
        <pt x="394" y="196" on="0"/>
        <pt x="342" y="248" on="0"/>
        <pt x="287" y="269" on="1"/>
        <pt x="172" y="313" on="1"/>
        <pt x="55" y="358" on="0"/>
        <pt x="55" y="475" on="1"/>
        <pt x="55" y="563" on="0"/>
        <pt x="179" y="658" on="0"/>
        <pt x="275" y="658" on="1"/>
        <pt x="392" y="658" on="0"/>
        <pt x="463" y="576" on="1"/>
        <pt x="392" y="477" on="1"/>
        <pt x="368" y="484" on="1"/>
      </contour>
    </TTGlyph>
    <TTGlyph name="STM" xMin="105" yMin="-238" xMax="1014" yMax="686">
      <contour>
        <pt x="468" y="589" on="0"/>
        <pt x="439" y="610" on="0"/>
        <pt x="376" y="610" on="0"/>
        <pt x="351" y="601" on="1"/>
        <pt x="351" y="602" on="1"/>
        <pt x="343" y="620" on="0"/>
        <pt x="343" y="640" on="1"/>
        <pt x="343" y="682" on="0"/>
        <pt x="396" y="682" on="1"/>
        <pt x="435" y="682" on="0"/>
        <pt x="462" y="664" on="1"/>
        <pt x="490" y="688" on="0"/>
        <pt x="504" y="685" on="1"/>
        <pt x="583" y="661" on="1"/>
        <pt x="599" y="657" on="0"/>
        <pt x="619" y="657" on="0"/>
        <pt x="621" y="662" on="1"/>
        <pt x="622" y="665" on="1"/>
        <pt x="612" y="672" on="1"/>
        <pt x="616" y="686" on="1"/>
        <pt x="635" y="679" on="1"/>
        <pt x="636" y="670" on="0"/>
        <pt x="633" y="661" on="1"/>
        <pt x="628" y="645" on="0"/>
        <pt x="608" y="645" on="1"/>
        <pt x="603" y="645" on="0"/>
        <pt x="596" y="646" on="1"/>
        <pt x="619" y="430" on="1"/>
        <pt x="659" y="436" on="0"/>
        <pt x="671" y="490" on="1"/>
        <pt x="679" y="528" on="0"/>
        <pt x="681" y="580" on="1"/>
        <pt x="682" y="618" on="0"/>
        <pt x="711" y="621" on="1"/>
        <pt x="912" y="644" on="1"/>
        <pt x="924" y="645" on="0"/>
        <pt x="938" y="626" on="0"/>
        <pt x="936" y="614" on="1"/>
        <pt x="936" y="595" on="0"/>
        <pt x="927" y="590" on="1"/>
        <pt x="936" y="586" on="0"/>
        <pt x="936" y="567" on="1"/>
        <pt x="934" y="558" on="0"/>
        <pt x="931" y="552" on="1"/>
        <pt x="995" y="544" on="1"/>
        <pt x="1013" y="542" on="0"/>
        <pt x="1013" y="498" on="0"/>
        <pt x="996" y="489" on="1"/>
        <pt x="1005" y="478" on="0"/>
        <pt x="992" y="449" on="0"/>
        <pt x="980" y="446" on="1"/>
        <pt x="988" y="438" on="0"/>
        <pt x="975" y="407" on="0"/>
        <pt x="963" y="405" on="1"/>
        <pt x="968" y="396" on="0"/>
        <pt x="951" y="366" on="0"/>
        <pt x="940" y="365" on="1"/>
        <pt x="943" y="354" on="0"/>
        <pt x="922" y="330" on="0"/>
        <pt x="912" y="330" on="1"/>
        <pt x="916" y="320" on="0"/>
        <pt x="894" y="294" on="0"/>
        <pt x="880" y="297" on="1"/>
        <pt x="884" y="286" on="0"/>
        <pt x="858" y="263" on="0"/>
        <pt x="845" y="266" on="1"/>
        <pt x="848" y="258" on="0"/>
        <pt x="817" y="235" on="0"/>
        <pt x="806" y="241" on="1"/>
        <pt x="806" y="233" on="0"/>
        <pt x="775" y="214" on="0"/>
        <pt x="766" y="219" on="1"/>
        <pt x="765" y="208" on="0"/>
        <pt x="734" y="198" on="0"/>
        <pt x="725" y="203" on="1"/>
        <pt x="723" y="192" on="0"/>
        <pt x="707" y="189" on="1"/>
        <pt x="715" y="181" on="0"/>
        <pt x="727" y="163" on="0"/>
        <pt x="743" y="163" on="0"/>
        <pt x="747" y="164" on="1"/>
        <pt x="885" y="208" on="1"/>
        <pt x="892" y="210" on="0"/>
        <pt x="898" y="210" on="1"/>
        <pt x="913" y="210" on="0"/>
        <pt x="919" y="194" on="1"/>
        <pt x="949" y="110" on="1"/>
        <pt x="958" y="111" on="1"/>
        <pt x="959" y="104" on="1"/>
        <pt x="949" y="98" on="1"/>
        <pt x="940" y="96" on="1"/>
        <pt x="938" y="98" on="1"/>
        <pt x="924" y="90" on="1"/>
        <pt x="907" y="90" on="1"/>
        <pt x="906" y="90" on="0"/>
        <pt x="906" y="89" on="1"/>
        <pt x="903" y="85" on="0"/>
        <pt x="888" y="79" on="0"/>
        <pt x="883" y="79" on="1"/>
        <pt x="872" y="79" on="0"/>
        <pt x="868" y="92" on="1"/>
        <pt x="848" y="157" on="1"/>
        <pt x="743" y="127" on="1"/>
        <pt x="734" y="124" on="0"/>
        <pt x="726" y="127" on="1"/>
        <pt x="726" y="100" on="0"/>
        <pt x="677" y="16" on="1"/>
        <pt x="725" y="3" on="1"/>
        <pt x="736" y="11" on="1"/>
        <pt x="742" y="6" on="1"/>
        <pt x="624" y="-130" on="1"/>
        <pt x="619" y="-126" on="1"/>
        <pt x="715" y="-6" on="1"/>
        <pt x="660" y="8" on="1"/>
        <pt x="663" y="16" on="0"/>
        <pt x="678" y="44" on="1"/>
        <pt x="713" y="105" on="0"/>
        <pt x="713" y="175" on="0"/>
        <pt x="691" y="186" on="1"/>
        <pt x="679" y="192" on="1"/>
        <pt x="676" y="181" on="0"/>
        <pt x="637" y="177" on="0"/>
        <pt x="631" y="186" on="1"/>
        <pt x="627" y="176" on="0"/>
        <pt x="582" y="176" on="0"/>
        <pt x="582" y="194" on="1"/>
        <pt x="584" y="294" on="1"/>
        <pt x="596" y="294" on="1"/>
        <pt x="593" y="205" on="0"/>
        <pt x="594" y="200" on="1"/>
        <pt x="596" y="190" on="0"/>
        <pt x="625" y="192" on="0"/>
        <pt x="625" y="200" on="1"/>
        <pt x="620" y="293" on="1"/>
        <pt x="628" y="294" on="1"/>
        <pt x="636" y="206" on="0"/>
        <pt x="638" y="205" on="1"/>
        <pt x="639" y="191" on="0"/>
        <pt x="664" y="194" on="0"/>
        <pt x="674" y="200" on="0"/>
        <pt x="672" y="206" on="1"/>
        <pt x="655" y="297" on="1"/>
        <pt x="663" y="298" on="1"/>
        <pt x="670" y="267" on="0"/>
        <pt x="684" y="211" on="1"/>
        <pt x="687" y="198" on="0"/>
        <pt x="703" y="201" on="1"/>
        <pt x="718" y="208" on="0"/>
        <pt x="715" y="215" on="1"/>
        <pt x="688" y="304" on="1"/>
        <pt x="696" y="306" on="1"/>
        <pt x="724" y="225" on="0"/>
        <pt x="725" y="224" on="1"/>
        <pt x="729" y="211" on="0"/>
        <pt x="743" y="217" on="1"/>
        <pt x="757" y="220" on="0"/>
        <pt x="757" y="232" on="1"/>
        <pt x="719" y="314" on="1"/>
        <pt x="727" y="319" on="1"/>
        <pt x="764" y="241" on="0"/>
        <pt x="764" y="239" on="1"/>
        <pt x="772" y="228" on="0"/>
        <pt x="795" y="238" on="0"/>
        <pt x="795" y="253" on="1"/>
        <pt x="750" y="329" on="1"/>
        <pt x="757" y="334" on="1"/>
        <pt x="803" y="260" on="0"/>
        <pt x="809" y="251" on="0"/>
        <pt x="825" y="257" on="1"/>
        <pt x="837" y="269" on="0"/>
        <pt x="830" y="277" on="1"/>
        <pt x="780" y="347" on="1"/>
        <pt x="787" y="352" on="1"/>
        <pt x="822" y="304" on="0"/>
        <pt x="841" y="286" on="1"/>
        <pt x="853" y="276" on="0"/>
        <pt x="874" y="298" on="0"/>
        <pt x="866" y="305" on="1"/>
        <pt x="807" y="369" on="1"/>
        <pt x="814" y="376" on="1"/>
        <pt x="872" y="314" on="0"/>
        <pt x="874" y="314" on="1"/>
        <pt x="884" y="308" on="0"/>
        <pt x="904" y="328" on="0"/>
        <pt x="897" y="336" on="1"/>
        <pt x="830" y="393" on="1"/>
        <pt x="837" y="400" on="1"/>
        <pt x="900" y="349" on="0"/>
        <pt x="901" y="347" on="1"/>
        <pt x="913" y="340" on="0"/>
        <pt x="932" y="366" on="0"/>
        <pt x="923" y="370" on="1"/>
        <pt x="852" y="419" on="1"/>
        <pt x="857" y="428" on="1"/>
        <pt x="926" y="383" on="0"/>
        <pt x="927" y="381" on="1"/>
        <pt x="939" y="374" on="0"/>
        <pt x="948" y="386" on="1"/>
        <pt x="954" y="403" on="0"/>
        <pt x="948" y="407" on="1"/>
        <pt x="870" y="449" on="1"/>
        <pt x="874" y="456" on="1"/>
        <pt x="942" y="423" on="0"/>
        <pt x="962" y="413" on="0"/>
        <pt x="978" y="443" on="0"/>
        <pt x="966" y="446" on="1"/>
        <pt x="885" y="479" on="1"/>
        <pt x="888" y="487" on="1"/>
        <pt x="965" y="460" on="0"/>
        <pt x="967" y="458" on="1"/>
        <pt x="980" y="455" on="0"/>
        <pt x="985" y="469" on="1"/>
        <pt x="992" y="485" on="0"/>
        <pt x="979" y="489" on="1"/>
        <pt x="895" y="511" on="1"/>
        <pt x="899" y="520" on="1"/>
        <pt x="977" y="501" on="0"/>
        <pt x="981" y="501" on="1"/>
        <pt x="994" y="498" on="0"/>
        <pt x="998" y="513" on="1"/>
        <pt x="1001" y="529" on="0"/>
        <pt x="989" y="530" on="1"/>
        <pt x="800" y="558" on="1"/>
        <pt x="788" y="559" on="0"/>
        <pt x="768" y="537" on="0"/>
        <pt x="768" y="520" on="1"/>
        <pt x="768" y="505" on="1"/>
        <pt x="768" y="445" on="0"/>
        <pt x="678" y="381" on="0"/>
        <pt x="613" y="381" on="1"/>
        <pt x="576" y="381" on="0"/>
        <pt x="529" y="406" on="0"/>
        <pt x="523" y="406" on="1"/>
        <pt x="504" y="406" on="0"/>
        <pt x="478" y="363" on="0"/>
        <pt x="475" y="342" on="1"/>
        <pt x="495" y="349" on="1"/>
        <pt x="499" y="338" on="1"/>
        <pt x="335" y="280" on="0"/>
        <pt x="320" y="275" on="0"/>
        <pt x="324" y="263" on="1"/>
        <pt x="326" y="254" on="0"/>
        <pt x="337" y="254" on="1"/>
        <pt x="390" y="272" on="1"/>
        <pt x="393" y="266" on="1"/>
        <pt x="347" y="248" on="0"/>
        <pt x="340" y="246" on="1"/>
        <pt x="331" y="241" on="0"/>
        <pt x="339" y="218" on="0"/>
        <pt x="347" y="221" on="1"/>
        <pt x="403" y="247" on="1"/>
        <pt x="405" y="240" on="1"/>
        <pt x="357" y="214" on="0"/>
        <pt x="352" y="213" on="1"/>
        <pt x="344" y="208" on="0"/>
        <pt x="348" y="198" on="1"/>
        <pt x="354" y="187" on="0"/>
        <pt x="361" y="192" on="1"/>
        <pt x="497" y="263" on="1"/>
        <pt x="502" y="255" on="1"/>
        <pt x="468" y="234" on="0"/>
        <pt x="433" y="217" on="1"/>
        <pt x="433" y="171" on="0"/>
        <pt x="577" y="158" on="1"/>
        <pt x="611" y="156" on="0"/>
        <pt x="611" y="132" on="1"/>
        <pt x="611" y="116" on="0"/>
        <pt x="576" y="10" on="0"/>
        <pt x="576" y="-6" on="1"/>
        <pt x="576" y="-31" on="0"/>
        <pt x="611" y="-31" on="1"/>
        <pt x="655" y="-32" on="1"/>
        <pt x="665" y="-23" on="1"/>
        <pt x="672" y="-26" on="1"/>
        <pt x="584" y="-145" on="1"/>
        <pt x="492" y="-119" on="1"/>
        <pt x="463" y="-186" on="1"/>
        <pt x="469" y="-191" on="0"/>
        <pt x="481" y="-199" on="0"/>
        <pt x="485" y="-189" on="1"/>
        <pt x="504" y="-146" on="1"/>
        <pt x="513" y="-149" on="1"/>
        <pt x="495" y="-199" on="1"/>
        <pt x="496" y="-203" on="0"/>
        <pt x="515" y="-210" on="0"/>
        <pt x="518" y="-202" on="1"/>
        <pt x="535" y="-154" on="1"/>
        <pt x="547" y="-157" on="1"/>
        <pt x="528" y="-206" on="1"/>
        <pt x="525" y="-222" on="0"/>
        <pt x="503" y="-215" on="1"/>
        <pt x="493" y="-211" on="0"/>
        <pt x="489" y="-205" on="1"/>
        <pt x="471" y="-207" on="0"/>
        <pt x="461" y="-193" on="1"/>
        <pt x="460" y="-197" on="1"/>
        <pt x="449" y="-193" on="1"/>
        <pt x="439" y="-186" on="1"/>
        <pt x="441" y="-182" on="1"/>
        <pt x="449" y="-183" on="1"/>
        <pt x="469" y="-132" on="0"/>
        <pt x="479" y="-114" on="1"/>
        <pt x="483" y="-106" on="0"/>
        <pt x="496" y="-109" on="1"/>
        <pt x="581" y="-131" on="1"/>
        <pt x="647" y="-40" on="1"/>
        <pt x="614" y="-40" on="1"/>
        <pt x="563" y="-40" on="0"/>
        <pt x="563" y="-8" on="1"/>
        <pt x="563" y="11" on="0"/>
        <pt x="572" y="42" on="1"/>
        <pt x="575" y="53" on="1"/>
        <pt x="526" y="56" on="1"/>
        <pt x="533" y="16" on="1"/>
        <pt x="544" y="16" on="1"/>
        <pt x="545" y="9" on="1"/>
        <pt x="382" y="-32" on="1"/>
        <pt x="380" y="-24" on="1"/>
        <pt x="519" y="16" on="1"/>
        <pt x="515" y="41" on="0"/>
        <pt x="509" y="70" on="1"/>
        <pt x="581" y="63" on="1"/>
        <pt x="598" y="127" on="0"/>
        <pt x="598" y="131" on="1"/>
        <pt x="598" y="146" on="0"/>
        <pt x="576" y="146" on="1"/>
        <pt x="509" y="128" on="0"/>
        <pt x="454" y="110" on="1"/>
        <pt x="426" y="101" on="0"/>
        <pt x="426" y="86" on="1"/>
        <pt x="426" y="72" on="0"/>
        <pt x="469" y="34" on="1"/>
        <pt x="484" y="37" on="1"/>
        <pt x="487" y="30" on="1"/>
        <pt x="341" y="-22" on="1"/>
        <pt x="278" y="56" on="1"/>
        <pt x="217" y="16" on="1"/>
        <pt x="217" y="10" on="0"/>
        <pt x="221" y="6" on="1"/>
        <pt x="227" y="-3" on="0"/>
        <pt x="233" y="3" on="1"/>
        <pt x="275" y="28" on="1"/>
        <pt x="280" y="18" on="1"/>
        <pt x="237" y="-11" on="1"/>
        <pt x="237" y="-17" on="0"/>
        <pt x="239" y="-23" on="1"/>
        <pt x="246" y="-32" on="0"/>
        <pt x="253" y="-26" on="1"/>
        <pt x="295" y="2" on="1"/>
        <pt x="302" y="-8" on="1"/>
        <pt x="260" y="-38" on="1"/>
        <pt x="253" y="-43" on="0"/>
        <pt x="245" y="-40" on="1"/>
        <pt x="229" y="-32" on="0"/>
        <pt x="229" y="-13" on="1"/>
        <pt x="215" y="-5" on="0"/>
        <pt x="212" y="11" on="0"/>
        <pt x="211" y="13" on="1"/>
        <pt x="208" y="10" on="1"/>
        <pt x="202" y="18" on="1"/>
        <pt x="197" y="30" on="1"/>
        <pt x="202" y="33" on="1"/>
        <pt x="209" y="28" on="1"/>
        <pt x="215" y="32" on="0"/>
        <pt x="268" y="64" on="1"/>
        <pt x="280" y="71" on="0"/>
        <pt x="287" y="63" on="1"/>
        <pt x="347" y="-8" on="1"/>
        <pt x="387" y="8" on="0"/>
        <pt x="453" y="32" on="1"/>
        <pt x="424" y="61" on="1"/>
        <pt x="412" y="73" on="0"/>
        <pt x="412" y="81" on="1"/>
        <pt x="412" y="110" on="0"/>
        <pt x="449" y="121" on="1"/>
        <pt x="455" y="123" on="0"/>
        <pt x="535" y="145" on="0"/>
        <pt x="545" y="149" on="1"/>
        <pt x="546" y="149" on="1"/>
        <pt x="545" y="149" on="0"/>
        <pt x="545" y="150" on="1"/>
        <pt x="497" y="152" on="0"/>
        <pt x="420" y="187" on="0"/>
        <pt x="420" y="210" on="1"/>
        <pt x="369" y="181" on="0"/>
        <pt x="364" y="181" on="1"/>
        <pt x="358" y="179" on="0"/>
        <pt x="350" y="179" on="1"/>
        <pt x="342" y="179" on="0"/>
        <pt x="332" y="200" on="1"/>
        <pt x="261" y="170" on="1"/>
        <pt x="251" y="165" on="0"/>
        <pt x="260" y="147" on="1"/>
        <pt x="202" y="125" on="1"/>
        <pt x="202" y="88" on="1"/>
        <pt x="216" y="83" on="1"/>
        <pt x="215" y="74" on="1"/>
        <pt x="143" y="74" on="1"/>
        <pt x="142" y="83" on="1"/>
        <pt x="157" y="88" on="1"/>
        <pt x="157" y="97" on="1"/>
        <pt x="144" y="98" on="0"/>
        <pt x="129" y="124" on="0"/>
        <pt x="129" y="141" on="0"/>
        <pt x="139" y="145" on="1"/>
        <pt x="131" y="149" on="0"/>
        <pt x="124" y="175" on="0"/>
        <pt x="136" y="182" on="1"/>
        <pt x="131" y="185" on="0"/>
        <pt x="126" y="210" on="0"/>
        <pt x="130" y="217" on="0"/>
        <pt x="143" y="218" on="1"/>
        <pt x="157" y="224" on="1"/>
        <pt x="157" y="270" on="1"/>
        <pt x="117" y="270" on="1"/>
        <pt x="114" y="256" on="1"/>
        <pt x="105" y="257" on="1"/>
        <pt x="105" y="292" on="1"/>
        <pt x="105" y="325" on="0"/>
        <pt x="254" y="325" on="0"/>
        <pt x="254" y="292" on="1"/>
        <pt x="254" y="256" on="1"/>
        <pt x="246" y="256" on="1"/>
        <pt x="242" y="270" on="1"/>
        <pt x="202" y="270" on="1"/>
        <pt x="202" y="247" on="1"/>
        <pt x="235" y="247" on="0"/>
        <pt x="238" y="237" on="1"/>
        <pt x="242" y="224" on="1"/>
        <pt x="316" y="250" on="1"/>
        <pt x="307" y="261" on="0"/>
        <pt x="307" y="283" on="0"/>
        <pt x="321" y="289" on="1"/>
        <pt x="415" y="320" on="1"/>
        <pt x="424" y="358" on="1"/>
        <pt x="336" y="377" on="0"/>
        <pt x="306" y="384" on="0"/>
        <pt x="306" y="397" on="1"/>
        <pt x="310" y="417" on="1"/>
        <pt x="268" y="433" on="0"/>
        <pt x="240" y="440" on="0"/>
        <pt x="236" y="440" on="1"/>
        <pt x="225" y="440" on="0"/>
        <pt x="225" y="423" on="1"/>
        <pt x="224" y="423" on="0"/>
        <pt x="202" y="428" on="1"/>
        <pt x="202" y="402" on="1"/>
        <pt x="240" y="402" on="1"/>
        <pt x="246" y="416" on="1"/>
        <pt x="254" y="415" on="1"/>
        <pt x="254" y="381" on="1"/>
        <pt x="254" y="349" on="0"/>
        <pt x="106" y="349" on="0"/>
        <pt x="106" y="381" on="1"/>
        <pt x="106" y="408" on="1"/>
        <pt x="105" y="415" on="1"/>
        <pt x="114" y="416" on="1"/>
        <pt x="121" y="402" on="1"/>
        <pt x="157" y="402" on="1"/>
        <pt x="157" y="436" on="1"/>
        <pt x="152" y="436" on="1"/>
        <pt x="146" y="437" on="1"/>
        <pt x="144" y="437" on="1"/>
        <pt x="131" y="441" on="0"/>
        <pt x="131" y="454" on="1"/>
        <pt x="131" y="458" on="0"/>
        <pt x="132" y="469" on="0"/>
        <pt x="139" y="478" on="1"/>
        <pt x="126" y="482" on="0"/>
        <pt x="136" y="511" on="0"/>
        <pt x="141" y="514" on="1"/>
        <pt x="126" y="519" on="0"/>
        <pt x="134" y="538" on="1"/>
        <pt x="138" y="554" on="0"/>
        <pt x="150" y="554" on="1"/>
        <pt x="153" y="554" on="0"/>
        <pt x="157" y="553" on="1"/>
        <pt x="157" y="585" on="1"/>
        <pt x="142" y="589" on="1"/>
        <pt x="144" y="599" on="1"/>
        <pt x="215" y="599" on="1"/>
        <pt x="220" y="589" on="1"/>
        <pt x="202" y="585" on="1"/>
        <pt x="202" y="564" on="1"/>
        <pt x="214" y="566" on="0"/>
        <pt x="220" y="566" on="1"/>
        <pt x="236" y="566" on="0"/>
        <pt x="238" y="549" on="1"/>
        <pt x="246" y="496" on="1"/>
        <pt x="266" y="489" on="0"/>
        <pt x="326" y="469" on="1"/>
        <pt x="326" y="472" on="0"/>
        <pt x="329" y="481" on="1"/>
        <pt x="334" y="498" on="0"/>
        <pt x="345" y="498" on="1"/>
        <pt x="349" y="498" on="0"/>
        <pt x="353" y="496" on="1"/>
        <pt x="449" y="453" on="1"/>
        <pt x="466" y="511" on="1"/>
        <pt x="469" y="516" on="1"/>
        <pt x="435" y="511" on="0"/>
        <pt x="419" y="511" on="1"/>
        <pt x="383" y="511" on="0"/>
        <pt x="383" y="536" on="1"/>
        <pt x="384" y="549" on="1"/>
        <pt x="383" y="559" on="1"/>
        <pt x="469" y="559" on="1"/>
        <pt x="468" y="561" on="1"/>
      </contour>
      <contour>
        <pt x="607" y="397" on="1"/>
        <pt x="611" y="397" on="1"/>
        <pt x="607" y="399" on="0"/>
        <pt x="607" y="402" on="1"/>
        <pt x="583" y="649" on="1"/>
        <pt x="580" y="649" on="1"/>
        <pt x="502" y="672" on="1"/>
        <pt x="501" y="672" on="0"/>
        <pt x="489" y="672" on="0"/>
        <pt x="470" y="657" on="1"/>
        <pt x="475" y="654" on="0"/>
        <pt x="483" y="646" on="1"/>
        <pt x="487" y="655" on="0"/>
        <pt x="499" y="652" on="1"/>
        <pt x="534" y="642" on="1"/>
        <pt x="548" y="638" on="0"/>
        <pt x="551" y="645" on="1"/>
        <pt x="552" y="645" on="0"/>
        <pt x="556" y="644" on="0"/>
        <pt x="556" y="644" on="1"/>
        <pt x="554" y="631" on="0"/>
        <pt x="537" y="632" on="1"/>
        <pt x="537" y="628" on="0"/>
        <pt x="534" y="623" on="1"/>
        <pt x="525" y="608" on="0"/>
        <pt x="510" y="614" on="1"/>
        <pt x="496" y="624" on="1"/>
        <pt x="499" y="636" on="1"/>
        <pt x="509" y="631" on="1"/>
        <pt x="509" y="624" on="1"/>
        <pt x="509" y="621" on="0"/>
        <pt x="521" y="618" on="0"/>
        <pt x="524" y="628" on="1"/>
        <pt x="525" y="631" on="1"/>
        <pt x="528" y="633" on="1"/>
        <pt x="497" y="642" on="1"/>
        <pt x="493" y="644" on="0"/>
        <pt x="485" y="636" on="1"/>
        <pt x="484" y="636" on="0"/>
        <pt x="470" y="648" on="0"/>
        <pt x="460" y="654" on="1"/>
        <pt x="434" y="671" on="0"/>
        <pt x="355" y="671" on="0"/>
        <pt x="355" y="637" on="1"/>
        <pt x="355" y="633" on="0"/>
        <pt x="358" y="615" on="1"/>
        <pt x="379" y="624" on="0"/>
        <pt x="412" y="624" on="1"/>
        <pt x="479" y="624" on="0"/>
        <pt x="479" y="568" on="1"/>
        <pt x="479" y="546" on="1"/>
        <pt x="394" y="545" on="1"/>
        <pt x="394" y="535" on="1"/>
        <pt x="394" y="524" on="0"/>
        <pt x="421" y="524" on="1"/>
        <pt x="476" y="527" on="1"/>
        <pt x="480" y="517" on="1"/>
        <pt x="429" y="326" on="1"/>
        <pt x="452" y="334" on="0"/>
        <pt x="461" y="336" on="1"/>
        <pt x="461" y="368" on="0"/>
        <pt x="486" y="400" on="1"/>
        <pt x="501" y="419" on="0"/>
        <pt x="534" y="419" on="0"/>
        <pt x="578" y="397" on="0"/>
      </contour>
      <contour>
        <pt x="835" y="565" on="1"/>
        <pt x="868" y="561" on="1"/>
        <pt x="877" y="559" on="0"/>
        <pt x="907" y="556" on="1"/>
        <pt x="921" y="551" on="0"/>
        <pt x="923" y="570" on="1"/>
        <pt x="925" y="585" on="0"/>
        <pt x="910" y="586" on="1"/>
        <pt x="825" y="588" on="1"/>
        <pt x="825" y="596" on="1"/>
        <pt x="908" y="597" on="0"/>
        <pt x="910" y="597" on="1"/>
        <pt x="923" y="600" on="0"/>
        <pt x="923" y="630" on="0"/>
        <pt x="913" y="630" on="1"/>
        <pt x="911" y="630" on="0"/>
        <pt x="910" y="630" on="1"/>
        <pt x="720" y="609" on="1"/>
        <pt x="705" y="608" on="0"/>
        <pt x="697" y="593" on="0"/>
        <pt x="696" y="575" on="0"/>
        <pt x="694" y="542" on="0"/>
        <pt x="693" y="529" on="0"/>
        <pt x="690" y="498" on="0"/>
        <pt x="686" y="483" on="0"/>
        <pt x="678" y="457" on="0"/>
        <pt x="667" y="443" on="0"/>
        <pt x="660" y="435" on="1"/>
        <pt x="647" y="421" on="0"/>
        <pt x="620" y="416" on="1"/>
        <pt x="622" y="397" on="1"/>
        <pt x="627" y="397" on="1"/>
        <pt x="682" y="400" on="0"/>
        <pt x="755" y="455" on="0"/>
        <pt x="755" y="508" on="1"/>
        <pt x="755" y="527" on="1"/>
        <pt x="755" y="544" on="0"/>
        <pt x="769" y="558" on="0"/>
        <pt x="779" y="565" on="0"/>
        <pt x="788" y="568" on="0"/>
        <pt x="792" y="569" on="1"/>
        <pt x="816" y="574" on="0"/>
      </contour>
      <contour>
        <pt x="215" y="239" on="1"/>
        <pt x="204" y="239" on="1"/>
        <pt x="204" y="228" on="1"/>
        <pt x="207" y="228" on="1"/>
        <pt x="207" y="221" on="1"/>
        <pt x="151" y="213" on="1"/>
        <pt x="140" y="213" on="0"/>
        <pt x="143" y="198" on="1"/>
        <pt x="145" y="184" on="0"/>
        <pt x="157" y="189" on="1"/>
        <pt x="204" y="200" on="1"/>
        <pt x="206" y="193" on="1"/>
        <pt x="148" y="178" on="0"/>
        <pt x="145" y="178" on="1"/>
        <pt x="140" y="175" on="0"/>
        <pt x="144" y="148" on="0"/>
        <pt x="156" y="153" on="1"/>
        <pt x="208" y="169" on="1"/>
        <pt x="209" y="164" on="1"/>
        <pt x="195" y="159" on="0"/>
        <pt x="149" y="141" on="1"/>
        <pt x="143" y="139" on="0"/>
        <pt x="143" y="131" on="1"/>
        <pt x="146" y="113" on="0"/>
        <pt x="158" y="106" on="1"/>
        <pt x="158" y="120" on="1"/>
        <pt x="244" y="152" on="1"/>
        <pt x="239" y="159" on="0"/>
        <pt x="243" y="175" on="0"/>
        <pt x="252" y="178" on="1"/>
        <pt x="262" y="186" on="0"/>
        <pt x="333" y="213" on="1"/>
        <pt x="325" y="217" on="0"/>
        <pt x="324" y="226" on="1"/>
        <pt x="320" y="235" on="0"/>
        <pt x="322" y="242" on="1"/>
        <pt x="242" y="211" on="1"/>
        <pt x="232" y="209" on="0"/>
        <pt x="229" y="218" on="1"/>
        <pt x="225" y="229" on="1"/>
        <pt x="224" y="236" on="0"/>
        <pt x="220" y="239" on="0"/>
      </contour>
      <contour>
        <pt x="329" y="390" on="1"/>
        <pt x="425" y="366" on="1"/>
        <pt x="448" y="444" on="1"/>
        <pt x="359" y="482" on="0"/>
        <pt x="355" y="485" on="1"/>
        <pt x="345" y="486" on="0"/>
        <pt x="341" y="477" on="1"/>
        <pt x="337" y="464" on="0"/>
        <pt x="344" y="458" on="1"/>
        <pt x="396" y="437" on="1"/>
        <pt x="394" y="431" on="1"/>
        <pt x="339" y="456" on="0"/>
        <pt x="332" y="449" on="0"/>
        <pt x="328" y="428" on="0"/>
        <pt x="333" y="424" on="1"/>
        <pt x="390" y="408" on="1"/>
        <pt x="389" y="401" on="1"/>
        <pt x="384" y="403" on="0"/>
        <pt x="335" y="417" on="1"/>
        <pt x="325" y="420" on="0"/>
        <pt x="321" y="406" on="1"/>
        <pt x="318" y="392" on="0"/>
      </contour>
      <contour>
        <pt x="748" y="153" on="1"/>
        <pt x="734" y="148" on="0"/>
        <pt x="725" y="154" on="1"/>
        <pt x="726" y="150" on="0"/>
        <pt x="726" y="138" on="1"/>
        <pt x="735" y="134" on="0"/>
        <pt x="763" y="142" on="0"/>
        <pt x="839" y="168" on="0"/>
        <pt x="857" y="171" on="0"/>
        <pt x="861" y="161" on="1"/>
        <pt x="880" y="96" on="1"/>
        <pt x="885" y="87" on="0"/>
        <pt x="893" y="89" on="1"/>
        <pt x="902" y="96" on="1"/>
        <pt x="886" y="154" on="1"/>
        <pt x="894" y="157" on="1"/>
        <pt x="915" y="105" on="1"/>
        <pt x="919" y="97" on="0"/>
        <pt x="927" y="100" on="1"/>
        <pt x="935" y="106" on="1"/>
        <pt x="908" y="190" on="1"/>
        <pt x="905" y="199" on="0"/>
        <pt x="886" y="199" on="1"/>
        <pt x="873" y="193" on="0"/>
      </contour>
      <contour>
        <pt x="396" y="-114" on="1"/>
        <pt x="385" y="-128" on="0"/>
        <pt x="365" y="-121" on="1"/>
        <pt x="364" y="-121" on="0"/>
        <pt x="364" y="-122" on="1"/>
        <pt x="364" y="-131" on="0"/>
        <pt x="328" y="-131" on="0"/>
        <pt x="325" y="-118" on="1"/>
        <pt x="310" y="-48" on="1"/>
        <pt x="288" y="-40" on="1"/>
        <pt x="289" y="-33" on="1"/>
        <pt x="291" y="-35" on="0"/>
        <pt x="321" y="-39" on="0"/>
        <pt x="322" y="-47" on="1"/>
        <pt x="339" y="-113" on="1"/>
        <pt x="340" y="-124" on="0"/>
        <pt x="351" y="-121" on="1"/>
        <pt x="360" y="-117" on="1"/>
        <pt x="348" y="-54" on="1"/>
        <pt x="357" y="-53" on="1"/>
        <pt x="373" y="-106" on="1"/>
        <pt x="374" y="-115" on="0"/>
        <pt x="384" y="-113" on="1"/>
        <pt x="393" y="-109" on="1"/>
        <pt x="382" y="-58" on="1"/>
        <pt x="373" y="-56" on="1"/>
        <pt x="374" y="-49" on="1"/>
        <pt x="494" y="-19" on="1"/>
        <pt x="527" y="-10" on="1"/>
        <pt x="528" y="-17" on="1"/>
        <pt x="511" y="-25" on="1"/>
        <pt x="396" y="-55" on="1"/>
        <pt x="408" y="-105" on="1"/>
        <pt x="416" y="-105" on="1"/>
        <pt x="419" y="-112" on="1"/>
        <pt x="407" y="-117" on="1"/>
        <pt x="396" y="-119" on="1"/>
      </contour>
      <contour>
        <pt x="664" y="-212" on="1"/>
        <pt x="662" y="-213" on="0"/>
        <pt x="662" y="-221" on="0"/>
        <pt x="644" y="-238" on="0"/>
        <pt x="630" y="-238" on="0"/>
        <pt x="625" y="-233" on="1"/>
        <pt x="575" y="-184" on="1"/>
        <pt x="555" y="-191" on="1"/>
        <pt x="552" y="-185" on="1"/>
        <pt x="564" y="-178" on="0"/>
        <pt x="577" y="-170" on="0"/>
        <pt x="584" y="-176" on="1"/>
        <pt x="635" y="-222" on="1"/>
        <pt x="642" y="-228" on="0"/>
        <pt x="649" y="-221" on="1"/>
        <pt x="654" y="-211" on="1"/>
        <pt x="611" y="-168" on="1"/>
        <pt x="616" y="-162" on="1"/>
        <pt x="660" y="-197" on="1"/>
        <pt x="666" y="-201" on="0"/>
        <pt x="672" y="-195" on="1"/>
        <pt x="677" y="-185" on="1"/>
        <pt x="639" y="-152" on="1"/>
        <pt x="631" y="-155" on="1"/>
        <pt x="628" y="-150" on="1"/>
        <pt x="732" y="-30" on="1"/>
        <pt x="736" y="-34" on="1"/>
        <pt x="727" y="-51" on="1"/>
        <pt x="648" y="-141" on="1"/>
        <pt x="688" y="-176" on="1"/>
        <pt x="694" y="-170" on="1"/>
        <pt x="698" y="-175" on="1"/>
        <pt x="692" y="-185" on="1"/>
        <pt x="685" y="-193" on="1"/>
        <pt x="683" y="-191" on="1"/>
        <pt x="679" y="-209" on="0"/>
      </contour>
      <contour>
        <pt x="211" y="434" on="1"/>
        <pt x="214" y="434" on="0"/>
        <pt x="220" y="431" on="1"/>
        <pt x="220" y="433" on="1"/>
        <pt x="220" y="440" on="0"/>
        <pt x="232" y="455" on="0"/>
        <pt x="245" y="451" on="0"/>
        <pt x="305" y="430" on="0"/>
        <pt x="319" y="426" on="1"/>
        <pt x="312" y="443" on="0"/>
        <pt x="323" y="454" on="1"/>
        <pt x="325" y="456" on="0"/>
        <pt x="325" y="457" on="1"/>
        <pt x="245" y="485" on="1"/>
        <pt x="233" y="487" on="0"/>
        <pt x="232" y="494" on="1"/>
        <pt x="225" y="543" on="1"/>
        <pt x="224" y="557" on="0"/>
        <pt x="217" y="557" on="1"/>
        <pt x="202" y="553" on="1"/>
        <pt x="202" y="536" on="1"/>
        <pt x="211" y="532" on="1"/>
        <pt x="222" y="528" on="0"/>
        <pt x="222" y="496" on="0"/>
        <pt x="211" y="492" on="1"/>
        <pt x="216" y="484" on="0"/>
        <pt x="211" y="464" on="0"/>
        <pt x="207" y="460" on="1"/>
        <pt x="215" y="453" on="0"/>
        <pt x="214" y="439" on="1"/>
        <pt x="212" y="435" on="0"/>
      </contour>
      <contour>
        <pt x="240" y="392" on="1"/>
        <pt x="119" y="392" on="1"/>
        <pt x="119" y="381" on="1"/>
        <pt x="119" y="359" on="0"/>
        <pt x="240" y="359" on="0"/>
        <pt x="240" y="381" on="1"/>
      </contour>
      <contour>
        <pt x="120" y="280" on="1"/>
        <pt x="242" y="280" on="1"/>
        <pt x="242" y="292" on="1"/>
        <pt x="242" y="311" on="0"/>
        <pt x="120" y="311" on="0"/>
        <pt x="120" y="292" on="1"/>
      </contour>
      <contour>
        <pt x="288" y="585" on="1"/>
        <pt x="288" y="610" on="0"/>
        <pt x="313" y="610" on="1"/>
        <pt x="334" y="610" on="0"/>
        <pt x="343" y="585" on="1"/>
        <pt x="348" y="574" on="0"/>
        <pt x="364" y="574" on="0"/>
        <pt x="369" y="583" on="1"/>
        <pt x="383" y="597" on="0"/>
        <pt x="393" y="597" on="1"/>
        <pt x="415" y="597" on="0"/>
        <pt x="415" y="572" on="1"/>
        <pt x="407" y="572" on="1"/>
        <pt x="407" y="577" on="0"/>
        <pt x="399" y="586" on="0"/>
        <pt x="386" y="586" on="0"/>
        <pt x="376" y="574" on="1"/>
        <pt x="371" y="564" on="0"/>
        <pt x="334" y="564" on="0"/>
        <pt x="319" y="599" on="0"/>
        <pt x="310" y="599" on="1"/>
        <pt x="297" y="599" on="0"/>
        <pt x="297" y="584" on="1"/>
        <pt x="297" y="580" on="0"/>
        <pt x="300" y="575" on="1"/>
        <pt x="310" y="572" on="1"/>
        <pt x="310" y="560" on="1"/>
        <pt x="294" y="561" on="1"/>
        <pt x="288" y="571" on="0"/>
      </contour>
      <contour>
        <pt x="215" y="513" on="1"/>
        <pt x="215" y="520" on="0"/>
        <pt x="206" y="523" on="1"/>
        <pt x="166" y="542" on="0"/>
        <pt x="150" y="545" on="0"/>
        <pt x="148" y="534" on="1"/>
        <pt x="142" y="521" on="0"/>
        <pt x="151" y="517" on="1"/>
        <pt x="207" y="498" on="1"/>
        <pt x="210" y="499" on="0"/>
        <pt x="215" y="510" on="0"/>
      </contour>
      <contour>
        <pt x="197" y="492" on="1"/>
        <pt x="158" y="506" on="0"/>
        <pt x="146" y="507" on="0"/>
        <pt x="143" y="493" on="0"/>
        <pt x="143" y="481" on="0"/>
        <pt x="149" y="480" on="1"/>
        <pt x="200" y="464" on="1"/>
        <pt x="202" y="467" on="0"/>
        <pt x="204" y="471" on="0"/>
        <pt x="206" y="472" on="1"/>
        <pt x="208" y="487" on="0"/>
      </contour>
      <contour>
        <pt x="152" y="445" on="1"/>
        <pt x="201" y="436" on="1"/>
        <pt x="207" y="442" on="0"/>
        <pt x="204" y="454" on="0"/>
        <pt x="202" y="454" on="1"/>
        <pt x="195" y="457" on="0"/>
        <pt x="193" y="457" on="1"/>
        <pt x="173" y="467" on="0"/>
        <pt x="149" y="472" on="0"/>
        <pt x="144" y="460" on="1"/>
        <pt x="143" y="458" on="0"/>
        <pt x="143" y="454" on="0"/>
        <pt x="144" y="452" on="1"/>
        <pt x="146" y="448" on="0"/>
        <pt x="151" y="446" on="0"/>
      </contour>
      <contour>
        <pt x="193" y="270" on="1"/>
        <pt x="167" y="270" on="1"/>
        <pt x="167" y="224" on="1"/>
        <pt x="183" y="226" on="0"/>
        <pt x="193" y="226" on="1"/>
      </contour>
      <contour>
        <pt x="167" y="585" on="1"/>
        <pt x="167" y="550" on="1"/>
        <pt x="178" y="544" on="0"/>
        <pt x="192" y="541" on="1"/>
        <pt x="192" y="585" on="1"/>
      </contour>
      <contour>
        <pt x="193" y="88" on="1"/>
        <pt x="193" y="120" on="1"/>
        <pt x="167" y="111" on="1"/>
        <pt x="167" y="88" on="1"/>
      </contour>
      <contour>
        <pt x="167" y="405" on="1"/>
        <pt x="193" y="405" on="1"/>
        <pt x="193" y="429" on="1"/>
        <pt x="175" y="431" on="0"/>
        <pt x="167" y="433" on="1"/>
      </contour>
    </TTGlyph>
    <TTGlyph name="Scaron" xMin="35" yMin="-8" xMax="475" yMax="858">
      <contour>
        <pt x="363" y="578" on="1"/>
        <pt x="330" y="596" on="0"/>
        <pt x="191" y="596" on="0"/>
        <pt x="147" y="559" on="1"/>
        <pt x="135" y="540" on="0"/>
        <pt x="135" y="504" on="1"/>
        <pt x="135" y="427" on="0"/>
        <pt x="217" y="396" on="1"/>
        <pt x="347" y="346" on="1"/>
        <pt x="475" y="297" on="0"/>
        <pt x="475" y="169" on="1"/>
        <pt x="475" y="82" on="0"/>
        <pt x="353" y="-8" on="0"/>
        <pt x="256" y="-8" on="1"/>
        <pt x="122" y="-8" on="0"/>
        <pt x="35" y="74" on="1"/>
        <pt x="99" y="183" on="1"/>
        <pt x="123" y="176" on="1"/>
        <pt x="138" y="80" on="1"/>
        <pt x="175" y="54" on="0"/>
        <pt x="245" y="54" on="1"/>
        <pt x="394" y="54" on="0"/>
        <pt x="394" y="155" on="1"/>
        <pt x="394" y="196" on="0"/>
        <pt x="342" y="248" on="0"/>
        <pt x="287" y="269" on="1"/>
        <pt x="172" y="313" on="1"/>
        <pt x="55" y="358" on="0"/>
        <pt x="55" y="475" on="1"/>
        <pt x="55" y="563" on="0"/>
        <pt x="179" y="658" on="0"/>
        <pt x="275" y="658" on="1"/>
        <pt x="392" y="658" on="0"/>
        <pt x="463" y="576" on="1"/>
        <pt x="392" y="477" on="1"/>
        <pt x="368" y="484" on="1"/>
      </contour>
      <contour>
        <pt x="235" y="728" on="1"/>
        <pt x="115" y="839" on="1"/>
        <pt x="134" y="858" on="1"/>
        <pt x="255" y="799" on="1"/>
        <pt x="376" y="858" on="1"/>
        <pt x="395" y="839" on="1"/>
        <pt x="275" y="728" on="1"/>
      </contour>
    </TTGlyph>
    <TTGlyph name="T" xMin="19" yMin="0" xMax="524" yMax="650">
      <contour>
        <pt x="524" y="650" on="1"/>
        <pt x="524" y="513" on="1"/>
        <pt x="500" y="506" on="1"/>
        <pt x="450" y="599" on="1"/>
        <pt x="341" y="602" on="1"/>
        <pt x="328" y="603" on="0"/>
        <pt x="314" y="587" on="0"/>
        <pt x="314" y="576" on="1"/>
        <pt x="314" y="57" on="1"/>
        <pt x="400" y="22" on="1"/>
        <pt x="394" y="0" on="1"/>
        <pt x="149" y="0" on="1"/>
        <pt x="143" y="22" on="1"/>
        <pt x="198" y="45" on="1"/>
        <pt x="216" y="52" on="0"/>
        <pt x="229" y="68" on="0"/>
        <pt x="229" y="83" on="1"/>
        <pt x="229" y="603" on="1"/>
        <pt x="93" y="599" on="1"/>
        <pt x="43" y="506" on="1"/>
        <pt x="19" y="513" on="1"/>
        <pt x="19" y="650" on="1"/>
      </contour>
    </TTGlyph>
    <TTGlyph name="Thorn" xMin="34" yMin="0" xMax="500" yMax="650">
      <contour>
        <pt x="205" y="567" on="1"/>
        <pt x="205" y="496" on="1"/>
        <pt x="222" y="497" on="0"/>
        <pt x="251" y="497" on="1"/>
        <pt x="380" y="497" on="0"/>
        <pt x="500" y="411" on="0"/>
        <pt x="500" y="325" on="1"/>
        <pt x="500" y="155" on="0"/>
        <pt x="271" y="155" on="1"/>
        <pt x="236" y="155" on="0"/>
        <pt x="205" y="158" on="1"/>
        <pt x="205" y="57" on="1"/>
        <pt x="291" y="22" on="1"/>
        <pt x="285" y="0" on="1"/>
        <pt x="40" y="0" on="1"/>
        <pt x="34" y="22" on="1"/>
        <pt x="89" y="45" on="1"/>
        <pt x="107" y="52" on="0"/>
        <pt x="120" y="68" on="0"/>
        <pt x="120" y="83" on="1"/>
        <pt x="120" y="593" on="1"/>
        <pt x="34" y="628" on="1"/>
        <pt x="40" y="650" on="1"/>
        <pt x="285" y="650" on="1"/>
        <pt x="291" y="628" on="1"/>
        <pt x="236" y="605" on="1"/>
        <pt x="218" y="598" on="0"/>
        <pt x="205" y="582" on="0"/>
      </contour>
      <contour>
        <pt x="279" y="446" on="1"/>
        <pt x="232" y="446" on="1"/>
        <pt x="205" y="446" on="0"/>
        <pt x="205" y="421" on="1"/>
        <pt x="205" y="209" on="1"/>
        <pt x="231" y="205" on="0"/>
        <pt x="341" y="205" on="0"/>
        <pt x="381" y="225" on="1"/>
        <pt x="407" y="255" on="0"/>
        <pt x="407" y="316" on="1"/>
        <pt x="407" y="446" on="0"/>
      </contour>
    </TTGlyph>
    <TTGlyph name="U" xMin="23" yMin="-8" xMax="675" yMax="650">
      <contour>
        <pt x="599" y="567" on="1"/>
        <pt x="599" y="255" on="1"/>
        <pt x="599" y="114" on="0"/>
        <pt x="483" y="-8" on="0"/>
        <pt x="360" y="-8" on="1"/>
        <pt x="99" y="-8" on="0"/>
        <pt x="99" y="252" on="1"/>
        <pt x="99" y="597" on="1"/>
        <pt x="23" y="628" on="1"/>
        <pt x="29" y="650" on="1"/>
        <pt x="264" y="650" on="1"/>
        <pt x="265" y="628" on="1"/>
        <pt x="215" y="605" on="1"/>
        <pt x="197" y="598" on="0"/>
        <pt x="184" y="582" on="0"/>
        <pt x="184" y="567" on="1"/>
        <pt x="184" y="257" on="1"/>
        <pt x="184" y="160" on="0"/>
        <pt x="277" y="54" on="0"/>
        <pt x="435" y="54" on="0"/>
        <pt x="483" y="78" on="1"/>
        <pt x="533" y="131" on="0"/>
        <pt x="533" y="252" on="1"/>
        <pt x="533" y="593" on="1"/>
        <pt x="447" y="628" on="1"/>
        <pt x="453" y="650" on="1"/>
        <pt x="669" y="650" on="1"/>
        <pt x="675" y="628" on="1"/>
        <pt x="630" y="609" on="1"/>
        <pt x="599" y="597" on="0"/>
      </contour>
    </TTGlyph>
    <TTGlyph name="Uacute" xMin="23" yMin="-8" xMax="675" yMax="865">
      <contour>
        <pt x="599" y="567" on="1"/>
        <pt x="599" y="255" on="1"/>
        <pt x="599" y="114" on="0"/>
        <pt x="483" y="-8" on="0"/>
        <pt x="360" y="-8" on="1"/>
        <pt x="99" y="-8" on="0"/>
        <pt x="99" y="252" on="1"/>
        <pt x="99" y="597" on="1"/>
        <pt x="23" y="628" on="1"/>
        <pt x="29" y="650" on="1"/>
        <pt x="264" y="650" on="1"/>
        <pt x="265" y="628" on="1"/>
        <pt x="215" y="605" on="1"/>
        <pt x="197" y="598" on="0"/>
        <pt x="184" y="582" on="0"/>
        <pt x="184" y="567" on="1"/>
        <pt x="184" y="257" on="1"/>
        <pt x="184" y="160" on="0"/>
        <pt x="277" y="54" on="0"/>
        <pt x="435" y="54" on="0"/>
        <pt x="483" y="78" on="1"/>
        <pt x="533" y="131" on="0"/>
        <pt x="533" y="252" on="1"/>
        <pt x="533" y="593" on="1"/>
        <pt x="447" y="628" on="1"/>
        <pt x="453" y="650" on="1"/>
        <pt x="669" y="650" on="1"/>
        <pt x="675" y="628" on="1"/>
        <pt x="630" y="609" on="1"/>
        <pt x="599" y="597" on="0"/>
      </contour>
      <contour>
        <pt x="273" y="742" on="1"/>
        <pt x="445" y="865" on="1"/>
        <pt x="486" y="813" on="1"/>
        <pt x="482" y="793" on="1"/>
        <pt x="286" y="722" on="1"/>
      </contour>
    </TTGlyph>
    <TTGlyph name="Ucircumflex" xMin="23" yMin="-8" xMax="675" yMax="858">
      <contour>
        <pt x="599" y="567" on="1"/>
        <pt x="599" y="255" on="1"/>
        <pt x="599" y="114" on="0"/>
        <pt x="483" y="-8" on="0"/>
        <pt x="360" y="-8" on="1"/>
        <pt x="99" y="-8" on="0"/>
        <pt x="99" y="252" on="1"/>
        <pt x="99" y="597" on="1"/>
        <pt x="23" y="628" on="1"/>
        <pt x="29" y="650" on="1"/>
        <pt x="264" y="650" on="1"/>
        <pt x="265" y="628" on="1"/>
        <pt x="215" y="605" on="1"/>
        <pt x="197" y="598" on="0"/>
        <pt x="184" y="582" on="0"/>
        <pt x="184" y="567" on="1"/>
        <pt x="184" y="257" on="1"/>
        <pt x="184" y="160" on="0"/>
        <pt x="277" y="54" on="0"/>
        <pt x="435" y="54" on="0"/>
        <pt x="483" y="78" on="1"/>
        <pt x="533" y="131" on="0"/>
        <pt x="533" y="252" on="1"/>
        <pt x="533" y="593" on="1"/>
        <pt x="447" y="628" on="1"/>
        <pt x="453" y="650" on="1"/>
        <pt x="669" y="650" on="1"/>
        <pt x="675" y="628" on="1"/>
        <pt x="630" y="609" on="1"/>
        <pt x="599" y="597" on="0"/>
      </contour>
      <contour>
        <pt x="209" y="747" on="1"/>
        <pt x="329" y="858" on="1"/>
        <pt x="369" y="858" on="1"/>
        <pt x="489" y="747" on="1"/>
        <pt x="470" y="728" on="1"/>
        <pt x="349" y="787" on="1"/>
        <pt x="228" y="728" on="1"/>
      </contour>
    </TTGlyph>
    <TTGlyph name="Udieresis" xMin="23" yMin="-8" xMax="675" yMax="842">
      <contour>
        <pt x="599" y="567" on="1"/>
        <pt x="599" y="255" on="1"/>
        <pt x="599" y="114" on="0"/>
        <pt x="483" y="-8" on="0"/>
        <pt x="360" y="-8" on="1"/>
        <pt x="99" y="-8" on="0"/>
        <pt x="99" y="252" on="1"/>
        <pt x="99" y="597" on="1"/>
        <pt x="23" y="628" on="1"/>
        <pt x="29" y="650" on="1"/>
        <pt x="264" y="650" on="1"/>
        <pt x="265" y="628" on="1"/>
        <pt x="215" y="605" on="1"/>
        <pt x="197" y="598" on="0"/>
        <pt x="184" y="582" on="0"/>
        <pt x="184" y="567" on="1"/>
        <pt x="184" y="257" on="1"/>
        <pt x="184" y="160" on="0"/>
        <pt x="277" y="54" on="0"/>
        <pt x="435" y="54" on="0"/>
        <pt x="483" y="78" on="1"/>
        <pt x="533" y="131" on="0"/>
        <pt x="533" y="252" on="1"/>
        <pt x="533" y="593" on="1"/>
        <pt x="447" y="628" on="1"/>
        <pt x="453" y="650" on="1"/>
        <pt x="669" y="650" on="1"/>
        <pt x="675" y="628" on="1"/>
        <pt x="630" y="609" on="1"/>
        <pt x="599" y="597" on="0"/>
      </contour>
      <contour>
        <pt x="216" y="732" on="0"/>
        <pt x="185" y="763" on="0"/>
        <pt x="185" y="810" on="0"/>
        <pt x="216" y="842" on="0"/>
        <pt x="263" y="842" on="0"/>
        <pt x="295" y="810" on="0"/>
        <pt x="295" y="763" on="0"/>
        <pt x="263" y="732" on="0"/>
      </contour>
      <contour>
        <pt x="434" y="732" on="0"/>
        <pt x="403" y="763" on="0"/>
        <pt x="403" y="810" on="0"/>
        <pt x="434" y="842" on="0"/>
        <pt x="481" y="842" on="0"/>
        <pt x="513" y="810" on="0"/>
        <pt x="513" y="763" on="0"/>
        <pt x="481" y="732" on="0"/>
      </contour>
    </TTGlyph>
    <TTGlyph name="Ugrave" xMin="23" yMin="-8" xMax="675" yMax="858">
      <contour>
        <pt x="599" y="567" on="1"/>
        <pt x="599" y="255" on="1"/>
        <pt x="599" y="114" on="0"/>
        <pt x="483" y="-8" on="0"/>
        <pt x="360" y="-8" on="1"/>
        <pt x="99" y="-8" on="0"/>
        <pt x="99" y="252" on="1"/>
        <pt x="99" y="597" on="1"/>
        <pt x="23" y="628" on="1"/>
        <pt x="29" y="650" on="1"/>
        <pt x="264" y="650" on="1"/>
        <pt x="265" y="628" on="1"/>
        <pt x="215" y="605" on="1"/>
        <pt x="197" y="598" on="0"/>
        <pt x="184" y="582" on="0"/>
        <pt x="184" y="567" on="1"/>
        <pt x="184" y="257" on="1"/>
        <pt x="184" y="160" on="0"/>
        <pt x="277" y="54" on="0"/>
        <pt x="435" y="54" on="0"/>
        <pt x="483" y="78" on="1"/>
        <pt x="533" y="131" on="0"/>
        <pt x="533" y="252" on="1"/>
        <pt x="533" y="593" on="1"/>
        <pt x="447" y="628" on="1"/>
        <pt x="453" y="650" on="1"/>
        <pt x="669" y="650" on="1"/>
        <pt x="675" y="628" on="1"/>
        <pt x="630" y="609" on="1"/>
        <pt x="599" y="597" on="0"/>
      </contour>
      <contour>
        <pt x="408" y="722" on="1"/>
        <pt x="197" y="799" on="1"/>
        <pt x="240" y="854" on="1"/>
        <pt x="260" y="858" on="1"/>
        <pt x="421" y="742" on="1"/>
      </contour>
    </TTGlyph>
    <TTGlyph name="V" xMin="-12" yMin="-8" xMax="650" yMax="650">
      <contour>
        <pt x="170" y="580" on="1"/>
        <pt x="170" y="574" on="0"/>
        <pt x="173" y="567" on="1"/>
        <pt x="335" y="108" on="1"/>
        <pt x="503" y="593" on="1"/>
        <pt x="417" y="628" on="1"/>
        <pt x="423" y="650" on="1"/>
        <pt x="644" y="650" on="1"/>
        <pt x="650" y="628" on="1"/>
        <pt x="595" y="605" on="1"/>
        <pt x="578" y="598" on="0"/>
        <pt x="569" y="586" on="0"/>
        <pt x="562" y="567" on="1"/>
        <pt x="362" y="10" on="1"/>
        <pt x="301" y="-8" on="1"/>
        <pt x="281" y="0" on="1"/>
        <pt x="66" y="596" on="1"/>
        <pt x="-12" y="628" on="1"/>
        <pt x="-6" y="650" on="1"/>
        <pt x="239" y="650" on="1"/>
        <pt x="245" y="628" on="1"/>
        <pt x="190" y="605" on="1"/>
        <pt x="170" y="597" on="0"/>
      </contour>
    </TTGlyph>
    <TTGlyph name="W" xMin="-9" yMin="-8" xMax="987" yMax="650">
      <contour>
        <pt x="174" y="580" on="1"/>
        <pt x="174" y="574" on="0"/>
        <pt x="176" y="567" on="1"/>
        <pt x="309" y="108" on="1"/>
        <pt x="461" y="630" on="1"/>
        <pt x="522" y="650" on="1"/>
        <pt x="541" y="640" on="1"/>
        <pt x="698" y="108" on="1"/>
        <pt x="839" y="593" on="1"/>
        <pt x="753" y="628" on="1"/>
        <pt x="759" y="650" on="1"/>
        <pt x="981" y="650" on="1"/>
        <pt x="987" y="628" on="1"/>
        <pt x="932" y="605" on="1"/>
        <pt x="915" y="598" on="0"/>
        <pt x="905" y="585" on="0"/>
        <pt x="899" y="567" on="1"/>
        <pt x="730" y="10" on="1"/>
        <pt x="656" y="-8" on="1"/>
        <pt x="636" y="0" on="1"/>
        <pt x="488" y="499" on="1"/>
        <pt x="347" y="10" on="1"/>
        <pt x="270" y="-8" on="1"/>
        <pt x="250" y="0" on="1"/>
        <pt x="69" y="596" on="1"/>
        <pt x="-9" y="628" on="1"/>
        <pt x="-3" y="650" on="1"/>
        <pt x="242" y="650" on="1"/>
        <pt x="248" y="628" on="1"/>
        <pt x="193" y="605" on="1"/>
        <pt x="174" y="597" on="0"/>
      </contour>
    </TTGlyph>
    <TTGlyph name="X" xMin="4" yMin="0" xMax="647" yMax="650">
      <contour>
        <pt x="445" y="45" on="1"/>
        <pt x="459" y="51" on="0"/>
        <pt x="459" y="71" on="0"/>
        <pt x="450" y="83" on="1"/>
        <pt x="313" y="273" on="1"/>
        <pt x="156" y="57" on="1"/>
        <pt x="242" y="22" on="1"/>
        <pt x="236" y="0" on="1"/>
        <pt x="10" y="0" on="1"/>
        <pt x="4" y="22" on="1"/>
        <pt x="59" y="45" on="1"/>
        <pt x="76" y="52" on="0"/>
        <pt x="88" y="66" on="0"/>
        <pt x="98" y="82" on="0"/>
        <pt x="99" y="83" on="1"/>
        <pt x="275" y="326" on="1"/>
        <pt x="81" y="596" on="1"/>
        <pt x="9" y="628" on="1"/>
        <pt x="15" y="650" on="1"/>
        <pt x="260" y="650" on="1"/>
        <pt x="266" y="628" on="1"/>
        <pt x="211" y="605" on="1"/>
        <pt x="197" y="599" on="0"/>
        <pt x="197" y="579" on="0"/>
        <pt x="206" y="567" on="1"/>
        <pt x="335" y="387" on="1"/>
        <pt x="480" y="593" on="1"/>
        <pt x="394" y="628" on="1"/>
        <pt x="400" y="650" on="1"/>
        <pt x="626" y="650" on="1"/>
        <pt x="632" y="628" on="1"/>
        <pt x="577" y="605" on="1"/>
        <pt x="565" y="600" on="0"/>
        <pt x="559" y="595" on="0"/>
        <pt x="556" y="593" on="0"/>
        <pt x="549" y="584" on="0"/>
        <pt x="547" y="582" on="0"/>
        <pt x="539" y="569" on="0"/>
        <pt x="537" y="567" on="1"/>
        <pt x="373" y="334" on="1"/>
        <pt x="575" y="54" on="1"/>
        <pt x="647" y="22" on="1"/>
        <pt x="641" y="0" on="1"/>
        <pt x="396" y="0" on="1"/>
        <pt x="390" y="22" on="1"/>
      </contour>
    </TTGlyph>
    <TTGlyph name="Y" xMin="-10" yMin="0" xMax="613" yMax="650">
      <contour>
        <pt x="258" y="83" on="1"/>
        <pt x="258" y="298" on="1"/>
        <pt x="60" y="596" on="1"/>
        <pt x="-10" y="628" on="1"/>
        <pt x="-4" y="650" on="1"/>
        <pt x="237" y="650" on="1"/>
        <pt x="243" y="628" on="1"/>
        <pt x="196" y="605" on="1"/>
        <pt x="174" y="595" on="0"/>
        <pt x="174" y="581" on="1"/>
        <pt x="174" y="574" on="0"/>
        <pt x="179" y="567" on="1"/>
        <pt x="315" y="365" on="1"/>
        <pt x="463" y="593" on="1"/>
        <pt x="377" y="628" on="1"/>
        <pt x="383" y="650" on="1"/>
        <pt x="607" y="650" on="1"/>
        <pt x="613" y="628" on="1"/>
        <pt x="558" y="605" on="1"/>
        <pt x="539" y="597" on="0"/>
        <pt x="522" y="578" on="0"/>
        <pt x="515" y="567" on="1"/>
        <pt x="343" y="301" on="1"/>
        <pt x="343" y="57" on="1"/>
        <pt x="429" y="22" on="1"/>
        <pt x="423" y="0" on="1"/>
        <pt x="178" y="0" on="1"/>
        <pt x="172" y="22" on="1"/>
        <pt x="227" y="45" on="1"/>
        <pt x="245" y="52" on="0"/>
        <pt x="258" y="68" on="0"/>
      </contour>
    </TTGlyph>
    <TTGlyph name="Yacute" xMin="-10" yMin="0" xMax="613" yMax="865">
      <contour>
        <pt x="258" y="83" on="1"/>
        <pt x="258" y="298" on="1"/>
        <pt x="60" y="596" on="1"/>
        <pt x="-10" y="628" on="1"/>
        <pt x="-4" y="650" on="1"/>
        <pt x="237" y="650" on="1"/>
        <pt x="243" y="628" on="1"/>
        <pt x="196" y="605" on="1"/>
        <pt x="174" y="595" on="0"/>
        <pt x="174" y="581" on="1"/>
        <pt x="174" y="574" on="0"/>
        <pt x="179" y="567" on="1"/>
        <pt x="315" y="365" on="1"/>
        <pt x="463" y="593" on="1"/>
        <pt x="377" y="628" on="1"/>
        <pt x="383" y="650" on="1"/>
        <pt x="607" y="650" on="1"/>
        <pt x="613" y="628" on="1"/>
        <pt x="558" y="605" on="1"/>
        <pt x="539" y="597" on="0"/>
        <pt x="522" y="578" on="0"/>
        <pt x="515" y="567" on="1"/>
        <pt x="343" y="301" on="1"/>
        <pt x="343" y="57" on="1"/>
        <pt x="429" y="22" on="1"/>
        <pt x="423" y="0" on="1"/>
        <pt x="178" y="0" on="1"/>
        <pt x="172" y="22" on="1"/>
        <pt x="227" y="45" on="1"/>
        <pt x="245" y="52" on="0"/>
        <pt x="258" y="68" on="0"/>
      </contour>
      <contour>
        <pt x="215" y="742" on="1"/>
        <pt x="387" y="865" on="1"/>
        <pt x="428" y="813" on="1"/>
        <pt x="424" y="793" on="1"/>
        <pt x="228" y="722" on="1"/>
      </contour>
    </TTGlyph>
    <TTGlyph name="Ydieresis" xMin="-10" yMin="0" xMax="613" yMax="842">
      <contour>
        <pt x="258" y="83" on="1"/>
        <pt x="258" y="298" on="1"/>
        <pt x="60" y="596" on="1"/>
        <pt x="-10" y="628" on="1"/>
        <pt x="-4" y="650" on="1"/>
        <pt x="237" y="650" on="1"/>
        <pt x="243" y="628" on="1"/>
        <pt x="196" y="605" on="1"/>
        <pt x="174" y="595" on="0"/>
        <pt x="174" y="581" on="1"/>
        <pt x="174" y="574" on="0"/>
        <pt x="179" y="567" on="1"/>
        <pt x="315" y="365" on="1"/>
        <pt x="463" y="593" on="1"/>
        <pt x="377" y="628" on="1"/>
        <pt x="383" y="650" on="1"/>
        <pt x="607" y="650" on="1"/>
        <pt x="613" y="628" on="1"/>
        <pt x="558" y="605" on="1"/>
        <pt x="539" y="597" on="0"/>
        <pt x="522" y="578" on="0"/>
        <pt x="515" y="567" on="1"/>
        <pt x="343" y="301" on="1"/>
        <pt x="343" y="57" on="1"/>
        <pt x="429" y="22" on="1"/>
        <pt x="423" y="0" on="1"/>
        <pt x="178" y="0" on="1"/>
        <pt x="172" y="22" on="1"/>
        <pt x="227" y="45" on="1"/>
        <pt x="245" y="52" on="0"/>
        <pt x="258" y="68" on="0"/>
      </contour>
      <contour>
        <pt x="168" y="732" on="0"/>
        <pt x="137" y="763" on="0"/>
        <pt x="137" y="810" on="0"/>
        <pt x="168" y="842" on="0"/>
        <pt x="215" y="842" on="0"/>
        <pt x="247" y="810" on="0"/>
        <pt x="247" y="763" on="0"/>
        <pt x="215" y="732" on="0"/>
      </contour>
      <contour>
        <pt x="386" y="732" on="0"/>
        <pt x="355" y="763" on="0"/>
        <pt x="355" y="810" on="0"/>
        <pt x="386" y="842" on="0"/>
        <pt x="433" y="842" on="0"/>
        <pt x="465" y="810" on="0"/>
        <pt x="465" y="763" on="0"/>
        <pt x="433" y="732" on="0"/>
      </contour>
    </TTGlyph>
    <TTGlyph name="Z" xMin="25" yMin="0" xMax="514" yMax="650">
      <contour>
        <pt x="508" y="0" on="1"/>
        <pt x="31" y="0" on="1"/>
        <pt x="25" y="29" on="1"/>
        <pt x="399" y="598" on="1"/>
        <pt x="135" y="596" on="1"/>
        <pt x="86" y="506" on="1"/>
        <pt x="56" y="513" on="1"/>
        <pt x="56" y="650" on="1"/>
        <pt x="508" y="650" on="1"/>
        <pt x="514" y="617" on="1"/>
        <pt x="145" y="52" on="1"/>
        <pt x="429" y="54" on="1"/>
        <pt x="478" y="144" on="1"/>
        <pt x="508" y="137" on="1"/>
      </contour>
    </TTGlyph>
    <TTGlyph name="Zcaron" xMin="25" yMin="0" xMax="514" yMax="858">
      <contour>
        <pt x="508" y="0" on="1"/>
        <pt x="31" y="0" on="1"/>
        <pt x="25" y="29" on="1"/>
        <pt x="399" y="598" on="1"/>
        <pt x="135" y="596" on="1"/>
        <pt x="86" y="506" on="1"/>
        <pt x="56" y="513" on="1"/>
        <pt x="56" y="650" on="1"/>
        <pt x="508" y="650" on="1"/>
        <pt x="514" y="617" on="1"/>
        <pt x="145" y="52" on="1"/>
        <pt x="429" y="54" on="1"/>
        <pt x="478" y="144" on="1"/>
        <pt x="508" y="137" on="1"/>
      </contour>
      <contour>
        <pt x="259" y="728" on="1"/>
        <pt x="139" y="839" on="1"/>
        <pt x="158" y="858" on="1"/>
        <pt x="279" y="799" on="1"/>
        <pt x="400" y="858" on="1"/>
        <pt x="419" y="839" on="1"/>
        <pt x="299" y="728" on="1"/>
      </contour>
    </TTGlyph>
    <TTGlyph name="a" xMin="38" yMin="-8" xMax="422" yMax="458">
      <contour>
        <pt x="115" y="91" on="0"/>
        <pt x="161" y="57" on="0"/>
        <pt x="222" y="57" on="0"/>
        <pt x="273" y="74" on="1"/>
        <pt x="275" y="190" on="1"/>
        <pt x="147" y="183" on="0"/>
        <pt x="116" y="146" on="1"/>
        <pt x="115" y="141" on="0"/>
        <pt x="115" y="133" on="1"/>
      </contour>
      <contour>
        <pt x="274" y="30" on="1"/>
        <pt x="209" y="-8" on="0"/>
        <pt x="101" y="-8" on="0"/>
        <pt x="38" y="61" on="0"/>
        <pt x="38" y="168" on="0"/>
        <pt x="143" y="226" on="0"/>
        <pt x="275" y="234" on="1"/>
        <pt x="276" y="299" on="1"/>
        <pt x="277" y="344" on="0"/>
        <pt x="232" y="399" on="0"/>
        <pt x="154" y="399" on="0"/>
        <pt x="125" y="390" on="1"/>
        <pt x="117" y="314" on="1"/>
        <pt x="93" y="307" on="1"/>
        <pt x="38" y="385" on="1"/>
        <pt x="60" y="410" on="0"/>
        <pt x="148" y="458" on="0"/>
        <pt x="209" y="458" on="1"/>
        <pt x="358" y="458" on="0"/>
        <pt x="358" y="277" on="1"/>
        <pt x="353" y="54" on="1"/>
        <pt x="422" y="30" on="1"/>
        <pt x="416" y="8" on="1"/>
        <pt x="331" y="-8" on="1"/>
        <pt x="311" y="0" on="1"/>
        <pt x="279" y="28" on="1"/>
      </contour>
    </TTGlyph>
    <TTGlyph name="aacute" xMin="38" yMin="-8" xMax="422" yMax="695">
      <contour>
        <pt x="115" y="91" on="0"/>
        <pt x="161" y="57" on="0"/>
        <pt x="222" y="57" on="0"/>
        <pt x="273" y="74" on="1"/>
        <pt x="275" y="190" on="1"/>
        <pt x="147" y="183" on="0"/>
        <pt x="116" y="146" on="1"/>
        <pt x="115" y="141" on="0"/>
        <pt x="115" y="133" on="1"/>
      </contour>
      <contour>
        <pt x="274" y="30" on="1"/>
        <pt x="209" y="-8" on="0"/>
        <pt x="101" y="-8" on="0"/>
        <pt x="38" y="61" on="0"/>
        <pt x="38" y="168" on="0"/>
        <pt x="143" y="226" on="0"/>
        <pt x="275" y="234" on="1"/>
        <pt x="276" y="299" on="1"/>
        <pt x="277" y="344" on="0"/>
        <pt x="232" y="399" on="0"/>
        <pt x="154" y="399" on="0"/>
        <pt x="125" y="390" on="1"/>
        <pt x="117" y="314" on="1"/>
        <pt x="93" y="307" on="1"/>
        <pt x="38" y="385" on="1"/>
        <pt x="60" y="410" on="0"/>
        <pt x="148" y="458" on="0"/>
        <pt x="209" y="458" on="1"/>
        <pt x="358" y="458" on="0"/>
        <pt x="358" y="277" on="1"/>
        <pt x="353" y="54" on="1"/>
        <pt x="422" y="30" on="1"/>
        <pt x="416" y="8" on="1"/>
        <pt x="331" y="-8" on="1"/>
        <pt x="311" y="0" on="1"/>
        <pt x="279" y="28" on="1"/>
      </contour>
      <contour>
        <pt x="97" y="572" on="1"/>
        <pt x="269" y="695" on="1"/>
        <pt x="310" y="643" on="1"/>
        <pt x="306" y="623" on="1"/>
        <pt x="110" y="552" on="1"/>
      </contour>
    </TTGlyph>
    <TTGlyph name="acircumflex" xMin="38" yMin="-8" xMax="422" yMax="688">
      <contour>
        <pt x="115" y="91" on="0"/>
        <pt x="161" y="57" on="0"/>
        <pt x="222" y="57" on="0"/>
        <pt x="273" y="74" on="1"/>
        <pt x="275" y="190" on="1"/>
        <pt x="147" y="183" on="0"/>
        <pt x="116" y="146" on="1"/>
        <pt x="115" y="141" on="0"/>
        <pt x="115" y="133" on="1"/>
      </contour>
      <contour>
        <pt x="274" y="30" on="1"/>
        <pt x="209" y="-8" on="0"/>
        <pt x="101" y="-8" on="0"/>
        <pt x="38" y="61" on="0"/>
        <pt x="38" y="168" on="0"/>
        <pt x="143" y="226" on="0"/>
        <pt x="275" y="234" on="1"/>
        <pt x="276" y="299" on="1"/>
        <pt x="277" y="344" on="0"/>
        <pt x="232" y="399" on="0"/>
        <pt x="154" y="399" on="0"/>
        <pt x="125" y="390" on="1"/>
        <pt x="117" y="314" on="1"/>
        <pt x="93" y="307" on="1"/>
        <pt x="38" y="385" on="1"/>
        <pt x="60" y="410" on="0"/>
        <pt x="148" y="458" on="0"/>
        <pt x="209" y="458" on="1"/>
        <pt x="358" y="458" on="0"/>
        <pt x="358" y="277" on="1"/>
        <pt x="353" y="54" on="1"/>
        <pt x="422" y="30" on="1"/>
        <pt x="416" y="8" on="1"/>
        <pt x="331" y="-8" on="1"/>
        <pt x="311" y="0" on="1"/>
        <pt x="279" y="28" on="1"/>
      </contour>
      <contour>
        <pt x="63" y="577" on="1"/>
        <pt x="183" y="688" on="1"/>
        <pt x="223" y="688" on="1"/>
        <pt x="343" y="577" on="1"/>
        <pt x="324" y="558" on="1"/>
        <pt x="203" y="617" on="1"/>
        <pt x="82" y="558" on="1"/>
      </contour>
    </TTGlyph>
    <TTGlyph name="acute" xMin="40" yMin="552" xMax="253" yMax="695">
      <contour>
        <pt x="40" y="572" on="1"/>
        <pt x="212" y="695" on="1"/>
        <pt x="253" y="643" on="1"/>
        <pt x="249" y="623" on="1"/>
        <pt x="53" y="552" on="1"/>
      </contour>
    </TTGlyph>
    <TTGlyph name="adieresis" xMin="38" yMin="-8" xMax="422" yMax="672">
      <contour>
        <pt x="115" y="91" on="0"/>
        <pt x="161" y="57" on="0"/>
        <pt x="222" y="57" on="0"/>
        <pt x="273" y="74" on="1"/>
        <pt x="275" y="190" on="1"/>
        <pt x="147" y="183" on="0"/>
        <pt x="116" y="146" on="1"/>
        <pt x="115" y="141" on="0"/>
        <pt x="115" y="133" on="1"/>
      </contour>
      <contour>
        <pt x="274" y="30" on="1"/>
        <pt x="209" y="-8" on="0"/>
        <pt x="101" y="-8" on="0"/>
        <pt x="38" y="61" on="0"/>
        <pt x="38" y="168" on="0"/>
        <pt x="143" y="226" on="0"/>
        <pt x="275" y="234" on="1"/>
        <pt x="276" y="299" on="1"/>
        <pt x="277" y="344" on="0"/>
        <pt x="232" y="399" on="0"/>
        <pt x="154" y="399" on="0"/>
        <pt x="125" y="390" on="1"/>
        <pt x="117" y="314" on="1"/>
        <pt x="93" y="307" on="1"/>
        <pt x="38" y="385" on="1"/>
        <pt x="60" y="410" on="0"/>
        <pt x="148" y="458" on="0"/>
        <pt x="209" y="458" on="1"/>
        <pt x="358" y="458" on="0"/>
        <pt x="358" y="277" on="1"/>
        <pt x="353" y="54" on="1"/>
        <pt x="422" y="30" on="1"/>
        <pt x="416" y="8" on="1"/>
        <pt x="331" y="-8" on="1"/>
        <pt x="311" y="0" on="1"/>
        <pt x="279" y="28" on="1"/>
      </contour>
      <contour>
        <pt x="80" y="562" on="0"/>
        <pt x="49" y="593" on="0"/>
        <pt x="49" y="640" on="0"/>
        <pt x="80" y="672" on="0"/>
        <pt x="127" y="672" on="0"/>
        <pt x="159" y="640" on="0"/>
        <pt x="159" y="593" on="0"/>
        <pt x="127" y="562" on="0"/>
      </contour>
      <contour>
        <pt x="278" y="562" on="0"/>
        <pt x="247" y="593" on="0"/>
        <pt x="247" y="640" on="0"/>
        <pt x="278" y="672" on="0"/>
        <pt x="325" y="672" on="0"/>
        <pt x="357" y="640" on="0"/>
        <pt x="357" y="593" on="0"/>
        <pt x="325" y="562" on="0"/>
      </contour>
    </TTGlyph>
    <TTGlyph name="ae" xMin="38" yMin="-8" xMax="640" yMax="458">
      <contour>
        <pt x="342" y="393" on="1"/>
        <pt x="397" y="458" on="0"/>
        <pt x="557" y="458" on="0"/>
        <pt x="640" y="356" on="0"/>
        <pt x="640" y="270" on="1"/>
        <pt x="640" y="233" on="1"/>
        <pt x="625" y="218" on="1"/>
        <pt x="365" y="202" on="1"/>
        <pt x="367" y="128" on="0"/>
        <pt x="442" y="55" on="0"/>
        <pt x="556" y="55" on="0"/>
        <pt x="617" y="82" on="1"/>
        <pt x="631" y="56" on="1"/>
        <pt x="611" y="34" on="0"/>
        <pt x="531" y="-8" on="0"/>
        <pt x="482" y="-8" on="1"/>
        <pt x="398" y="-8" on="0"/>
        <pt x="343" y="52" on="1"/>
        <pt x="256" y="-8" on="0"/>
        <pt x="168" y="-8" on="1"/>
        <pt x="104" y="-8" on="0"/>
        <pt x="38" y="61" on="0"/>
        <pt x="38" y="169" on="0"/>
        <pt x="146" y="229" on="0"/>
        <pt x="283" y="241" on="1"/>
        <pt x="284" y="299" on="1"/>
        <pt x="285" y="343" on="0"/>
        <pt x="239" y="399" on="0"/>
        <pt x="154" y="399" on="0"/>
        <pt x="125" y="390" on="1"/>
        <pt x="117" y="314" on="1"/>
        <pt x="93" y="307" on="1"/>
        <pt x="38" y="385" on="1"/>
        <pt x="60" y="410" on="0"/>
        <pt x="151" y="458" on="0"/>
        <pt x="213" y="458" on="1"/>
        <pt x="306" y="458" on="0"/>
      </contour>
      <contour>
        <pt x="560" y="327" on="0"/>
        <pt x="512" y="396" on="0"/>
        <pt x="434" y="396" on="0"/>
        <pt x="406" y="382" on="1"/>
        <pt x="395" y="369" on="0"/>
        <pt x="383" y="351" on="0"/>
        <pt x="367" y="291" on="0"/>
        <pt x="366" y="248" on="1"/>
        <pt x="560" y="264" on="1"/>
      </contour>
      <contour>
        <pt x="116" y="134" on="1"/>
        <pt x="116" y="50" on="0"/>
        <pt x="204" y="50" on="1"/>
        <pt x="246" y="50" on="0"/>
        <pt x="281" y="72" on="1"/>
        <pt x="283" y="195" on="1"/>
        <pt x="149" y="185" on="0"/>
        <pt x="117" y="147" on="1"/>
        <pt x="116" y="142" on="0"/>
      </contour>
    </TTGlyph>
    <TTGlyph name="agrave" xMin="38" yMin="-8" xMax="422" yMax="688">
      <contour>
        <pt x="115" y="91" on="0"/>
        <pt x="161" y="57" on="0"/>
        <pt x="222" y="57" on="0"/>
        <pt x="273" y="74" on="1"/>
        <pt x="275" y="190" on="1"/>
        <pt x="147" y="183" on="0"/>
        <pt x="116" y="146" on="1"/>
        <pt x="115" y="141" on="0"/>
        <pt x="115" y="133" on="1"/>
      </contour>
      <contour>
        <pt x="274" y="30" on="1"/>
        <pt x="209" y="-8" on="0"/>
        <pt x="101" y="-8" on="0"/>
        <pt x="38" y="61" on="0"/>
        <pt x="38" y="168" on="0"/>
        <pt x="143" y="226" on="0"/>
        <pt x="275" y="234" on="1"/>
        <pt x="276" y="299" on="1"/>
        <pt x="277" y="344" on="0"/>
        <pt x="232" y="399" on="0"/>
        <pt x="154" y="399" on="0"/>
        <pt x="125" y="390" on="1"/>
        <pt x="117" y="314" on="1"/>
        <pt x="93" y="307" on="1"/>
        <pt x="38" y="385" on="1"/>
        <pt x="60" y="410" on="0"/>
        <pt x="148" y="458" on="0"/>
        <pt x="209" y="458" on="1"/>
        <pt x="358" y="458" on="0"/>
        <pt x="358" y="277" on="1"/>
        <pt x="353" y="54" on="1"/>
        <pt x="422" y="30" on="1"/>
        <pt x="416" y="8" on="1"/>
        <pt x="331" y="-8" on="1"/>
        <pt x="311" y="0" on="1"/>
        <pt x="279" y="28" on="1"/>
      </contour>
      <contour>
        <pt x="297" y="552" on="1"/>
        <pt x="86" y="629" on="1"/>
        <pt x="129" y="684" on="1"/>
        <pt x="149" y="688" on="1"/>
        <pt x="310" y="572" on="1"/>
      </contour>
    </TTGlyph>
    <TTGlyph name="ampersand" xMin="42" yMin="-40" xMax="656" yMax="658">
      <contour>
        <pt x="453" y="115" on="1"/>
        <pt x="481" y="147" on="0"/>
        <pt x="481" y="232" on="0"/>
        <pt x="432" y="303" on="0"/>
        <pt x="398" y="311" on="1"/>
        <pt x="387" y="323" on="1"/>
        <pt x="399" y="362" on="1"/>
        <pt x="503" y="362" on="0"/>
        <pt x="610" y="368" on="1"/>
        <pt x="645" y="370" on="1"/>
        <pt x="656" y="358" on="1"/>
        <pt x="645" y="306" on="1"/>
        <pt x="561" y="308" on="0"/>
        <pt x="490" y="309" on="1"/>
        <pt x="544" y="258" on="0"/>
        <pt x="541" y="130" on="0"/>
        <pt x="487" y="77" on="1"/>
        <pt x="520" y="43" on="0"/>
        <pt x="566" y="24" on="0"/>
        <pt x="600" y="24" on="0"/>
        <pt x="612" y="26" on="1"/>
        <pt x="614" y="0" on="1"/>
        <pt x="516" y="-40" on="1"/>
        <pt x="476" y="-21" on="0"/>
        <pt x="425" y="33" on="1"/>
        <pt x="349" y="-8" on="0"/>
        <pt x="166" y="-8" on="0"/>
        <pt x="42" y="74" on="0"/>
        <pt x="42" y="151" on="1"/>
        <pt x="42" y="209" on="0"/>
        <pt x="111" y="298" on="0"/>
        <pt x="172" y="344" on="1"/>
        <pt x="127" y="403" on="0"/>
        <pt x="87" y="481" on="0"/>
        <pt x="87" y="521" on="1"/>
        <pt x="87" y="587" on="0"/>
        <pt x="187" y="658" on="0"/>
        <pt x="324" y="658" on="0"/>
        <pt x="368" y="626" on="1"/>
        <pt x="415" y="592" on="0"/>
        <pt x="415" y="531" on="1"/>
        <pt x="415" y="455" on="0"/>
        <pt x="324" y="387" on="1"/>
        <pt x="270" y="347" on="1"/>
        <pt x="364" y="228" on="1"/>
        <pt x="370" y="221" on="0"/>
        <pt x="403" y="178" on="0"/>
        <pt x="438" y="134" on="0"/>
      </contour>
      <contour>
        <pt x="126" y="119" on="0"/>
        <pt x="210" y="46" on="0"/>
        <pt x="277" y="46" on="1"/>
        <pt x="336" y="46" on="0"/>
        <pt x="390" y="70" on="1"/>
        <pt x="359" y="106" on="0"/>
        <pt x="288" y="196" on="1"/>
        <pt x="204" y="304" on="1"/>
        <pt x="176" y="283" on="0"/>
        <pt x="152" y="250" on="1"/>
        <pt x="126" y="212" on="0"/>
      </contour>
      <contour>
        <pt x="168" y="587" on="1"/>
        <pt x="156" y="571" on="0"/>
        <pt x="156" y="513" on="0"/>
        <pt x="196" y="442" on="0"/>
        <pt x="240" y="386" on="1"/>
        <pt x="291" y="428" on="1"/>
        <pt x="342" y="470" on="0"/>
        <pt x="342" y="515" on="1"/>
        <pt x="342" y="550" on="0"/>
        <pt x="318" y="575" on="1"/>
        <pt x="290" y="605" on="0"/>
        <pt x="196" y="605" on="0"/>
      </contour>
    </TTGlyph>
    <TTGlyph name="aring" xMin="38" yMin="-8" xMax="422" yMax="709">
      <contour>
        <pt x="115" y="91" on="0"/>
        <pt x="161" y="57" on="0"/>
        <pt x="222" y="57" on="0"/>
        <pt x="273" y="74" on="1"/>
        <pt x="275" y="190" on="1"/>
        <pt x="147" y="183" on="0"/>
        <pt x="116" y="146" on="1"/>
        <pt x="115" y="141" on="0"/>
        <pt x="115" y="133" on="1"/>
      </contour>
      <contour>
        <pt x="274" y="30" on="1"/>
        <pt x="209" y="-8" on="0"/>
        <pt x="101" y="-8" on="0"/>
        <pt x="38" y="61" on="0"/>
        <pt x="38" y="168" on="0"/>
        <pt x="143" y="226" on="0"/>
        <pt x="275" y="234" on="1"/>
        <pt x="276" y="299" on="1"/>
        <pt x="277" y="344" on="0"/>
        <pt x="232" y="399" on="0"/>
        <pt x="154" y="399" on="0"/>
        <pt x="125" y="390" on="1"/>
        <pt x="117" y="314" on="1"/>
        <pt x="93" y="307" on="1"/>
        <pt x="38" y="385" on="1"/>
        <pt x="60" y="410" on="0"/>
        <pt x="148" y="458" on="0"/>
        <pt x="209" y="458" on="1"/>
        <pt x="358" y="458" on="0"/>
        <pt x="358" y="277" on="1"/>
        <pt x="353" y="54" on="1"/>
        <pt x="422" y="30" on="1"/>
        <pt x="416" y="8" on="1"/>
        <pt x="331" y="-8" on="1"/>
        <pt x="311" y="0" on="1"/>
        <pt x="279" y="28" on="1"/>
      </contour>
      <contour>
        <pt x="159" y="626" on="1"/>
        <pt x="159" y="573" on="0"/>
        <pt x="202" y="573" on="1"/>
        <pt x="215" y="573" on="0"/>
        <pt x="222" y="578" on="1"/>
        <pt x="237" y="589" on="0"/>
        <pt x="237" y="620" on="1"/>
        <pt x="237" y="673" on="0"/>
        <pt x="194" y="673" on="1"/>
        <pt x="181" y="673" on="0"/>
        <pt x="174" y="668" on="1"/>
        <pt x="159" y="657" on="0"/>
      </contour>
      <contour>
        <pt x="153" y="537" on="0"/>
        <pt x="102" y="583" on="0"/>
        <pt x="102" y="662" on="0"/>
        <pt x="157" y="709" on="0"/>
        <pt x="242" y="709" on="0"/>
        <pt x="294" y="662" on="0"/>
        <pt x="294" y="584" on="0"/>
        <pt x="238" y="537" on="0"/>
      </contour>
    </TTGlyph>
    <TTGlyph name="asciicircum" xMin="40" yMin="388" xMax="410" yMax="658">
      <contour>
        <pt x="40" y="413" on="1"/>
        <pt x="203" y="658" on="1"/>
        <pt x="245" y="658" on="1"/>
        <pt x="410" y="415" on="1"/>
        <pt x="376" y="389" on="1"/>
        <pt x="225" y="561" on="1"/>
        <pt x="74" y="388" on="1"/>
      </contour>
    </TTGlyph>
    <TTGlyph name="asciitilde" xMin="60" yMin="261" xMax="506" yMax="394">
      <contour>
        <pt x="334" y="332" on="1"/>
        <pt x="376" y="302" on="0"/>
        <pt x="386" y="300" on="1"/>
        <pt x="404" y="304" on="0"/>
        <pt x="438" y="351" on="0"/>
        <pt x="449" y="387" on="1"/>
        <pt x="497" y="373" on="1"/>
        <pt x="506" y="352" on="1"/>
        <pt x="490" y="317" on="0"/>
        <pt x="458" y="292" on="1"/>
        <pt x="422" y="262" on="0"/>
        <pt x="325" y="262" on="0"/>
        <pt x="262" y="303" on="1"/>
        <pt x="232" y="322" on="0"/>
        <pt x="216" y="334" on="1"/>
        <pt x="190" y="353" on="0"/>
        <pt x="180" y="355" on="1"/>
        <pt x="162" y="351" on="0"/>
        <pt x="128" y="304" on="0"/>
        <pt x="117" y="268" on="1"/>
        <pt x="69" y="282" on="1"/>
        <pt x="60" y="303" on="1"/>
        <pt x="75" y="337" on="0"/>
        <pt x="106" y="364" on="1"/>
        <pt x="142" y="393" on="0"/>
        <pt x="247" y="393" on="0"/>
      </contour>
    </TTGlyph>
    <TTGlyph name="asterisk" xMin="37" yMin="341" xMax="406" yMax="688">
      <contour>
        <pt x="203" y="688" on="1"/>
        <pt x="240" y="688" on="1"/>
        <pt x="255" y="546" on="1"/>
        <pt x="393" y="578" on="1"/>
        <pt x="406" y="545" on="1"/>
        <pt x="274" y="484" on="1"/>
        <pt x="347" y="362" on="1"/>
        <pt x="318" y="341" on="1"/>
        <pt x="222" y="446" on="1"/>
        <pt x="125" y="341" on="1"/>
        <pt x="96" y="362" on="1"/>
        <pt x="169" y="484" on="1"/>
        <pt x="37" y="545" on="1"/>
        <pt x="50" y="578" on="1"/>
        <pt x="188" y="546" on="1"/>
      </contour>
    </TTGlyph>
    <TTGlyph name="at" xMin="40" yMin="-233" xMax="944" yMax="678">
      <contour>
        <pt x="692" y="450" on="1"/>
        <pt x="654" y="106" on="0"/>
        <pt x="654" y="68" on="0"/>
        <pt x="688" y="39" on="0"/>
        <pt x="717" y="39" on="1"/>
        <pt x="785" y="39" on="0"/>
        <pt x="860" y="181" on="0"/>
        <pt x="860" y="282" on="1"/>
        <pt x="860" y="433" on="0"/>
        <pt x="688" y="622" on="0"/>
        <pt x="539" y="622" on="1"/>
        <pt x="365" y="622" on="0"/>
        <pt x="127" y="374" on="0"/>
        <pt x="127" y="175" on="1"/>
        <pt x="127" y="7" on="0"/>
        <pt x="304" y="-176" on="0"/>
        <pt x="446" y="-176" on="1"/>
        <pt x="563" y="-176" on="0"/>
        <pt x="671" y="-120" on="1"/>
        <pt x="686" y="-149" on="1"/>
        <pt x="670" y="-162" on="0"/>
        <pt x="620" y="-192" on="0"/>
        <pt x="492" y="-233" on="0"/>
        <pt x="372" y="-233" on="0"/>
        <pt x="269" y="-209" on="0"/>
        <pt x="166" y="-152" on="0"/>
        <pt x="88" y="-65" on="0"/>
        <pt x="40" y="72" on="0"/>
        <pt x="40" y="253" on="0"/>
        <pt x="98" y="420" on="0"/>
        <pt x="199" y="543" on="0"/>
        <pt x="266" y="588" on="1"/>
        <pt x="398" y="678" on="0"/>
        <pt x="734" y="678" on="0"/>
        <pt x="944" y="471" on="0"/>
        <pt x="944" y="298" on="1"/>
        <pt x="944" y="217" on="0"/>
        <pt x="895" y="92" on="0"/>
        <pt x="856" y="58" on="1"/>
        <pt x="777" y="-8" on="0"/>
        <pt x="694" y="-8" on="1"/>
        <pt x="651" y="-8" on="0"/>
        <pt x="593" y="29" on="0"/>
        <pt x="583" y="60" on="1"/>
        <pt x="555" y="32" on="0"/>
        <pt x="472" y="-8" on="0"/>
        <pt x="431" y="-8" on="1"/>
        <pt x="363" y="-8" on="0"/>
        <pt x="293" y="101" on="0"/>
        <pt x="293" y="185" on="1"/>
        <pt x="293" y="298" on="0"/>
        <pt x="415" y="458" on="0"/>
        <pt x="525" y="458" on="1"/>
        <pt x="580" y="458" on="0"/>
        <pt x="634" y="445" on="1"/>
        <pt x="673" y="458" on="1"/>
      </contour>
      <contour>
        <pt x="607" y="380" on="1"/>
        <pt x="567" y="399" on="0"/>
        <pt x="473" y="399" on="0"/>
        <pt x="430" y="384" on="1"/>
        <pt x="403" y="354" on="0"/>
        <pt x="376" y="252" on="0"/>
        <pt x="376" y="127" on="0"/>
        <pt x="428" y="56" on="0"/>
        <pt x="471" y="56" on="1"/>
        <pt x="529" y="56" on="0"/>
        <pt x="577" y="106" on="1"/>
      </contour>
    </TTGlyph>
    <TTGlyph name="atilde" xMin="38" yMin="-8" xMax="422" yMax="683">
      <contour>
        <pt x="115" y="91" on="0"/>
        <pt x="161" y="57" on="0"/>
        <pt x="222" y="57" on="0"/>
        <pt x="273" y="74" on="1"/>
        <pt x="275" y="190" on="1"/>
        <pt x="147" y="183" on="0"/>
        <pt x="116" y="146" on="1"/>
        <pt x="115" y="141" on="0"/>
        <pt x="115" y="133" on="1"/>
      </contour>
      <contour>
        <pt x="274" y="30" on="1"/>
        <pt x="209" y="-8" on="0"/>
        <pt x="101" y="-8" on="0"/>
        <pt x="38" y="61" on="0"/>
        <pt x="38" y="168" on="0"/>
        <pt x="143" y="226" on="0"/>
        <pt x="275" y="234" on="1"/>
        <pt x="276" y="299" on="1"/>
        <pt x="277" y="344" on="0"/>
        <pt x="232" y="399" on="0"/>
        <pt x="154" y="399" on="0"/>
        <pt x="125" y="390" on="1"/>
        <pt x="117" y="314" on="1"/>
        <pt x="93" y="307" on="1"/>
        <pt x="38" y="385" on="1"/>
        <pt x="60" y="410" on="0"/>
        <pt x="148" y="458" on="0"/>
        <pt x="209" y="458" on="1"/>
        <pt x="358" y="458" on="0"/>
        <pt x="358" y="277" on="1"/>
        <pt x="353" y="54" on="1"/>
        <pt x="422" y="30" on="1"/>
        <pt x="416" y="8" on="1"/>
        <pt x="331" y="-8" on="1"/>
        <pt x="311" y="0" on="1"/>
        <pt x="279" y="28" on="1"/>
      </contour>
      <contour>
        <pt x="290" y="631" on="1"/>
        <pt x="290" y="631" on="0"/>
        <pt x="291" y="631" on="1"/>
        <pt x="346" y="678" on="1"/>
        <pt x="363" y="667" on="1"/>
        <pt x="311" y="568" on="1"/>
        <pt x="291" y="563" on="1"/>
        <pt x="265" y="563" on="0"/>
        <pt x="133" y="615" on="0"/>
        <pt x="116" y="615" on="1"/>
        <pt x="116" y="615" on="0"/>
        <pt x="115" y="615" on="1"/>
        <pt x="60" y="568" on="1"/>
        <pt x="43" y="579" on="1"/>
        <pt x="95" y="678" on="1"/>
        <pt x="115" y="683" on="1"/>
        <pt x="141" y="683" on="0"/>
        <pt x="273" y="631" on="0"/>
      </contour>
    </TTGlyph>
    <TTGlyph name="b" xMin="-11" yMin="-8" xMax="464" yMax="688">
      <contour>
        <pt x="144" y="420" on="1"/>
        <pt x="209" y="458" on="0"/>
        <pt x="371" y="458" on="0"/>
        <pt x="464" y="324" on="0"/>
        <pt x="464" y="113" on="0"/>
        <pt x="337" y="-8" on="0"/>
        <pt x="239" y="-8" on="1"/>
        <pt x="198" y="-8" on="0"/>
        <pt x="89" y="11" on="0"/>
        <pt x="65" y="23" on="1"/>
        <pt x="65" y="608" on="1"/>
        <pt x="-5" y="619" on="1"/>
        <pt x="-11" y="641" on="1"/>
        <pt x="124" y="688" on="1"/>
        <pt x="144" y="680" on="1"/>
      </contour>
      <contour>
        <pt x="146" y="70" on="1"/>
        <pt x="186" y="56" on="0"/>
        <pt x="303" y="56" on="0"/>
        <pt x="342" y="71" on="1"/>
        <pt x="379" y="120" on="0"/>
        <pt x="379" y="214" on="1"/>
        <pt x="379" y="389" on="0"/>
        <pt x="247" y="389" on="1"/>
        <pt x="198" y="389" on="0"/>
        <pt x="146" y="376" on="1"/>
      </contour>
    </TTGlyph>
    <TTGlyph name="backslash" xMin="23" yMin="-31" xMax="385" yMax="709">
      <contour>
        <pt x="73" y="709" on="1"/>
        <pt x="89" y="701" on="1"/>
        <pt x="130" y="602" on="0"/>
        <pt x="188" y="462" on="1"/>
        <pt x="312" y="161" on="0"/>
        <pt x="385" y="-8" on="1"/>
        <pt x="335" y="-31" on="1"/>
        <pt x="319" y="-23" on="1"/>
        <pt x="39" y="650" on="0"/>
        <pt x="23" y="686" on="1"/>
      </contour>
    </TTGlyph>
    <TTGlyph name="bar" xMin="80" yMin="-108" xMax="147" yMax="728">
      <contour>
        <pt x="144" y="525" on="0"/>
        <pt x="144" y="118" on="0"/>
        <pt x="147" y="-98" on="1"/>
        <pt x="92" y="-108" on="1"/>
        <pt x="80" y="-97" on="1"/>
        <pt x="82" y="92" on="0"/>
        <pt x="82" y="499" on="0"/>
        <pt x="80" y="718" on="1"/>
        <pt x="135" y="728" on="1"/>
        <pt x="147" y="717" on="1"/>
      </contour>
    </TTGlyph>
    <TTGlyph name="braceleft" xMin="22" yMin="-168" xMax="287" yMax="758">
      <contour>
        <pt x="176" y="152" on="0"/>
        <pt x="158" y="5" on="0"/>
        <pt x="155" y="-40" on="0"/>
        <pt x="155" y="-85" on="0"/>
        <pt x="162" y="-98" on="1"/>
        <pt x="182" y="-109" on="0"/>
        <pt x="241" y="-109" on="0"/>
        <pt x="271" y="-101" on="1"/>
        <pt x="287" y="-146" on="1"/>
        <pt x="276" y="-165" on="1"/>
        <pt x="270" y="-168" on="0"/>
        <pt x="248" y="-168" on="1"/>
        <pt x="171" y="-168" on="0"/>
        <pt x="124" y="-108" on="1"/>
        <pt x="93" y="-68" on="0"/>
        <pt x="93" y="-2" on="1"/>
        <pt x="93" y="18" on="0"/>
        <pt x="113" y="175" on="0"/>
        <pt x="113" y="206" on="1"/>
        <pt x="113" y="219" on="0"/>
        <pt x="68" y="259" on="0"/>
        <pt x="45" y="273" on="1"/>
        <pt x="22" y="287" on="1"/>
        <pt x="22" y="303" on="1"/>
        <pt x="61" y="327" on="0"/>
        <pt x="113" y="371" on="0"/>
        <pt x="113" y="384" on="1"/>
        <pt x="113" y="415" on="0"/>
        <pt x="104" y="488" on="1"/>
        <pt x="93" y="572" on="0"/>
        <pt x="93" y="592" on="1"/>
        <pt x="93" y="657" on="0"/>
        <pt x="126" y="700" on="1"/>
        <pt x="171" y="758" on="0"/>
        <pt x="248" y="758" on="1"/>
        <pt x="270" y="758" on="0"/>
        <pt x="276" y="755" on="1"/>
        <pt x="287" y="736" on="1"/>
        <pt x="271" y="691" on="1"/>
        <pt x="241" y="699" on="0"/>
        <pt x="209" y="699" on="0"/>
        <pt x="182" y="698" on="0"/>
        <pt x="162" y="688" on="1"/>
        <pt x="155" y="675" on="0"/>
        <pt x="155" y="652" on="1"/>
        <pt x="155" y="607" on="0"/>
        <pt x="180" y="404" on="0"/>
        <pt x="180" y="374" on="0"/>
        <pt x="139" y="326" on="0"/>
        <pt x="117" y="310" on="1"/>
        <pt x="95" y="295" on="1"/>
        <pt x="101" y="292" on="0"/>
        <pt x="141" y="260" on="0"/>
        <pt x="152" y="248" on="1"/>
        <pt x="182" y="219" on="0"/>
        <pt x="180" y="195" on="1"/>
      </contour>
    </TTGlyph>
    <TTGlyph name="braceright" xMin="18" yMin="-168" xMax="283" yMax="758">
      <contour>
        <pt x="129" y="438" on="0"/>
        <pt x="147" y="585" on="0"/>
        <pt x="150" y="630" on="0"/>
        <pt x="150" y="675" on="0"/>
        <pt x="143" y="688" on="1"/>
        <pt x="121" y="699" on="0"/>
        <pt x="64" y="699" on="0"/>
        <pt x="34" y="691" on="1"/>
        <pt x="18" y="736" on="1"/>
        <pt x="29" y="755" on="1"/>
        <pt x="36" y="758" on="0"/>
        <pt x="58" y="758" on="1"/>
        <pt x="134" y="758" on="0"/>
        <pt x="181" y="698" on="1"/>
        <pt x="212" y="657" on="0"/>
        <pt x="212" y="592" on="1"/>
        <pt x="212" y="572" on="0"/>
        <pt x="192" y="415" on="0"/>
        <pt x="192" y="384" on="1"/>
        <pt x="192" y="371" on="0"/>
        <pt x="237" y="331" on="0"/>
        <pt x="260" y="317" on="1"/>
        <pt x="283" y="303" on="1"/>
        <pt x="283" y="287" on="1"/>
        <pt x="244" y="263" on="0"/>
        <pt x="192" y="219" on="0"/>
        <pt x="192" y="206" on="1"/>
        <pt x="192" y="175" on="0"/>
        <pt x="201" y="102" on="1"/>
        <pt x="212" y="18" on="0"/>
        <pt x="212" y="-2" on="1"/>
        <pt x="212" y="-68" on="0"/>
        <pt x="179" y="-110" on="1"/>
        <pt x="134" y="-168" on="0"/>
        <pt x="56" y="-168" on="1"/>
        <pt x="35" y="-168" on="0"/>
        <pt x="29" y="-165" on="1"/>
        <pt x="18" y="-146" on="1"/>
        <pt x="34" y="-101" on="1"/>
        <pt x="64" y="-109" on="0"/>
        <pt x="96" y="-109" on="0"/>
        <pt x="125" y="-108" on="0"/>
        <pt x="143" y="-98" on="1"/>
        <pt x="150" y="-85" on="0"/>
        <pt x="150" y="-62" on="1"/>
        <pt x="150" y="-17" on="0"/>
        <pt x="125" y="186" on="0"/>
        <pt x="125" y="216" on="0"/>
        <pt x="166" y="264" on="0"/>
        <pt x="188" y="280" on="1"/>
        <pt x="210" y="295" on="1"/>
        <pt x="204" y="298" on="0"/>
        <pt x="164" y="330" on="0"/>
        <pt x="152" y="342" on="1"/>
        <pt x="123" y="371" on="0"/>
        <pt x="125" y="395" on="1"/>
      </contour>
    </TTGlyph>
    <TTGlyph name="bracketleft" xMin="79" yMin="-168" xMax="270" yMax="758">
      <contour>
        <pt x="152" y="500" on="0"/>
        <pt x="152" y="90" on="0"/>
        <pt x="154" y="-115" on="1"/>
        <pt x="270" y="-124" on="1"/>
        <pt x="270" y="-160" on="1"/>
        <pt x="91" y="-168" on="1"/>
        <pt x="79" y="-157" on="1"/>
        <pt x="82" y="69" on="0"/>
        <pt x="82" y="521" on="0"/>
        <pt x="79" y="747" on="1"/>
        <pt x="91" y="758" on="1"/>
        <pt x="270" y="750" on="1"/>
        <pt x="270" y="714" on="1"/>
        <pt x="154" y="705" on="1"/>
      </contour>
    </TTGlyph>
    <TTGlyph name="bracketright" xMin="18" yMin="-168" xMax="209" yMax="758">
      <contour>
        <pt x="136" y="90" on="0"/>
        <pt x="136" y="500" on="0"/>
        <pt x="134" y="705" on="1"/>
        <pt x="18" y="714" on="1"/>
        <pt x="18" y="750" on="1"/>
        <pt x="197" y="758" on="1"/>
        <pt x="209" y="747" on="1"/>
        <pt x="206" y="521" on="0"/>
        <pt x="206" y="69" on="0"/>
        <pt x="209" y="-157" on="1"/>
        <pt x="197" y="-168" on="1"/>
        <pt x="18" y="-160" on="1"/>
        <pt x="18" y="-124" on="1"/>
        <pt x="134" y="-115" on="1"/>
      </contour>
    </TTGlyph>
    <TTGlyph name="brokenbar" xMin="77" yMin="-107" xMax="146" yMax="728">
      <contour>
        <pt x="146" y="-97" on="1"/>
        <pt x="89" y="-107" on="1"/>
        <pt x="77" y="-96" on="1"/>
        <pt x="85" y="199" on="0"/>
        <pt x="86" y="231" on="1"/>
        <pt x="126" y="241" on="1"/>
        <pt x="138" y="230" on="1"/>
        <pt x="140" y="129" on="0"/>
      </contour>
      <contour>
        <pt x="77" y="718" on="1"/>
        <pt x="134" y="728" on="1"/>
        <pt x="146" y="717" on="1"/>
        <pt x="138" y="422" on="0"/>
        <pt x="137" y="390" on="1"/>
        <pt x="98" y="380" on="1"/>
        <pt x="86" y="391" on="1"/>
        <pt x="85" y="454" on="0"/>
        <pt x="77" y="702" on="0"/>
      </contour>
    </TTGlyph>
    <TTGlyph name="bullet" xMin="76" yMin="227" xMax="259" yMax="410">
      <contour>
        <pt x="127" y="227" on="0"/>
        <pt x="76" y="278" on="0"/>
        <pt x="76" y="357" on="0"/>
        <pt x="128" y="410" on="0"/>
        <pt x="206" y="410" on="0"/>
        <pt x="259" y="357" on="0"/>
        <pt x="259" y="279" on="0"/>
        <pt x="206" y="227" on="0"/>
      </contour>
    </TTGlyph>
    <TTGlyph name="c" xMin="38" yMin="-8" xMax="409" yMax="458">
      <contour>
        <pt x="312" y="390" on="1"/>
        <pt x="290" y="396" on="0"/>
        <pt x="194" y="396" on="0"/>
        <pt x="160" y="379" on="1"/>
        <pt x="122" y="331" on="0"/>
        <pt x="122" y="153" on="0"/>
        <pt x="206" y="56" on="0"/>
        <pt x="338" y="56" on="0"/>
        <pt x="395" y="82" on="1"/>
        <pt x="409" y="56" on="1"/>
        <pt x="397" y="44" on="0"/>
        <pt x="363" y="19" on="0"/>
        <pt x="288" y="-8" on="0"/>
        <pt x="247" y="-8" on="1"/>
        <pt x="154" y="-8" on="0"/>
        <pt x="38" y="115" on="0"/>
        <pt x="38" y="335" on="0"/>
        <pt x="165" y="458" on="0"/>
        <pt x="256" y="458" on="1"/>
        <pt x="301" y="458" on="0"/>
        <pt x="371" y="424" on="0"/>
        <pt x="395" y="398" on="0"/>
        <pt x="402" y="385" on="1"/>
        <pt x="344" y="307" on="1"/>
        <pt x="320" y="314" on="1"/>
      </contour>
    </TTGlyph>
    <TTGlyph name="caron" xMin="40" yMin="558" xMax="320" yMax="688">
      <contour>
        <pt x="160" y="558" on="1"/>
        <pt x="40" y="669" on="1"/>
        <pt x="59" y="688" on="1"/>
        <pt x="180" y="629" on="1"/>
        <pt x="301" y="688" on="1"/>
        <pt x="320" y="669" on="1"/>
        <pt x="200" y="558" on="1"/>
      </contour>
    </TTGlyph>
    <TTGlyph name="ccedilla" xMin="38" yMin="-238" xMax="409" yMax="458">
      <contour>
        <pt x="163" y="-187" on="1"/>
        <pt x="186" y="-196" on="0"/>
        <pt x="241" y="-196" on="0"/>
        <pt x="262" y="-189" on="1"/>
        <pt x="271" y="-175" on="0"/>
        <pt x="271" y="-154" on="1"/>
        <pt x="271" y="-99" on="0"/>
        <pt x="209" y="-99" on="1"/>
        <pt x="204" y="-99" on="0"/>
        <pt x="198" y="-99" on="1"/>
        <pt x="187" y="-86" on="1"/>
        <pt x="210" y="-5" on="1"/>
        <pt x="132" y="6" on="0"/>
        <pt x="38" y="126" on="0"/>
        <pt x="38" y="335" on="0"/>
        <pt x="165" y="458" on="0"/>
        <pt x="256" y="458" on="1"/>
        <pt x="301" y="458" on="0"/>
        <pt x="371" y="424" on="0"/>
        <pt x="395" y="398" on="0"/>
        <pt x="402" y="385" on="1"/>
        <pt x="344" y="307" on="1"/>
        <pt x="320" y="314" on="1"/>
        <pt x="312" y="390" on="1"/>
        <pt x="290" y="396" on="0"/>
        <pt x="194" y="396" on="0"/>
        <pt x="160" y="379" on="1"/>
        <pt x="122" y="331" on="0"/>
        <pt x="122" y="153" on="0"/>
        <pt x="206" y="56" on="0"/>
        <pt x="338" y="56" on="0"/>
        <pt x="395" y="82" on="1"/>
        <pt x="409" y="56" on="1"/>
        <pt x="397" y="44" on="0"/>
        <pt x="363" y="19" on="0"/>
        <pt x="288" y="-8" on="0"/>
        <pt x="247" y="-8" on="1"/>
        <pt x="246" y="-8" on="1"/>
        <pt x="243" y="-68" on="1"/>
        <pt x="280" y="-70" on="0"/>
        <pt x="330" y="-112" on="0"/>
        <pt x="330" y="-185" on="0"/>
        <pt x="265" y="-238" on="0"/>
        <pt x="176" y="-238" on="0"/>
        <pt x="160" y="-230" on="1"/>
        <pt x="153" y="-220" on="1"/>
      </contour>
    </TTGlyph>
    <TTGlyph name="cedilla" xMin="90" yMin="-238" xMax="267" yMax="18">
      <contour>
        <pt x="100" y="-187" on="1"/>
        <pt x="123" y="-196" on="0"/>
        <pt x="178" y="-196" on="0"/>
        <pt x="199" y="-189" on="1"/>
        <pt x="208" y="-175" on="0"/>
        <pt x="208" y="-154" on="1"/>
        <pt x="208" y="-99" on="0"/>
        <pt x="146" y="-99" on="1"/>
        <pt x="141" y="-99" on="0"/>
        <pt x="135" y="-99" on="1"/>
        <pt x="124" y="-86" on="1"/>
        <pt x="154" y="18" on="1"/>
        <pt x="185" y="18" on="1"/>
        <pt x="180" y="-68" on="1"/>
        <pt x="217" y="-70" on="0"/>
        <pt x="267" y="-112" on="0"/>
        <pt x="267" y="-185" on="0"/>
        <pt x="202" y="-238" on="0"/>
        <pt x="113" y="-238" on="0"/>
        <pt x="97" y="-230" on="1"/>
        <pt x="90" y="-220" on="1"/>
      </contour>
    </TTGlyph>
    <TTGlyph name="cent" xMin="41" yMin="-35" xMax="385" yMax="666">
      <contour>
        <pt x="290" y="472" on="1"/>
        <pt x="273" y="477" on="0"/>
        <pt x="185" y="477" on="0"/>
        <pt x="153" y="462" on="1"/>
        <pt x="118" y="411" on="0"/>
        <pt x="118" y="253" on="0"/>
        <pt x="194" y="165" on="0"/>
        <pt x="312" y="165" on="0"/>
        <pt x="367" y="188" on="1"/>
        <pt x="381" y="165" on="1"/>
        <pt x="332" y="113" on="0"/>
        <pt x="245" y="108" on="1"/>
        <pt x="259" y="-25" on="1"/>
        <pt x="199" y="-35" on="1"/>
        <pt x="187" y="-24" on="1"/>
        <pt x="200" y="110" on="1"/>
        <pt x="127" y="120" on="0"/>
        <pt x="41" y="228" on="0"/>
        <pt x="41" y="409" on="0"/>
        <pt x="131" y="517" on="0"/>
        <pt x="202" y="529" on="1"/>
        <pt x="189" y="656" on="1"/>
        <pt x="249" y="666" on="1"/>
        <pt x="261" y="655" on="1"/>
        <pt x="248" y="532" on="1"/>
        <pt x="287" y="531" on="0"/>
        <pt x="320" y="516" on="1"/>
        <pt x="371" y="494" on="0"/>
        <pt x="385" y="468" on="1"/>
        <pt x="320" y="385" on="1"/>
        <pt x="299" y="391" on="1"/>
      </contour>
    </TTGlyph>
    <TTGlyph name="circumflex" xMin="40" yMin="558" xMax="320" yMax="688">
      <contour>
        <pt x="40" y="577" on="1"/>
        <pt x="160" y="688" on="1"/>
        <pt x="200" y="688" on="1"/>
        <pt x="320" y="577" on="1"/>
        <pt x="301" y="558" on="1"/>
        <pt x="180" y="617" on="1"/>
        <pt x="59" y="558" on="1"/>
      </contour>
    </TTGlyph>
    <TTGlyph name="colon" xMin="59" yMin="-8" xMax="169" yMax="458">
      <contour>
        <pt x="90" y="348" on="0"/>
        <pt x="59" y="379" on="0"/>
        <pt x="59" y="426" on="0"/>
        <pt x="90" y="458" on="0"/>
        <pt x="137" y="458" on="0"/>
        <pt x="169" y="426" on="0"/>
        <pt x="169" y="379" on="0"/>
        <pt x="137" y="348" on="0"/>
      </contour>
      <contour>
        <pt x="90" y="-8" on="0"/>
        <pt x="59" y="23" on="0"/>
        <pt x="59" y="70" on="0"/>
        <pt x="90" y="102" on="0"/>
        <pt x="137" y="102" on="0"/>
        <pt x="169" y="70" on="0"/>
        <pt x="169" y="23" on="0"/>
        <pt x="137" y="-8" on="0"/>
      </contour>
    </TTGlyph>
    <TTGlyph name="comma" xMin="43" yMin="-127" xMax="161" yMax="103">
      <contour>
        <pt x="140" y="90" on="0"/>
        <pt x="161" y="39" on="0"/>
        <pt x="161" y="-30" on="0"/>
        <pt x="102" y="-104" on="0"/>
        <pt x="59" y="-127" on="1"/>
        <pt x="43" y="-109" on="1"/>
        <pt x="100" y="-64" on="0"/>
        <pt x="100" y="26" on="0"/>
        <pt x="54" y="57" on="1"/>
        <pt x="51" y="77" on="1"/>
        <pt x="107" y="103" on="1"/>
        <pt x="127" y="103" on="1"/>
      </contour>
    </TTGlyph>
    <TTGlyph name="copyright" xMin="43" yMin="-39" xMax="767" yMax="689">
      <contour>
        <pt x="245" y="-39" on="0"/>
        <pt x="43" y="153" on="0"/>
        <pt x="43" y="491" on="0"/>
        <pt x="253" y="689" on="0"/>
        <pt x="565" y="689" on="0"/>
        <pt x="767" y="497" on="0"/>
        <pt x="767" y="160" on="0"/>
        <pt x="558" y="-39" on="0"/>
      </contour>
      <contour>
        <pt x="273" y="633" on="0"/>
        <pt x="121" y="469" on="0"/>
        <pt x="121" y="183" on="0"/>
        <pt x="279" y="17" on="0"/>
        <pt x="538" y="17" on="0"/>
        <pt x="689" y="181" on="0"/>
        <pt x="689" y="467" on="0"/>
        <pt x="532" y="633" on="0"/>
      </contour>
      <contour>
        <pt x="459" y="460" on="1"/>
        <pt x="439" y="465" on="0"/>
        <pt x="362" y="465" on="0"/>
        <pt x="337" y="451" on="1"/>
        <pt x="311" y="414" on="0"/>
        <pt x="311" y="341" on="1"/>
        <pt x="311" y="191" on="0"/>
        <pt x="432" y="191" on="1"/>
        <pt x="480" y="191" on="0"/>
        <pt x="531" y="209" on="1"/>
        <pt x="542" y="188" on="1"/>
        <pt x="529" y="171" on="0"/>
        <pt x="456" y="136" on="0"/>
        <pt x="409" y="136" on="1"/>
        <pt x="334" y="136" on="0"/>
        <pt x="235" y="235" on="0"/>
        <pt x="235" y="426" on="0"/>
        <pt x="342" y="520" on="0"/>
        <pt x="414" y="520" on="1"/>
        <pt x="451" y="520" on="0"/>
        <pt x="482" y="507" on="1"/>
        <pt x="534" y="486" on="0"/>
        <pt x="546" y="462" on="1"/>
        <pt x="487" y="387" on="1"/>
        <pt x="468" y="393" on="1"/>
      </contour>
    </TTGlyph>
    <TTGlyph name="currency" xMin="48" yMin="52" xMax="610" yMax="598">
      <contour>
        <pt x="144" y="199" on="1"/>
        <pt x="112" y="252" on="0"/>
        <pt x="112" y="396" on="0"/>
        <pt x="145" y="448" on="1"/>
        <pt x="48" y="568" on="1"/>
        <pt x="74" y="598" on="1"/>
        <pt x="203" y="508" on="1"/>
        <pt x="261" y="548" on="0"/>
        <pt x="402" y="548" on="0"/>
        <pt x="457" y="510" on="1"/>
        <pt x="584" y="598" on="1"/>
        <pt x="610" y="568" on="1"/>
        <pt x="514" y="450" on="1"/>
        <pt x="546" y="397" on="0"/>
        <pt x="546" y="256" on="0"/>
        <pt x="512" y="201" on="1"/>
        <pt x="610" y="82" on="1"/>
        <pt x="584" y="52" on="1"/>
        <pt x="454" y="141" on="1"/>
        <pt x="395" y="102" on="0"/>
        <pt x="255" y="102" on="0"/>
        <pt x="201" y="139" on="1"/>
        <pt x="74" y="52" on="1"/>
        <pt x="48" y="82" on="1"/>
      </contour>
      <contour>
        <pt x="236" y="464" on="1"/>
        <pt x="197" y="415" on="0"/>
        <pt x="197" y="257" on="0"/>
        <pt x="273" y="166" on="0"/>
        <pt x="339" y="166" on="1"/>
        <pt x="384" y="166" on="0"/>
        <pt x="422" y="186" on="1"/>
        <pt x="461" y="235" on="0"/>
        <pt x="461" y="393" on="0"/>
        <pt x="385" y="484" on="0"/>
        <pt x="319" y="484" on="1"/>
        <pt x="274" y="484" on="0"/>
      </contour>
    </TTGlyph>
    <TTGlyph name="d" xMin="38" yMin="-8" xMax="506" yMax="688">
      <contour>
        <pt x="358" y="30" on="1"/>
        <pt x="293" y="-8" on="0"/>
        <pt x="131" y="-8" on="0"/>
        <pt x="38" y="126" on="0"/>
        <pt x="38" y="337" on="0"/>
        <pt x="165" y="458" on="0"/>
        <pt x="263" y="458" on="1"/>
        <pt x="306" y="458" on="0"/>
        <pt x="342" y="452" on="1"/>
        <pt x="356" y="449" on="1"/>
        <pt x="356" y="608" on="1"/>
        <pt x="286" y="619" on="1"/>
        <pt x="280" y="641" on="1"/>
        <pt x="417" y="688" on="1"/>
        <pt x="437" y="680" on="1"/>
        <pt x="437" y="54" on="1"/>
        <pt x="506" y="22" on="1"/>
        <pt x="500" y="0" on="1"/>
        <pt x="405" y="-8" on="1"/>
        <pt x="391" y="-2" on="1"/>
        <pt x="362" y="28" on="1"/>
      </contour>
      <contour>
        <pt x="356" y="380" on="1"/>
        <pt x="316" y="394" on="0"/>
        <pt x="199" y="394" on="0"/>
        <pt x="160" y="379" on="1"/>
        <pt x="123" y="330" on="0"/>
        <pt x="123" y="236" on="1"/>
        <pt x="123" y="61" on="0"/>
        <pt x="255" y="61" on="1"/>
        <pt x="304" y="61" on="0"/>
        <pt x="356" y="74" on="1"/>
      </contour>
    </TTGlyph>
    <TTGlyph name="dagger" xMin="26" yMin="-201" xMax="448" yMax="629">
      <contour>
        <pt x="448" y="420" on="1"/>
        <pt x="437" y="348" on="1"/>
        <pt x="423" y="349" on="0"/>
        <pt x="390" y="353" on="1"/>
        <pt x="304" y="364" on="0"/>
        <pt x="267" y="365" on="1"/>
        <pt x="271" y="286" on="0"/>
        <pt x="282" y="188" on="1"/>
        <pt x="267" y="30" on="0"/>
        <pt x="255" y="-201" on="1"/>
        <pt x="214" y="-201" on="1"/>
        <pt x="202" y="40" on="0"/>
        <pt x="186" y="189" on="1"/>
        <pt x="198" y="269" on="0"/>
        <pt x="205" y="365" on="1"/>
        <pt x="148" y="362" on="0"/>
        <pt x="40" y="350" on="1"/>
        <pt x="26" y="364" on="1"/>
        <pt x="37" y="436" on="1"/>
        <pt x="157" y="421" on="0"/>
        <pt x="205" y="419" on="1"/>
        <pt x="205" y="424" on="0"/>
        <pt x="183" y="619" on="1"/>
        <pt x="275" y="629" on="1"/>
        <pt x="289" y="616" on="1"/>
        <pt x="269" y="459" on="0"/>
        <pt x="267" y="419" on="1"/>
        <pt x="334" y="422" on="0"/>
        <pt x="434" y="436" on="1"/>
      </contour>
    </TTGlyph>
    <TTGlyph name="daggerdbl" xMin="38" yMin="-196" xMax="460" yMax="629">
      <contour>
        <pt x="460" y="420" on="1"/>
        <pt x="449" y="348" on="1"/>
        <pt x="435" y="349" on="0"/>
        <pt x="402" y="353" on="1"/>
        <pt x="316" y="364" on="0"/>
        <pt x="279" y="365" on="1"/>
        <pt x="284" y="302" on="0"/>
        <pt x="297" y="224" on="1"/>
        <pt x="284" y="138" on="0"/>
        <pt x="279" y="83" on="1"/>
        <pt x="346" y="86" on="0"/>
        <pt x="446" y="100" on="1"/>
        <pt x="460" y="84" on="1"/>
        <pt x="449" y="12" on="1"/>
        <pt x="435" y="13" on="0"/>
        <pt x="402" y="17" on="1"/>
        <pt x="316" y="28" on="0"/>
        <pt x="279" y="29" on="1"/>
        <pt x="285" y="-72" on="0"/>
        <pt x="303" y="-186" on="1"/>
        <pt x="211" y="-196" on="1"/>
        <pt x="197" y="-183" on="1"/>
        <pt x="211" y="-71" on="0"/>
        <pt x="217" y="29" on="1"/>
        <pt x="160" y="26" on="0"/>
        <pt x="52" y="14" on="1"/>
        <pt x="38" y="28" on="1"/>
        <pt x="49" y="100" on="1"/>
        <pt x="169" y="85" on="0"/>
        <pt x="217" y="83" on="1"/>
        <pt x="213" y="154" on="0"/>
        <pt x="201" y="225" on="1"/>
        <pt x="213" y="294" on="0"/>
        <pt x="217" y="365" on="1"/>
        <pt x="160" y="362" on="0"/>
        <pt x="52" y="350" on="1"/>
        <pt x="38" y="364" on="1"/>
        <pt x="49" y="436" on="1"/>
        <pt x="169" y="421" on="0"/>
        <pt x="217" y="419" on="1"/>
        <pt x="217" y="424" on="0"/>
        <pt x="195" y="619" on="1"/>
        <pt x="287" y="629" on="1"/>
        <pt x="301" y="616" on="1"/>
        <pt x="281" y="459" on="0"/>
        <pt x="279" y="419" on="1"/>
        <pt x="346" y="422" on="0"/>
        <pt x="446" y="436" on="1"/>
      </contour>
    </TTGlyph>
    <TTGlyph name="degree" xMin="43" yMin="410" xMax="293" yMax="658">
      <contour>
        <pt x="110" y="538" on="1"/>
        <pt x="110" y="457" on="0"/>
        <pt x="173" y="457" on="1"/>
        <pt x="190" y="457" on="0"/>
        <pt x="206" y="463" on="1"/>
        <pt x="226" y="483" on="0"/>
        <pt x="226" y="530" on="1"/>
        <pt x="226" y="611" on="0"/>
        <pt x="163" y="611" on="1"/>
        <pt x="146" y="611" on="0"/>
        <pt x="130" y="605" on="1"/>
        <pt x="110" y="585" on="0"/>
      </contour>
      <contour>
        <pt x="107" y="410" on="0"/>
        <pt x="43" y="480" on="0"/>
        <pt x="43" y="593" on="0"/>
        <pt x="113" y="658" on="0"/>
        <pt x="228" y="658" on="0"/>
        <pt x="293" y="587" on="0"/>
        <pt x="293" y="477" on="0"/>
        <pt x="223" y="410" on="0"/>
      </contour>
    </TTGlyph>
    <TTGlyph name="dieresis" xMin="34" yMin="562" xMax="342" yMax="672">
      <contour>
        <pt x="65" y="562" on="0"/>
        <pt x="34" y="593" on="0"/>
        <pt x="34" y="640" on="0"/>
        <pt x="65" y="672" on="0"/>
        <pt x="112" y="672" on="0"/>
        <pt x="144" y="640" on="0"/>
        <pt x="144" y="593" on="0"/>
        <pt x="112" y="562" on="0"/>
      </contour>
      <contour>
        <pt x="263" y="562" on="0"/>
        <pt x="232" y="593" on="0"/>
        <pt x="232" y="640" on="0"/>
        <pt x="263" y="672" on="0"/>
        <pt x="310" y="672" on="0"/>
        <pt x="342" y="640" on="0"/>
        <pt x="342" y="593" on="0"/>
        <pt x="310" y="562" on="0"/>
      </contour>
    </TTGlyph>
    <TTGlyph name="divide" xMin="47" yMin="120" xMax="475" yMax="531">
      <contour>
        <pt x="47" y="309" on="1"/>
        <pt x="59" y="354" on="1"/>
        <pt x="464" y="356" on="1"/>
        <pt x="475" y="344" on="1"/>
        <pt x="464" y="295" on="1"/>
        <pt x="89" y="297" on="0"/>
        <pt x="58" y="297" on="1"/>
      </contour>
      <contour>
        <pt x="238" y="427" on="0"/>
        <pt x="209" y="456" on="0"/>
        <pt x="209" y="501" on="0"/>
        <pt x="239" y="531" on="0"/>
        <pt x="283" y="531" on="0"/>
        <pt x="313" y="501" on="0"/>
        <pt x="313" y="457" on="0"/>
        <pt x="283" y="427" on="0"/>
      </contour>
      <contour>
        <pt x="209" y="150" on="0"/>
        <pt x="209" y="194" on="0"/>
        <pt x="239" y="224" on="0"/>
        <pt x="283" y="224" on="0"/>
        <pt x="313" y="194" on="0"/>
        <pt x="313" y="150" on="0"/>
        <pt x="283" y="120" on="0"/>
        <pt x="238" y="120" on="0"/>
      </contour>
    </TTGlyph>
    <TTGlyph name="dollar" xMin="30" yMin="-87" xMax="429" yMax="735">
      <contour>
        <pt x="319" y="540" on="1"/>
        <pt x="294" y="554" on="0"/>
        <pt x="164" y="554" on="0"/>
        <pt x="136" y="521" on="1"/>
        <pt x="123" y="505" on="0"/>
        <pt x="123" y="481" on="1"/>
        <pt x="123" y="418" on="0"/>
        <pt x="189" y="396" on="1"/>
        <pt x="301" y="358" on="1"/>
        <pt x="367" y="336" on="0"/>
        <pt x="429" y="246" on="0"/>
        <pt x="429" y="200" on="1"/>
        <pt x="429" y="130" on="0"/>
        <pt x="372" y="88" on="1"/>
        <pt x="326" y="55" on="0"/>
        <pt x="259" y="48" on="1"/>
        <pt x="272" y="-77" on="1"/>
        <pt x="212" y="-87" on="1"/>
        <pt x="200" y="-76" on="1"/>
        <pt x="213" y="47" on="1"/>
        <pt x="148" y="50" on="0"/>
        <pt x="53" y="99" on="0"/>
        <pt x="30" y="126" on="1"/>
        <pt x="89" y="221" on="1"/>
        <pt x="113" y="215" on="1"/>
        <pt x="117" y="133" on="1"/>
        <pt x="162" y="105" on="0"/>
        <pt x="235" y="105" on="1"/>
        <pt x="338" y="105" on="0"/>
        <pt x="349" y="173" on="1"/>
        <pt x="350" y="180" on="0"/>
        <pt x="350" y="186" on="1"/>
        <pt x="350" y="246" on="0"/>
        <pt x="258" y="275" on="1"/>
        <pt x="149" y="312" on="1"/>
        <pt x="101" y="328" on="0"/>
        <pt x="48" y="403" on="0"/>
        <pt x="48" y="454" on="1"/>
        <pt x="48" y="523" on="0"/>
        <pt x="141" y="601" on="0"/>
        <pt x="210" y="608" on="1"/>
        <pt x="199" y="725" on="1"/>
        <pt x="259" y="735" on="1"/>
        <pt x="271" y="724" on="1"/>
        <pt x="260" y="609" on="1"/>
        <pt x="347" y="604" on="0"/>
        <pt x="415" y="539" on="1"/>
        <pt x="352" y="448" on="1"/>
        <pt x="329" y="455" on="1"/>
      </contour>
    </TTGlyph>
    <TTGlyph name="dotaccent" xMin="34" yMin="568" xMax="144" yMax="678">
      <contour>
        <pt x="65" y="568" on="0"/>
        <pt x="34" y="599" on="0"/>
        <pt x="34" y="646" on="0"/>
        <pt x="65" y="678" on="0"/>
        <pt x="112" y="678" on="0"/>
        <pt x="144" y="646" on="0"/>
        <pt x="144" y="599" on="0"/>
        <pt x="112" y="568" on="0"/>
      </contour>
    </TTGlyph>
    <TTGlyph name="dotlessi" xMin="24" yMin="0" xMax="260" yMax="458">
      <contour>
        <pt x="100" y="79" on="1"/>
        <pt x="100" y="378" on="1"/>
        <pt x="30" y="389" on="1"/>
        <pt x="24" y="411" on="1"/>
        <pt x="161" y="458" on="1"/>
        <pt x="181" y="450" on="1"/>
        <pt x="181" y="54" on="1"/>
        <pt x="260" y="22" on="1"/>
        <pt x="254" y="0" on="1"/>
        <pt x="30" y="0" on="1"/>
        <pt x="24" y="22" on="1"/>
        <pt x="69" y="41" on="1"/>
        <pt x="87" y="48" on="0"/>
        <pt x="100" y="64" on="0"/>
      </contour>
    </TTGlyph>
    <TTGlyph name="dotlessj" xMin="13" yMin="-238" xMax="170" yMax="458">
      <contour>
        <pt x="170" y="0" on="1"/>
        <pt x="170" y="-80" on="0"/>
        <pt x="93" y="-201" on="0"/>
        <pt x="27" y="-238" on="1"/>
        <pt x="13" y="-220" on="1"/>
        <pt x="89" y="-131" on="0"/>
        <pt x="89" y="-8" on="1"/>
        <pt x="89" y="378" on="1"/>
        <pt x="19" y="389" on="1"/>
        <pt x="13" y="411" on="1"/>
        <pt x="150" y="458" on="1"/>
        <pt x="170" y="450" on="1"/>
      </contour>
    </TTGlyph>
    <TTGlyph name="e" xMin="38" yMin="-8" xMax="418" yMax="458">
      <contour>
        <pt x="38" y="335" on="0"/>
        <pt x="164" y="458" on="0"/>
        <pt x="332" y="458" on="0"/>
        <pt x="418" y="359" on="0"/>
        <pt x="418" y="273" on="1"/>
        <pt x="418" y="240" on="1"/>
        <pt x="403" y="225" on="1"/>
        <pt x="123" y="225" on="1"/>
        <pt x="125" y="148" on="0"/>
        <pt x="207" y="56" on="0"/>
        <pt x="336" y="56" on="0"/>
        <pt x="395" y="82" on="1"/>
        <pt x="409" y="56" on="1"/>
        <pt x="397" y="44" on="0"/>
        <pt x="363" y="19" on="0"/>
        <pt x="288" y="-8" on="0"/>
        <pt x="247" y="-8" on="1"/>
        <pt x="154" y="-8" on="0"/>
        <pt x="38" y="115" on="0"/>
      </contour>
      <contour>
        <pt x="237" y="394" on="1"/>
        <pt x="190" y="394" on="0"/>
        <pt x="160" y="379" on="1"/>
        <pt x="148" y="364" on="0"/>
        <pt x="125" y="298" on="0"/>
        <pt x="124" y="268" on="1"/>
        <pt x="338" y="274" on="1"/>
        <pt x="338" y="394" on="0"/>
      </contour>
    </TTGlyph>
    <TTGlyph name="eacute" xMin="38" yMin="-8" xMax="418" yMax="695">
      <contour>
        <pt x="38" y="335" on="0"/>
        <pt x="164" y="458" on="0"/>
        <pt x="332" y="458" on="0"/>
        <pt x="418" y="359" on="0"/>
        <pt x="418" y="273" on="1"/>
        <pt x="418" y="240" on="1"/>
        <pt x="403" y="225" on="1"/>
        <pt x="123" y="225" on="1"/>
        <pt x="125" y="148" on="0"/>
        <pt x="207" y="56" on="0"/>
        <pt x="336" y="56" on="0"/>
        <pt x="395" y="82" on="1"/>
        <pt x="409" y="56" on="1"/>
        <pt x="397" y="44" on="0"/>
        <pt x="363" y="19" on="0"/>
        <pt x="288" y="-8" on="0"/>
        <pt x="247" y="-8" on="1"/>
        <pt x="154" y="-8" on="0"/>
        <pt x="38" y="115" on="0"/>
      </contour>
      <contour>
        <pt x="237" y="394" on="1"/>
        <pt x="190" y="394" on="0"/>
        <pt x="160" y="379" on="1"/>
        <pt x="148" y="364" on="0"/>
        <pt x="125" y="298" on="0"/>
        <pt x="124" y="268" on="1"/>
        <pt x="338" y="274" on="1"/>
        <pt x="338" y="394" on="0"/>
      </contour>
      <contour>
        <pt x="132" y="572" on="1"/>
        <pt x="304" y="695" on="1"/>
        <pt x="345" y="643" on="1"/>
        <pt x="341" y="623" on="1"/>
        <pt x="145" y="552" on="1"/>
      </contour>
    </TTGlyph>
    <TTGlyph name="ecircumflex" xMin="38" yMin="-8" xMax="418" yMax="688">
      <contour>
        <pt x="38" y="335" on="0"/>
        <pt x="164" y="458" on="0"/>
        <pt x="332" y="458" on="0"/>
        <pt x="418" y="359" on="0"/>
        <pt x="418" y="273" on="1"/>
        <pt x="418" y="240" on="1"/>
        <pt x="403" y="225" on="1"/>
        <pt x="123" y="225" on="1"/>
        <pt x="125" y="148" on="0"/>
        <pt x="207" y="56" on="0"/>
        <pt x="336" y="56" on="0"/>
        <pt x="395" y="82" on="1"/>
        <pt x="409" y="56" on="1"/>
        <pt x="397" y="44" on="0"/>
        <pt x="363" y="19" on="0"/>
        <pt x="288" y="-8" on="0"/>
        <pt x="247" y="-8" on="1"/>
        <pt x="154" y="-8" on="0"/>
        <pt x="38" y="115" on="0"/>
      </contour>
      <contour>
        <pt x="237" y="394" on="1"/>
        <pt x="190" y="394" on="0"/>
        <pt x="160" y="379" on="1"/>
        <pt x="148" y="364" on="0"/>
        <pt x="125" y="298" on="0"/>
        <pt x="124" y="268" on="1"/>
        <pt x="338" y="274" on="1"/>
        <pt x="338" y="394" on="0"/>
      </contour>
      <contour>
        <pt x="98" y="577" on="1"/>
        <pt x="218" y="688" on="1"/>
        <pt x="258" y="688" on="1"/>
        <pt x="378" y="577" on="1"/>
        <pt x="359" y="558" on="1"/>
        <pt x="238" y="617" on="1"/>
        <pt x="117" y="558" on="1"/>
      </contour>
    </TTGlyph>
    <TTGlyph name="edieresis" xMin="38" yMin="-8" xMax="418" yMax="672">
      <contour>
        <pt x="38" y="335" on="0"/>
        <pt x="164" y="458" on="0"/>
        <pt x="332" y="458" on="0"/>
        <pt x="418" y="359" on="0"/>
        <pt x="418" y="273" on="1"/>
        <pt x="418" y="240" on="1"/>
        <pt x="403" y="225" on="1"/>
        <pt x="123" y="225" on="1"/>
        <pt x="125" y="148" on="0"/>
        <pt x="207" y="56" on="0"/>
        <pt x="336" y="56" on="0"/>
        <pt x="395" y="82" on="1"/>
        <pt x="409" y="56" on="1"/>
        <pt x="397" y="44" on="0"/>
        <pt x="363" y="19" on="0"/>
        <pt x="288" y="-8" on="0"/>
        <pt x="247" y="-8" on="1"/>
        <pt x="154" y="-8" on="0"/>
        <pt x="38" y="115" on="0"/>
      </contour>
      <contour>
        <pt x="237" y="394" on="1"/>
        <pt x="190" y="394" on="0"/>
        <pt x="160" y="379" on="1"/>
        <pt x="148" y="364" on="0"/>
        <pt x="125" y="298" on="0"/>
        <pt x="124" y="268" on="1"/>
        <pt x="338" y="274" on="1"/>
        <pt x="338" y="394" on="0"/>
      </contour>
      <contour>
        <pt x="115" y="562" on="0"/>
        <pt x="84" y="593" on="0"/>
        <pt x="84" y="640" on="0"/>
        <pt x="115" y="672" on="0"/>
        <pt x="162" y="672" on="0"/>
        <pt x="194" y="640" on="0"/>
        <pt x="194" y="593" on="0"/>
        <pt x="162" y="562" on="0"/>
      </contour>
      <contour>
        <pt x="313" y="562" on="0"/>
        <pt x="282" y="593" on="0"/>
        <pt x="282" y="640" on="0"/>
        <pt x="313" y="672" on="0"/>
        <pt x="360" y="672" on="0"/>
        <pt x="392" y="640" on="0"/>
        <pt x="392" y="593" on="0"/>
        <pt x="360" y="562" on="0"/>
      </contour>
    </TTGlyph>
    <TTGlyph name="egrave" xMin="38" yMin="-8" xMax="418" yMax="688">
      <contour>
        <pt x="38" y="335" on="0"/>
        <pt x="164" y="458" on="0"/>
        <pt x="332" y="458" on="0"/>
        <pt x="418" y="359" on="0"/>
        <pt x="418" y="273" on="1"/>
        <pt x="418" y="240" on="1"/>
        <pt x="403" y="225" on="1"/>
        <pt x="123" y="225" on="1"/>
        <pt x="125" y="148" on="0"/>
        <pt x="207" y="56" on="0"/>
        <pt x="336" y="56" on="0"/>
        <pt x="395" y="82" on="1"/>
        <pt x="409" y="56" on="1"/>
        <pt x="397" y="44" on="0"/>
        <pt x="363" y="19" on="0"/>
        <pt x="288" y="-8" on="0"/>
        <pt x="247" y="-8" on="1"/>
        <pt x="154" y="-8" on="0"/>
        <pt x="38" y="115" on="0"/>
      </contour>
      <contour>
        <pt x="237" y="394" on="1"/>
        <pt x="190" y="394" on="0"/>
        <pt x="160" y="379" on="1"/>
        <pt x="148" y="364" on="0"/>
        <pt x="125" y="298" on="0"/>
        <pt x="124" y="268" on="1"/>
        <pt x="338" y="274" on="1"/>
        <pt x="338" y="394" on="0"/>
      </contour>
      <contour>
        <pt x="337" y="552" on="1"/>
        <pt x="126" y="629" on="1"/>
        <pt x="169" y="684" on="1"/>
        <pt x="189" y="688" on="1"/>
        <pt x="350" y="572" on="1"/>
      </contour>
    </TTGlyph>
    <TTGlyph name="eight" xMin="49" yMin="-8" xMax="476" yMax="658">
      <contour>
        <pt x="61" y="559" on="0"/>
        <pt x="174" y="658" on="0"/>
        <pt x="348" y="658" on="0"/>
        <pt x="458" y="567" on="0"/>
        <pt x="458" y="499" on="1"/>
        <pt x="458" y="448" on="0"/>
        <pt x="393" y="364" on="0"/>
        <pt x="336" y="339" on="1"/>
        <pt x="476" y="280" on="0"/>
        <pt x="476" y="165" on="1"/>
        <pt x="476" y="89" on="0"/>
        <pt x="357" y="-8" on="0"/>
        <pt x="161" y="-8" on="0"/>
        <pt x="49" y="78" on="0"/>
        <pt x="49" y="213" on="0"/>
        <pt x="128" y="301" on="0"/>
        <pt x="178" y="323" on="1"/>
        <pt x="123" y="345" on="0"/>
        <pt x="61" y="430" on="0"/>
        <pt x="61" y="484" on="1"/>
      </contour>
      <contour>
        <pt x="133" y="166" on="1"/>
        <pt x="133" y="111" on="0"/>
        <pt x="208" y="54" on="0"/>
        <pt x="335" y="54" on="0"/>
        <pt x="377" y="79" on="1"/>
        <pt x="396" y="105" on="0"/>
        <pt x="396" y="197" on="0"/>
        <pt x="334" y="260" on="0"/>
        <pt x="240" y="297" on="1"/>
        <pt x="133" y="243" on="0"/>
      </contour>
      <contour>
        <pt x="374" y="542" on="0"/>
        <pt x="308" y="596" on="0"/>
        <pt x="199" y="596" on="0"/>
        <pt x="160" y="573" on="1"/>
        <pt x="141" y="544" on="0"/>
        <pt x="141" y="458" on="0"/>
        <pt x="192" y="399" on="0"/>
        <pt x="272" y="365" on="1"/>
        <pt x="374" y="417" on="0"/>
        <pt x="374" y="492" on="1"/>
      </contour>
    </TTGlyph>
    <TTGlyph name="ellipsis" xMin="52" yMin="-8" xMax="582" yMax="102">
      <contour>
        <pt x="83" y="-8" on="0"/>
        <pt x="52" y="23" on="0"/>
        <pt x="52" y="70" on="0"/>
        <pt x="83" y="102" on="0"/>
        <pt x="130" y="102" on="0"/>
        <pt x="162" y="70" on="0"/>
        <pt x="162" y="23" on="0"/>
        <pt x="130" y="-8" on="0"/>
      </contour>
      <contour>
        <pt x="293" y="-8" on="0"/>
        <pt x="262" y="23" on="0"/>
        <pt x="262" y="70" on="0"/>
        <pt x="293" y="102" on="0"/>
        <pt x="340" y="102" on="0"/>
        <pt x="372" y="70" on="0"/>
        <pt x="372" y="23" on="0"/>
        <pt x="340" y="-8" on="0"/>
      </contour>
      <contour>
        <pt x="503" y="-8" on="0"/>
        <pt x="472" y="23" on="0"/>
        <pt x="472" y="70" on="0"/>
        <pt x="503" y="102" on="0"/>
        <pt x="550" y="102" on="0"/>
        <pt x="582" y="70" on="0"/>
        <pt x="582" y="23" on="0"/>
        <pt x="550" y="-8" on="0"/>
      </contour>
    </TTGlyph>
    <TTGlyph name="emdash" xMin="62" yMin="194" xMax="826" yMax="266">
      <contour>
        <pt x="62" y="217" on="1"/>
        <pt x="74" y="256" on="1"/>
        <pt x="375" y="256" on="0"/>
        <pt x="705" y="264" on="1"/>
        <pt x="815" y="266" on="1"/>
        <pt x="826" y="254" on="1"/>
        <pt x="815" y="194" on="1"/>
        <pt x="163" y="205" on="0"/>
        <pt x="73" y="205" on="1"/>
      </contour>
    </TTGlyph>
    <TTGlyph name="endash" xMin="63" yMin="197" xMax="542" yMax="265">
      <contour>
        <pt x="63" y="217" on="1"/>
        <pt x="75" y="256" on="1"/>
        <pt x="295" y="256" on="0"/>
        <pt x="466" y="262" on="1"/>
        <pt x="531" y="265" on="1"/>
        <pt x="542" y="253" on="1"/>
        <pt x="531" y="197" on="1"/>
        <pt x="135" y="205" on="0"/>
        <pt x="74" y="205" on="1"/>
      </contour>
    </TTGlyph>
    <TTGlyph name="equal" xMin="65" yMin="215" xMax="473" yMax="436">
      <contour>
        <pt x="65" y="389" on="1"/>
        <pt x="77" y="434" on="1"/>
        <pt x="462" y="436" on="1"/>
        <pt x="473" y="424" on="1"/>
        <pt x="462" y="375" on="1"/>
        <pt x="107" y="377" on="0"/>
        <pt x="76" y="377" on="1"/>
      </contour>
      <contour>
        <pt x="65" y="229" on="1"/>
        <pt x="77" y="274" on="1"/>
        <pt x="462" y="276" on="1"/>
        <pt x="473" y="264" on="1"/>
        <pt x="462" y="215" on="1"/>
        <pt x="107" y="217" on="0"/>
        <pt x="76" y="217" on="1"/>
      </contour>
    </TTGlyph>
    <TTGlyph name="eth" xMin="38" yMin="-8" xMax="469" yMax="706">
      <contour>
        <pt x="469" y="268" on="1"/>
        <pt x="469" y="124" on="0"/>
        <pt x="345" y="-8" on="0"/>
        <pt x="151" y="-8" on="0"/>
        <pt x="38" y="119" on="0"/>
        <pt x="38" y="340" on="0"/>
        <pt x="169" y="458" on="0"/>
        <pt x="256" y="458" on="1"/>
        <pt x="310" y="458" on="0"/>
        <pt x="353" y="431" on="1"/>
        <pt x="320" y="513" on="0"/>
        <pt x="250" y="573" on="1"/>
        <pt x="243" y="563" on="0"/>
        <pt x="223" y="538" on="0"/>
        <pt x="217" y="530" on="1"/>
        <pt x="208" y="518" on="1"/>
        <pt x="192" y="516" on="1"/>
        <pt x="161" y="546" on="1"/>
        <pt x="204" y="608" on="1"/>
        <pt x="189" y="619" on="0"/>
        <pt x="135" y="654" on="0"/>
        <pt x="133" y="655" on="1"/>
        <pt x="151" y="688" on="1"/>
        <pt x="196" y="671" on="0"/>
        <pt x="234" y="651" on="1"/>
        <pt x="273" y="704" on="1"/>
        <pt x="290" y="706" on="1"/>
        <pt x="328" y="672" on="1"/>
        <pt x="308" y="647" on="0"/>
        <pt x="286" y="619" on="1"/>
        <pt x="369" y="565" on="0"/>
        <pt x="469" y="379" on="0"/>
      </contour>
      <contour>
        <pt x="383" y="224" on="1"/>
        <pt x="384" y="241" on="0"/>
        <pt x="384" y="312" on="0"/>
        <pt x="374" y="358" on="1"/>
        <pt x="318" y="396" on="0"/>
        <pt x="195" y="396" on="0"/>
        <pt x="160" y="372" on="1"/>
        <pt x="123" y="320" on="0"/>
        <pt x="123" y="155" on="0"/>
        <pt x="190" y="56" on="0"/>
        <pt x="253" y="56" on="1"/>
        <pt x="301" y="56" on="0"/>
        <pt x="337" y="71" on="1"/>
        <pt x="378" y="123" on="0"/>
      </contour>
    </TTGlyph>
    <TTGlyph name="exclam" xMin="69" yMin="-8" xMax="179" yMax="688">
      <contour>
        <pt x="71" y="678" on="1"/>
        <pt x="163" y="688" on="1"/>
        <pt x="175" y="677" on="1"/>
        <pt x="141" y="191" on="1"/>
        <pt x="116" y="187" on="1"/>
        <pt x="103" y="189" on="1"/>
      </contour>
      <contour>
        <pt x="100" y="-8" on="0"/>
        <pt x="69" y="23" on="0"/>
        <pt x="69" y="70" on="0"/>
        <pt x="100" y="102" on="0"/>
        <pt x="147" y="102" on="0"/>
        <pt x="179" y="70" on="0"/>
        <pt x="179" y="23" on="0"/>
        <pt x="147" y="-8" on="0"/>
      </contour>
    </TTGlyph>
    <TTGlyph name="exclamdown" xMin="58" yMin="-238" xMax="168" yMax="458">
      <contour>
        <pt x="165" y="-228" on="1"/>
        <pt x="73" y="-238" on="1"/>
        <pt x="61" y="-227" on="1"/>
        <pt x="95" y="259" on="1"/>
        <pt x="120" y="263" on="1"/>
        <pt x="133" y="261" on="1"/>
      </contour>
      <contour>
        <pt x="89" y="348" on="0"/>
        <pt x="58" y="379" on="0"/>
        <pt x="58" y="426" on="0"/>
        <pt x="89" y="458" on="0"/>
        <pt x="136" y="458" on="0"/>
        <pt x="168" y="426" on="0"/>
        <pt x="168" y="379" on="0"/>
        <pt x="136" y="348" on="0"/>
      </contour>
    </TTGlyph>
    <TTGlyph name="f" xMin="23" yMin="0" xMax="347" yMax="686">
      <contour>
        <pt x="333" y="610" on="1"/>
        <pt x="294" y="617" on="0"/>
        <pt x="218" y="617" on="0"/>
        <pt x="194" y="605" on="1"/>
        <pt x="180" y="575" on="0"/>
        <pt x="180" y="480" on="1"/>
        <pt x="180" y="450" on="1"/>
        <pt x="289" y="450" on="1"/>
        <pt x="300" y="438" on="1"/>
        <pt x="290" y="400" on="1"/>
        <pt x="180" y="404" on="1"/>
        <pt x="180" y="61" on="1"/>
        <pt x="274" y="22" on="1"/>
        <pt x="268" y="0" on="1"/>
        <pt x="29" y="0" on="1"/>
        <pt x="23" y="22" on="1"/>
        <pt x="68" y="41" on="1"/>
        <pt x="86" y="48" on="0"/>
        <pt x="99" y="64" on="0"/>
        <pt x="99" y="79" on="1"/>
        <pt x="99" y="403" on="1"/>
        <pt x="29" y="402" on="1"/>
        <pt x="23" y="424" on="1"/>
        <pt x="99" y="458" on="1"/>
        <pt x="105" y="648" on="0"/>
        <pt x="247" y="681" on="1"/>
        <pt x="279" y="686" on="0"/>
        <pt x="292" y="686" on="1"/>
        <pt x="326" y="686" on="0"/>
        <pt x="340" y="680" on="1"/>
        <pt x="347" y="659" on="1"/>
      </contour>
    </TTGlyph>
    <TTGlyph name="ff" xMin="23" yMin="0" xMax="621" yMax="688">
      <contour>
        <pt x="607" y="610" on="1"/>
        <pt x="568" y="617" on="0"/>
        <pt x="492" y="617" on="0"/>
        <pt x="468" y="605" on="1"/>
        <pt x="454" y="575" on="0"/>
        <pt x="454" y="480" on="1"/>
        <pt x="454" y="450" on="1"/>
        <pt x="563" y="450" on="1"/>
        <pt x="574" y="438" on="1"/>
        <pt x="564" y="400" on="1"/>
        <pt x="454" y="404" on="1"/>
        <pt x="454" y="61" on="1"/>
        <pt x="548" y="22" on="1"/>
        <pt x="542" y="0" on="1"/>
        <pt x="303" y="0" on="1"/>
        <pt x="297" y="22" on="1"/>
        <pt x="342" y="41" on="1"/>
        <pt x="360" y="48" on="0"/>
        <pt x="373" y="64" on="0"/>
        <pt x="373" y="79" on="1"/>
        <pt x="373" y="401" on="1"/>
        <pt x="180" y="404" on="1"/>
        <pt x="180" y="50" on="1"/>
        <pt x="249" y="22" on="1"/>
        <pt x="243" y="0" on="1"/>
        <pt x="29" y="0" on="1"/>
        <pt x="23" y="22" on="1"/>
        <pt x="68" y="41" on="1"/>
        <pt x="86" y="48" on="0"/>
        <pt x="99" y="64" on="0"/>
        <pt x="99" y="79" on="1"/>
        <pt x="99" y="403" on="1"/>
        <pt x="29" y="402" on="1"/>
        <pt x="23" y="424" on="1"/>
        <pt x="99" y="458" on="1"/>
        <pt x="99" y="556" on="0"/>
        <pt x="159" y="619" on="1"/>
        <pt x="224" y="688" on="0"/>
        <pt x="330" y="688" on="1"/>
        <pt x="394" y="688" on="0"/>
        <pt x="473" y="663" on="1"/>
        <pt x="517" y="686" on="0"/>
        <pt x="572" y="686" on="1"/>
        <pt x="601" y="686" on="0"/>
        <pt x="614" y="680" on="1"/>
        <pt x="621" y="659" on="1"/>
      </contour>
      <contour>
        <pt x="180" y="450" on="1"/>
        <pt x="373" y="450" on="1"/>
        <pt x="373" y="548" on="0"/>
        <pt x="413" y="608" on="1"/>
        <pt x="378" y="623" on="0"/>
        <pt x="316" y="623" on="1"/>
        <pt x="236" y="623" on="0"/>
        <pt x="199" y="596" on="1"/>
        <pt x="180" y="566" on="0"/>
      </contour>
    </TTGlyph>
    <TTGlyph name="ffi" xMin="23" yMin="0" xMax="817" yMax="688">
      <contour>
        <pt x="99" y="79" on="1"/>
        <pt x="99" y="403" on="1"/>
        <pt x="29" y="402" on="1"/>
        <pt x="23" y="424" on="1"/>
        <pt x="99" y="458" on="1"/>
        <pt x="99" y="556" on="0"/>
        <pt x="159" y="619" on="1"/>
        <pt x="224" y="688" on="0"/>
        <pt x="330" y="688" on="1"/>
        <pt x="394" y="688" on="0"/>
        <pt x="473" y="663" on="1"/>
        <pt x="521" y="688" on="0"/>
        <pt x="583" y="688" on="1"/>
        <pt x="687" y="688" on="0"/>
        <pt x="747" y="616" on="1"/>
        <pt x="687" y="563" on="1"/>
        <pt x="669" y="568" on="1"/>
        <pt x="656" y="588" on="0"/>
        <pt x="627" y="605" on="1"/>
        <pt x="596" y="623" on="0"/>
        <pt x="499" y="623" on="0"/>
        <pt x="473" y="602" on="1"/>
        <pt x="454" y="572" on="0"/>
        <pt x="454" y="450" on="1"/>
        <pt x="718" y="458" on="1"/>
        <pt x="738" y="450" on="1"/>
        <pt x="738" y="54" on="1"/>
        <pt x="817" y="22" on="1"/>
        <pt x="811" y="0" on="1"/>
        <pt x="587" y="0" on="1"/>
        <pt x="581" y="22" on="1"/>
        <pt x="626" y="41" on="1"/>
        <pt x="644" y="48" on="0"/>
        <pt x="657" y="64" on="0"/>
        <pt x="657" y="79" on="1"/>
        <pt x="657" y="401" on="1"/>
        <pt x="454" y="404" on="1"/>
        <pt x="454" y="54" on="1"/>
        <pt x="533" y="22" on="1"/>
        <pt x="527" y="0" on="1"/>
        <pt x="303" y="0" on="1"/>
        <pt x="297" y="22" on="1"/>
        <pt x="342" y="41" on="1"/>
        <pt x="360" y="48" on="0"/>
        <pt x="373" y="64" on="0"/>
        <pt x="373" y="79" on="1"/>
        <pt x="373" y="401" on="1"/>
        <pt x="180" y="404" on="1"/>
        <pt x="180" y="50" on="1"/>
        <pt x="249" y="22" on="1"/>
        <pt x="243" y="0" on="1"/>
        <pt x="29" y="0" on="1"/>
        <pt x="23" y="22" on="1"/>
        <pt x="68" y="41" on="1"/>
        <pt x="86" y="48" on="0"/>
        <pt x="99" y="64" on="0"/>
      </contour>
      <contour>
        <pt x="180" y="566" on="0"/>
        <pt x="180" y="450" on="1"/>
        <pt x="373" y="450" on="1"/>
        <pt x="373" y="548" on="0"/>
        <pt x="413" y="608" on="1"/>
        <pt x="377" y="623" on="0"/>
        <pt x="316" y="623" on="1"/>
        <pt x="236" y="623" on="0"/>
        <pt x="199" y="596" on="1"/>
      </contour>
    </TTGlyph>
    <TTGlyph name="ffj" xMin="23" yMin="-238" xMax="747" yMax="688">
      <contour>
        <pt x="99" y="79" on="1"/>
        <pt x="99" y="403" on="1"/>
        <pt x="29" y="402" on="1"/>
        <pt x="23" y="424" on="1"/>
        <pt x="99" y="458" on="1"/>
        <pt x="99" y="556" on="0"/>
        <pt x="159" y="619" on="1"/>
        <pt x="224" y="688" on="0"/>
        <pt x="330" y="688" on="1"/>
        <pt x="394" y="688" on="0"/>
        <pt x="473" y="663" on="1"/>
        <pt x="521" y="688" on="0"/>
        <pt x="583" y="688" on="1"/>
        <pt x="687" y="688" on="0"/>
        <pt x="747" y="616" on="1"/>
        <pt x="687" y="563" on="1"/>
        <pt x="669" y="568" on="1"/>
        <pt x="656" y="588" on="0"/>
        <pt x="627" y="605" on="1"/>
        <pt x="596" y="623" on="0"/>
        <pt x="499" y="623" on="0"/>
        <pt x="473" y="602" on="1"/>
        <pt x="454" y="572" on="0"/>
        <pt x="454" y="450" on="1"/>
        <pt x="708" y="458" on="1"/>
        <pt x="728" y="450" on="1"/>
        <pt x="728" y="0" on="1"/>
        <pt x="728" y="-80" on="0"/>
        <pt x="651" y="-201" on="0"/>
        <pt x="585" y="-238" on="1"/>
        <pt x="571" y="-220" on="1"/>
        <pt x="647" y="-131" on="0"/>
        <pt x="647" y="-8" on="1"/>
        <pt x="647" y="401" on="1"/>
        <pt x="454" y="404" on="1"/>
        <pt x="454" y="54" on="1"/>
        <pt x="533" y="22" on="1"/>
        <pt x="527" y="0" on="1"/>
        <pt x="303" y="0" on="1"/>
        <pt x="297" y="22" on="1"/>
        <pt x="342" y="41" on="1"/>
        <pt x="360" y="48" on="0"/>
        <pt x="373" y="64" on="0"/>
        <pt x="373" y="79" on="1"/>
        <pt x="373" y="401" on="1"/>
        <pt x="180" y="404" on="1"/>
        <pt x="180" y="50" on="1"/>
        <pt x="249" y="22" on="1"/>
        <pt x="243" y="0" on="1"/>
        <pt x="29" y="0" on="1"/>
        <pt x="23" y="22" on="1"/>
        <pt x="68" y="41" on="1"/>
        <pt x="86" y="48" on="0"/>
        <pt x="99" y="64" on="0"/>
      </contour>
      <contour>
        <pt x="180" y="566" on="0"/>
        <pt x="180" y="450" on="1"/>
        <pt x="373" y="450" on="1"/>
        <pt x="373" y="548" on="0"/>
        <pt x="413" y="608" on="1"/>
        <pt x="377" y="623" on="0"/>
        <pt x="316" y="623" on="1"/>
        <pt x="236" y="623" on="0"/>
        <pt x="199" y="596" on="1"/>
      </contour>
    </TTGlyph>
</ttFont>
